<?xml version="1.0" encoding="UTF-8"?>
<!DOCTYPE svg PUBLIC "-//W3C//DTD SVG 1.1//EN" "http://www.w3.org/Graphics/SVG/1.1/DTD/svg11.dtd">
<svg xmlns="http://www.w3.org/2000/svg" version="1.1" width="800px" height="800px" style="shape-rendering:geometricPrecision; text-rendering:geometricPrecision; image-rendering:optimizeQuality; fill-rule:evenodd; clip-rule:evenodd" xmlns:xlink="http://www.w3.org/1999/xlink">
<g><path style="opacity:0.981" fill="#b1351d" d="M 138.5,58.5 C 311.167,58.3333 483.834,58.5 656.5,59C 665.488,61.8522 671.655,68.0189 675,77.5C 675.667,248.167 675.667,418.833 675,589.5C 672.167,599 666,605.167 656.5,608C 483.833,608.667 311.167,608.667 138.5,608C 128.594,605.093 122.427,598.593 120,588.5C 119.333,418.167 119.333,247.833 120,77.5C 123.687,68.6475 129.854,62.3141 138.5,58.5 Z M 364.5,103.5 C 375.17,102.004 383.503,105.671 389.5,114.5C 404.05,107.685 413.883,112.018 419,127.5C 423.667,124.157 428.5,124.324 433.5,128C 436.231,131.312 438.564,134.812 440.5,138.5C 451.748,123.15 465.748,119.984 482.5,129C 487.107,132.933 490.94,137.433 494,142.5C 507.877,131.404 520.877,132.404 533,145.5C 535.441,149.935 537.275,154.602 538.5,159.5C 553.355,155.513 563.188,160.847 568,175.5C 568.497,179.524 568.331,183.524 567.5,187.5C 577.198,186.265 584.364,189.932 589,198.5C 591.338,205.601 590.838,212.435 587.5,219C 590.327,221.358 593.161,223.858 596,226.5C 600.374,235.883 598.874,244.216 591.5,251.5C 597.664,256.953 598.998,263.453 595.5,271C 614.142,276.78 621.642,289.28 618,308.5C 616.893,311.879 615.393,315.046 613.5,318C 619.225,320.96 624.392,324.793 629,329.5C 636.017,343.253 633.517,354.919 621.5,364.5C 633.402,376.402 633.402,388.235 621.5,400C 617.79,401.515 614.456,403.515 611.5,406C 616.661,413.98 616.828,422.147 612,430.5C 607.098,435.971 600.932,438.638 593.5,438.5C 592.896,454.767 584.563,461.433 568.5,458.5C 567.755,464.585 564.421,468.585 558.5,470.5C 559.579,486.52 553.245,498.353 539.5,506C 534.344,507.962 529.011,508.795 523.5,508.5C 526.432,520.539 523.098,530.373 513.5,538C 505.259,542.424 496.925,542.59 488.5,538.5C 484.341,554.915 474.008,561.082 457.5,557C 455.167,555.5 452.833,554 450.5,552.5C 442.762,565.468 432.095,568.634 418.5,562C 415.978,559.478 413.478,556.978 411,554.5C 397.457,561.875 387.957,558.375 382.5,544C 377.263,545.221 372.263,544.554 367.5,542C 364.347,539.195 362.681,535.695 362.5,531.5C 361.022,531.238 359.689,531.571 358.5,532.5C 350.775,542.865 340.442,546.698 327.5,544C 323.456,543.144 319.789,541.478 316.5,539C 312.627,535.35 309.127,531.516 306,527.5C 290.416,538.536 276.916,536.37 265.5,521C 265.833,520.667 266.167,520.333 266.5,520C 264.206,517.282 263.206,514.115 263.5,510.5C 249.353,514.341 239.186,509.675 233,496.5C 232.201,491.913 232.368,487.413 233.5,483C 212.656,480.821 205.656,469.821 212.5,450C 199.44,440.854 198.107,430.187 208.5,418C 202.787,411.987 201.454,405.154 204.5,397.5C 190.067,393.558 182.4,384.058 181.5,369C 181.74,362.528 183.74,356.694 187.5,351.5C 168.463,343.555 163.296,330.222 172,311.5C 174.838,309.692 177.005,307.358 178.5,304.5C 175.446,300.925 172.946,296.925 171,292.5C 168.663,278.034 174.496,269.034 188.5,265.5C 183.512,256.93 183.346,248.264 188,239.5C 192.912,234.026 199.079,231.359 206.5,231.5C 206.812,214.533 215.145,207.867 231.5,211.5C 232.372,203.292 236.706,198.959 244.5,198.5C 241.63,174.863 252.13,162.196 276,160.5C 274.898,134.612 287.065,124.612 312.5,130.5C 315.568,114.275 325.234,107.775 341.5,111C 344.656,112.672 347.656,114.505 350.5,116.5C 353.903,110.762 358.57,106.428 364.5,103.5 Z"/></g>
<g><path style="opacity:0.955" fill="#b1361d" d="M 383.5,135.5 C 384.675,135.281 385.675,135.614 386.5,136.5C 389.996,143.582 395.663,146.415 403.5,145C 406.647,144.054 409.647,142.887 412.5,141.5C 415.06,147.253 413.393,151.087 407.5,153C 401.38,158.856 398.714,166.023 399.5,174.5C 384.472,174.188 375.805,181.521 373.5,196.5C 374.251,200.596 375.251,204.596 376.5,208.5C 364.567,212.016 359.4,220.016 361,232.5C 362.324,236.482 364.158,240.149 366.5,243.5C 358.625,249.453 356.458,257.119 360,266.5C 362.006,269.672 364.506,272.338 367.5,274.5C 361.131,284.708 363.131,292.708 373.5,298.5C 374.077,304.137 375.244,309.471 377,314.5C 373.825,318.903 371.325,323.57 369.5,328.5C 366.467,327.073 363.634,327.406 361,329.5C 355.905,317.708 347.405,314.374 335.5,319.5C 335.497,313.33 332.497,309.496 326.5,308C 323.202,307.45 320.202,306.95 317.5,306.5C 318.201,292.929 311.868,284.595 298.5,281.5C 302.361,268.751 298.695,258.751 287.5,251.5C 295.524,240.272 295.191,229.272 286.5,218.5C 290.432,215.071 294.265,211.404 298,207.5C 304.153,197.577 304.986,187.244 300.5,176.5C 314.812,174.855 322.812,166.855 324.5,152.5C 334.858,155.586 343.691,153.253 351,145.5C 352.346,142.13 354.179,139.13 356.5,136.5C 362.783,141.598 369.783,142.765 377.5,140C 380.106,139.208 382.106,137.708 383.5,135.5 Z"/></g>
<g><path style="opacity:0.954" fill="#b0361e" d="M 488.5,171.5 C 489.552,171.351 490.552,171.517 491.5,172C 496.555,179.613 503.722,183.447 513,183.5C 517.156,182.724 521.323,182.058 525.5,181.5C 526.615,191.449 531.948,197.949 541.5,201C 545.62,201.246 549.62,201.412 553.5,201.5C 551.115,213.726 555.781,222.059 567.5,226.5C 562.197,237.415 564.53,246.248 574.5,253C 573.902,254.301 572.902,255.135 571.5,255.5C 561.174,247.423 550.174,246.423 538.5,252.5C 531.424,241.131 521.424,237.298 508.5,241C 503.949,243.009 500.116,245.842 497,249.5C 481.31,239.395 469.31,242.728 461,259.5C 446.092,254.697 437.925,260.03 436.5,275.5C 422.349,274.317 416.015,280.65 417.5,294.5C 412.539,296.294 409.039,299.628 407,304.5C 402,303.167 397,303.167 392,304.5C 390.695,301.702 389.195,299.035 387.5,296.5C 393.662,287.137 392.329,278.97 383.5,272C 390.738,264.638 391.405,256.638 385.5,248C 398.402,242.364 402.736,232.864 398.5,219.5C 411.392,216.614 418.058,208.614 418.5,195.5C 429.006,197.167 437.506,193.833 444,185.5C 444.561,182.71 445.894,180.377 448,178.5C 459.94,185.301 471.773,185.135 483.5,178C 485.79,176.223 487.457,174.056 488.5,171.5 Z"/></g>
<g><path style="opacity:0.959" fill="#b0351d" d="M 240.5,225.5 C 241.833,225.5 243.167,225.5 244.5,225.5C 240.976,239.94 245.31,251.273 257.5,259.5C 250.824,272.629 253.491,283.463 265.5,292C 269.632,293.9 273.966,294.733 278.5,294.5C 276.224,314.057 284.89,322.89 304.5,321C 307.697,336.181 316.53,341.015 331,335.5C 338.19,346.293 347.023,347.959 357.5,340.5C 361.283,345.612 365.949,346.612 371.5,343.5C 374.002,347.819 377.002,351.819 380.5,355.5C 377.474,358.025 375.474,361.191 374.5,365C 362.64,363.359 356.306,368.525 355.5,380.5C 344.746,378.211 336.746,381.878 331.5,391.5C 320.657,383.062 310.657,384.062 301.5,394.5C 293.002,385.06 283.002,383.06 271.5,388.5C 268.547,383.113 264.547,378.613 259.5,375C 254.146,371.79 248.479,370.956 242.5,372.5C 241.757,356.817 234.091,346.317 219.5,341C 217.527,340.505 215.527,340.338 213.5,340.5C 215.305,334.975 216.138,329.308 216,323.5C 215.399,320.363 214.399,317.363 213,314.5C 210.597,311.278 208.097,308.278 205.5,305.5C 208.128,302.357 210.628,299.024 213,295.5C 215.97,286.471 214.47,278.304 208.5,271C 212.896,268.613 216.729,265.446 220,261.5C 222.98,256.109 223.813,250.443 222.5,244.5C 234.646,244.02 240.646,237.687 240.5,225.5 Z"/></g>
<g><path style="opacity:0.954" fill="#b1361d" d="M 497.5,275.5 C 502.126,278.48 507.126,280.98 512.5,283C 518.32,284.036 523.82,283.203 529,280.5C 534.852,293.175 544.685,298.675 558.5,297C 558.81,315.989 568.477,326.989 587.5,330C 582.248,338.874 582.415,347.707 588,356.5C 590.553,358.716 592.72,361.216 594.5,364C 583.75,374.663 582.75,386.163 591.5,398.5C 588.167,401.265 584.667,403.932 581,406.5C 577.308,412.451 576.142,418.785 577.5,425.5C 565.888,425.778 559.888,431.778 559.5,443.5C 558.167,443.5 556.833,443.5 555.5,443.5C 557.682,434.668 556.516,426.335 552,418.5C 548.639,415.76 545.472,412.927 542.5,410C 548.591,397.076 545.924,386.41 534.5,378C 531.077,376.096 527.41,375.263 523.5,375.5C 526.406,359.622 520.073,349.956 504.5,346.5C 501.553,347.423 498.553,348.089 495.5,348.5C 494.395,336.226 487.728,330.726 475.5,332C 473.385,332.557 471.385,333.391 469.5,334.5C 462.436,323.347 453.603,321.68 443,329.5C 439.318,325.331 434.818,323.664 429.5,324.5C 427.54,320.075 425.206,315.908 422.5,312C 424.191,309.429 425.191,306.596 425.5,303.5C 437.275,305.398 443.942,300.398 445.5,288.5C 453.732,290.397 460.565,288.064 466,281.5C 466.483,280.552 466.649,279.552 466.5,278.5C 471.413,281.278 476.747,282.945 482.5,283.5C 488.827,283.172 493.827,280.505 497.5,275.5 Z"/></g>
<g><path style="opacity:0.956" fill="#b1361e" d="M 429.5,340.5 C 432.837,341.739 436.17,341.739 439.5,340.5C 444.306,352.212 452.306,355.212 463.5,349.5C 466.44,359.423 473.107,363.756 483.5,362.5C 481.964,375.767 487.63,384.101 500.5,387.5C 500.143,393.512 500.643,399.512 502,405.5C 504.448,410.572 507.948,414.739 512.5,418C 505.413,428.935 505.913,439.435 514,449.5C 514.483,450.448 514.649,451.448 514.5,452.5C 507.61,454.887 502.777,459.554 500,466.5C 496.672,475.567 496.839,484.567 500.5,493.5C 485.453,494.547 477.453,502.547 476.5,517.5C 461.223,512.806 450.556,517.806 444.5,532.5C 434.352,525.562 424.519,525.895 415,533.5C 408.343,524.043 399.843,522.043 389.5,527.5C 388.112,525.891 387.112,524.058 386.5,522C 390.978,518.855 394.811,515.022 398,510.5C 400.252,505.409 401.418,500.075 401.5,494.5C 413.08,495.138 420.913,490.138 425,479.5C 425.95,473.68 425.45,468.013 423.5,462.5C 433.627,459.307 439.294,452.307 440.5,441.5C 439.574,435.884 437.574,430.717 434.5,426C 445.687,414.82 445.021,404.487 432.5,395C 438.265,386.786 437.599,379.12 430.5,372C 428.975,370.991 427.308,370.491 425.5,370.5C 427.831,364.406 426.497,359.406 421.5,355.5C 424.958,350.918 427.624,345.918 429.5,340.5 Z"/></g>
<g><path style="opacity:0.955" fill="#b1361e" d="M 392.5,362.5 C 398.158,363.768 403.825,363.768 409.5,362.5C 409.338,364.527 409.505,366.527 410,368.5C 411.353,369.685 412.52,371.019 413.5,372.5C 406.562,381.759 407.562,390.093 416.5,397.5C 410.634,404.859 409.968,412.692 414.5,421C 409.402,423.762 405.236,427.595 402,432.5C 400.221,438.443 400.054,444.443 401.5,450.5C 389.148,453.188 382.481,460.854 381.5,473.5C 367.543,472.643 357.876,478.643 352.5,491.5C 336.433,482.056 322.267,484.389 310,498.5C 300.859,487.339 289.359,483.839 275.5,488C 272.419,473.063 263.419,466.563 248.5,468.5C 249.346,459.552 246.346,452.052 239.5,446C 237.783,444.441 235.783,443.608 233.5,443.5C 238.014,432.213 235.348,423.046 225.5,416C 227.044,414.813 228.711,414.48 230.5,415C 240.061,422.626 250.227,423.46 261,417.5C 264.1,420.6 267.267,423.767 270.5,427C 283.102,433.225 293.936,431.059 303,420.5C 319.514,430.996 331.847,427.329 340,409.5C 347.904,413.885 354.904,412.552 361,405.5C 362.805,401.839 363.972,398.005 364.5,394C 379.088,394.584 385.422,387.751 383.5,373.5C 389.535,372.477 392.535,368.81 392.5,362.5 Z"/></g>
<g><path style="opacity:0.915" fill="#231f20" d="M 298.5,640.5 C 303.5,640.5 308.5,640.5 313.5,640.5C 313.833,672.507 313.5,704.507 312.5,736.5C 265.35,749.849 246.517,732.516 256,684.5C 261.42,670.189 271.92,663.522 287.5,664.5C 291.163,664.944 294.829,665.278 298.5,665.5C 298.5,657.167 298.5,648.833 298.5,640.5 Z M 279.5,677.5 C 285.561,677.21 291.561,677.543 297.5,678.5C 298.499,694.82 298.833,711.153 298.5,727.5C 291.478,728.896 284.478,728.73 277.5,727C 273.529,725.12 271.363,721.953 271,717.5C 269.42,707.797 269.42,698.13 271,688.5C 271.495,682.858 274.328,679.191 279.5,677.5 Z"/></g>
<g><path style="opacity:0.903" fill="#221f1f" d="M 146.5,664.5 C 152.602,664.377 158.602,665.043 164.5,666.5C 165.415,667.328 166.081,668.328 166.5,669.5C 165.593,672.421 165.26,675.421 165.5,678.5C 158.089,677.075 150.755,677.242 143.5,679C 141.622,680.543 140.122,682.376 139,684.5C 136.211,695.426 135.877,706.426 138,717.5C 140.07,725.045 145.07,728.712 153,728.5C 157.147,727.877 161.314,727.544 165.5,727.5C 165.507,730.038 165.841,732.538 166.5,735C 166.561,736.711 165.894,738.044 164.5,739C 135.821,745.037 121.154,733.037 120.5,703C 120.095,688.881 125.095,677.214 135.5,668C 139.161,666.407 142.828,665.241 146.5,664.5 Z"/></g>
<g><path style="opacity:0.898" fill="#231e20" d="M 201.5,664.5 C 222.171,661.348 234.337,670.015 238,690.5C 239.294,702.066 238.294,713.4 235,724.5C 231.754,733.054 225.588,738.221 216.5,740C 205.855,741.859 195.855,740.192 186.5,735C 177.948,723.965 174.448,711.465 176,697.5C 176.468,688.431 179.134,680.098 184,672.5C 189.061,667.987 194.895,665.32 201.5,664.5 Z M 199.5,677.5 C 204.844,677.334 210.177,677.501 215.5,678C 218.728,679.563 220.895,682.063 222,685.5C 223.526,695.115 223.859,704.781 223,714.5C 222.744,724.589 217.577,729.256 207.5,728.5C 200.747,729.382 196.247,726.716 194,720.5C 190.255,706.897 190.922,693.563 196,680.5C 197.145,679.364 198.312,678.364 199.5,677.5 Z"/></g>
<g><path style="opacity:0.899" fill="#231e20" d="M 357.5,664.5 C 375.064,662.271 385.897,669.604 390,686.5C 390.667,692.833 390.667,699.167 390,705.5C 375.41,707.474 360.576,708.14 345.5,707.5C 345.66,721.994 352.994,728.994 367.5,728.5C 373.759,728.315 379.759,726.982 385.5,724.5C 386.167,724.833 386.833,725.167 387.5,725.5C 388.489,729.107 388.823,732.774 388.5,736.5C 378.142,740.196 367.476,741.363 356.5,740C 337.568,735.2 328.901,722.867 330.5,703C 329.752,689.894 334.086,678.894 343.5,670C 347.983,667.455 352.65,665.622 357.5,664.5 Z M 355.5,677.5 C 371.162,674.501 378.162,680.835 376.5,696.5C 366.145,696.832 355.812,696.499 345.5,695.5C 345.302,687.343 348.635,681.343 355.5,677.5 Z"/></g>
<g><path style="opacity:0.906" fill="#231e1f" d="M 537.5,664.5 C 544.888,664.253 552.221,664.753 559.5,666C 567.307,668.806 571.807,674.306 573,682.5C 573.667,700.5 573.667,718.5 573,736.5C 569.493,738.666 565.66,739.833 561.5,740C 553.5,740.667 545.5,740.667 537.5,740C 519.537,737.268 513.371,727.101 519,709.5C 522.101,703.749 526.934,700.249 533.5,699C 542.13,697.505 550.797,696.338 559.5,695.5C 560.102,689.976 559.102,684.81 556.5,680C 554.913,679.138 553.246,678.471 551.5,678C 542.584,677.884 533.751,677.717 525,677.5C 524.327,674.479 523.993,671.479 524,668.5C 524.5,668 525,667.5 525.5,667C 529.665,666.295 533.665,665.461 537.5,664.5 Z M 542.5,706.5 C 548.167,706.5 553.833,706.5 559.5,706.5C 559.683,713.868 559.35,721.201 558.5,728.5C 551.139,729.937 543.806,729.771 536.5,728C 532.379,721.155 532.713,714.488 537.5,708C 539.382,707.802 541.048,707.302 542.5,706.5 Z"/></g>
<g><path style="opacity:0.954" fill="#221e1f" d="M 613.5,664.5 C 619.523,664.502 625.523,664.835 631.5,665.5C 631.797,669.767 631.464,673.934 630.5,678C 626.716,677.955 622.883,677.788 619,677.5C 615.38,677.416 611.88,677.916 608.5,679C 609.659,698.093 609.826,717.26 609,736.5C 608.626,737.416 608.126,738.25 607.5,739C 603.11,739.772 598.777,739.606 594.5,738.5C 593.334,715.174 593.167,691.84 594,668.5C 600.505,666.67 607.005,665.336 613.5,664.5 Z"/></g>
<g><path style="opacity:0.886" fill="#231e20" d="M 654.5,664.5 C 661.881,664.314 669.214,664.814 676.5,666C 677,666.5 677.5,667 678,667.5C 678.207,671.094 677.707,674.594 676.5,678C 668.864,677.522 661.197,677.522 653.5,678C 649.371,680.631 648.538,684.131 651,688.5C 656.723,693.611 662.89,698.111 669.5,702C 680.698,711.196 682.531,722.029 675,734.5C 672.749,736.377 670.249,737.877 667.5,739C 658.576,740.58 649.576,740.913 640.5,740C 638.899,739.727 637.399,739.227 636,738.5C 635.207,734.577 635.374,730.744 636.5,727C 644.059,728.143 651.726,728.477 659.5,728C 661.329,727.727 662.829,726.893 664,725.5C 664.837,721.705 664.504,718.039 663,714.5C 654.712,708.547 646.712,702.214 639,695.5C 633.851,685.227 635.351,676.06 643.5,668C 647.161,666.407 650.828,665.241 654.5,664.5 Z"/></g>
<g><path style="opacity:0.903" fill="#221f1f" d="M 400.5,666.5 C 405.975,665.919 411.142,666.586 416,668.5C 419.56,688.071 424.06,707.404 429.5,726.5C 434.625,707.332 439.125,687.999 443,668.5C 443.5,668 444,667.5 444.5,667C 451.826,666.5 459.159,666.334 466.5,666.5C 470.238,686.782 474.905,706.782 480.5,726.5C 485.957,707.337 490.791,688.004 495,668.5C 499.518,666.593 504.352,665.926 509.5,666.5C 504.928,691.292 498.261,715.459 489.5,739C 483.167,739.667 476.833,739.667 470.5,739C 470,738.5 469.5,738 469,737.5C 464.831,717.976 460.165,698.642 455,679.5C 450.792,698.998 445.959,718.331 440.5,737.5C 439.975,738.192 439.308,738.692 438.5,739C 432.167,739.667 425.833,739.667 419.5,739C 411.688,715.252 405.354,691.085 400.5,666.5 Z"/></g>
</svg>
