<?xml version="1.0" standalone="no"?>
<!DOCTYPE svg PUBLIC "-//W3C//DTD SVG 20010904//EN"
 "http://www.w3.org/TR/2001/REC-SVG-20010904/DTD/svg10.dtd">
<svg version="1.0" xmlns="http://www.w3.org/2000/svg"
 width="280.000000pt" height="320.000000pt" viewBox="0 0 280.000000 320.000000"
 preserveAspectRatio="xMidYMid meet">
<metadata>
Created by potrace 1.16, written by Peter Selinger 2001-2019
</metadata>
<g transform="translate(0.000000,320.000000) scale(0.100000,-0.100000)"
fill="#000000" stroke="none">
<path d="M1325 3056 c-64 -21 -1106 -611 -1147 -650 -78 -73 -73 -24 -76 -748
-3 -644 -2 -648 19 -698 12 -27 38 -65 58 -83 20 -18 284 -172 586 -342 l550
-310 85 0 85 0 550 309 c305 171 567 325 589 345 79 74 76 36 76 762 l0 645
-26 52 c-14 28 -38 62 -54 75 -45 38 -1111 634 -1155 646 -51 14 -90 13 -140
-3z m655 -417 c294 -165 545 -310 557 -321 12 -11 26 -32 32 -47 8 -18 11
-210 9 -643 -3 -599 -4 -617 -23 -643 -13 -17 -223 -141 -565 -334 -493 -277
-549 -306 -590 -306 -40 0 -102 33 -592 308 -369 208 -552 317 -565 335 -17
25 -18 65 -21 632 -2 398 0 617 7 641 6 19 21 44 33 56 13 11 230 137 483 278
253 142 494 278 535 301 127 74 83 90 700 -257z"/>
<path d="M1264 2436 c-100 -19 -136 -32 -239 -84 -75 -38 -107 -63 -190 -146
-86 -87 -108 -115 -148 -196 -64 -129 -87 -225 -87 -364 0 -128 17 -216 58
-314 99 -237 314 -416 573 -477 36 -8 111 -15 169 -15 216 0 400 73 553 218
56 55 133 150 126 156 -2 2 -85 50 -185 108 l-180 104 -52 -47 c-123 -113
-285 -139 -428 -67 -65 32 -136 105 -170 175 -25 51 -28 69 -29 153 0 82 4
103 27 152 35 76 94 138 170 179 60 33 68 34 168 34 95 0 110 -3 160 -28 30
-16 76 -49 102 -74 l47 -46 170 98 c93 53 178 103 188 110 16 12 13 19 -43 86
-108 130 -251 223 -414 269 -97 27 -252 34 -346 16z m291 -131 c91 -23 217
-89 280 -147 63 -58 67 -49 -45 -111 l-65 -36 -57 39 c-328 220 -758 -9 -759
-406 -1 -97 12 -148 58 -237 40 -76 128 -164 202 -201 134 -68 292 -75 413
-19 38 18 83 43 101 57 19 15 38 26 43 26 5 0 45 -21 89 -47 l79 -46 -54 -49
c-70 -63 -213 -134 -310 -154 -94 -20 -228 -13 -325 16 -338 103 -542 449
-470 795 19 94 92 237 155 308 92 102 222 181 349 212 77 18 243 18 316 0z"/>
<path d="M2020 1890 l0 -60 -60 0 -60 0 0 -65 0 -65 60 0 60 0 0 -60 0 -60
-60 0 -60 0 0 -60 0 -60 60 0 60 0 0 -65 0 -66 62 3 61 3 1 60 1 60 60 0 60 0
3 -62 3 -63 59 0 59 0 3 63 3 62 63 3 62 3 0 59 0 60 -65 0 -65 0 0 60 0 59
63 3 62 3 3 63 3 62 -66 0 -65 0 0 60 0 60 -60 0 -60 0 0 -60 0 -60 -66 0 -66
0 4 60 4 60 -63 0 -63 0 0 -60z m250 -250 l0 -61 -62 3 -63 3 -3 58 -3 57 66
0 65 0 0 -60z"/>
</g>
</svg>
