<?xml version="1.0" encoding="UTF-8"?>
<!DOCTYPE svg PUBLIC "-//W3C//DTD SVG 1.1//EN" "http://www.w3.org/Graphics/SVG/1.1/DTD/svg11.dtd">
<svg xmlns="http://www.w3.org/2000/svg" version="1.1" width="951px" height="960px" style="shape-rendering:geometricPrecision; text-rendering:geometricPrecision; image-rendering:optimizeQuality; fill-rule:evenodd; clip-rule:evenodd" xmlns:xlink="http://www.w3.org/1999/xlink">
<g><path style="opacity:1" fill="#fefefe" d="M -0.5,-0.5 C 316.5,-0.5 633.5,-0.5 950.5,-0.5C 950.5,319.5 950.5,639.5 950.5,959.5C 633.5,959.5 316.5,959.5 -0.5,959.5C -0.5,639.5 -0.5,319.5 -0.5,-0.5 Z"/></g>
<g><path style="opacity:1" fill="#010101" d="M 677.5,370.5 C 677.428,362.486 676.094,354.82 673.5,347.5C 668.549,328.427 659.549,311.593 646.5,297C 652.16,281.419 653.827,265.585 651.5,249.5C 651.549,242.112 650.216,235.112 647.5,228.5C 646.93,223.291 645.264,218.458 642.5,214C 629.739,213.272 617.405,215.272 605.5,220C 588.173,227.412 571.673,236.245 556,246.5C 544.608,243.61 533.108,241.277 521.5,239.5C 520.855,238.188 519.855,237.188 518.5,236.5C 516.253,237.374 513.92,237.708 511.5,237.5C 478.483,234.644 445.817,236.644 413.5,243.5C 410.848,243.41 408.515,244.076 406.5,245.5C 404.488,246.014 402.488,246.18 400.5,246C 379.204,230.187 355.537,219.521 329.5,214C 324.913,213.201 320.413,213.368 316,214.5C 310.529,228.822 307.362,243.655 306.5,259C 307.314,272.383 309.148,285.549 312,298.5C 284.697,331.373 275.03,369.039 283,411.5C 291.076,479.582 328.909,520.082 396.5,533C 405.175,534.334 413.842,535.667 422.5,537C 411.434,548.634 404.768,562.467 402.5,578.5C 384.076,587.294 365.076,588.794 345.5,583C 334.904,578.399 326.071,571.566 319,562.5C 312.007,549.176 302.507,538.009 290.5,529C 280.119,522.27 268.786,519.603 256.5,521C 250.807,522.325 249.307,525.492 252,530.5C 257.202,535.847 263.035,540.347 269.5,544C 277.479,550.642 283.979,558.475 289,567.5C 294.007,577.868 299.007,588.202 304,598.5C 324.515,621.119 350.015,630.286 380.5,626C 386.814,624.947 393.147,624.114 399.5,623.5C 401.488,643.473 402.155,663.806 401.5,684.5C 401.037,689.262 398.704,692.762 394.5,695C 389.589,696.492 384.589,696.826 379.5,696C 274.289,656.027 206.789,581.86 177,473.5C 153.591,365.5 177.591,269.833 249,186.5C 299.981,131.759 362.481,98.7585 436.5,87.5C 442.389,87.5503 448.056,86.8836 453.5,85.5C 569.971,79.6629 663.138,122.996 733,215.5C 789.391,299.15 804.391,389.816 778,487.5C 745.078,589.753 678.245,659.253 577.5,696C 567.537,698.359 560.704,694.859 557,685.5C 556.667,649.167 556.333,612.833 556,576.5C 553.621,561.242 547.121,548.076 536.5,537C 559.239,533.988 581.239,528.322 602.5,520C 638.287,504.211 661.121,477.378 671,439.5C 676.598,416.647 678.764,393.647 677.5,370.5 Z"/></g>
<g><path style="opacity:1" fill="#353535" d="M 453.5,85.5 C 448.056,86.8836 442.389,87.5503 436.5,87.5C 441.944,86.1164 447.611,85.4497 453.5,85.5 Z"/></g>
<g><path style="opacity:1" fill="#343434" d="M 521.5,239.5 C 517.96,239.247 514.627,238.581 511.5,237.5C 513.92,237.708 516.253,237.374 518.5,236.5C 519.855,237.188 520.855,238.188 521.5,239.5 Z"/></g>
<g><path style="opacity:1" fill="#c2c2c2" d="M 647.5,228.5 C 650.216,235.112 651.549,242.112 651.5,249.5C 649.156,242.842 647.823,235.842 647.5,228.5 Z"/></g>
<g><path style="opacity:1" fill="#9b9b9b" d="M 413.5,243.5 C 411.485,244.924 409.152,245.59 406.5,245.5C 408.515,244.076 410.848,243.41 413.5,243.5 Z"/></g>
<g><path style="opacity:1" fill="#c5c5c5" d="M 673.5,347.5 C 676.094,354.82 677.428,362.486 677.5,370.5C 675.19,363.218 673.856,355.551 673.5,347.5 Z"/></g>
<g><path style="opacity:1" fill="#777777" d="M 399.5,623.5 C 400.209,622.596 401.209,622.263 402.5,622.5C 402.831,643.34 402.497,664.007 401.5,684.5C 402.155,663.806 401.488,643.473 399.5,623.5 Z"/></g>
<g><path style="opacity:1" fill="#060606" d="M 332.5,784.5 C 326.013,783.346 319.346,783.179 312.5,784C 309.826,784.67 307.493,785.837 305.5,787.5C 298.268,792.962 294.434,800.295 294,809.5C 292.358,822.657 294.691,834.99 301,846.5C 303.748,848.458 306.582,850.291 309.5,852C 315.5,852.667 321.5,852.667 327.5,852C 329.441,845.115 330.108,837.948 329.5,830.5C 324.5,830.5 319.5,830.5 314.5,830.5C 314.5,823.5 314.5,816.5 314.5,809.5C 327.246,809.187 339.913,809.52 352.5,810.5C 352.833,829.179 352.5,847.845 351.5,866.5C 350.099,867.521 348.765,868.521 347.5,869.5C 342.156,870.891 336.823,872.391 331.5,874C 317.993,875.852 304.993,874.185 292.5,869C 279.747,860.673 272.747,848.84 271.5,833.5C 270.277,823.174 270.277,812.841 271.5,802.5C 275.069,774.93 290.735,761.263 318.5,761.5C 328.566,761.344 338.233,763.011 347.5,766.5C 346.816,772.906 345.649,779.239 344,785.5C 343.586,785.957 343.086,786.291 342.5,786.5C 339.292,785.198 335.959,784.531 332.5,784.5 Z"/></g>
<g><path style="opacity:1" fill="#070707" d="M 510.5,872.5 C 509.848,857.069 509.181,841.735 508.5,826.5C 498.5,826.5 488.5,826.5 478.5,826.5C 478.667,841.504 478.5,856.504 478,871.5C 470.58,872.647 463.08,872.813 455.5,872C 454.338,836.905 454.171,801.738 455,766.5C 462.747,765.518 470.58,765.185 478.5,765.5C 478.5,778.833 478.5,792.167 478.5,805.5C 488.5,805.5 498.5,805.5 508.5,805.5C 508.333,792.496 508.5,779.496 509,766.5C 516.413,765.519 523.913,765.186 531.5,765.5C 531.5,801.167 531.5,836.833 531.5,872.5C 524.5,872.5 517.5,872.5 510.5,872.5 Z"/></g>
<g><path style="opacity:1" fill="#070707" d="M 641.5,766.5 C 641.168,778.518 641.501,790.518 642.5,802.5C 643.107,802.376 643.44,802.043 643.5,801.5C 654.069,796.343 664.736,796.176 675.5,801C 683.044,806.562 687.21,814.062 688,823.5C 689.025,834.285 688.358,844.951 686,855.5C 680.17,871.672 668.67,877.838 651.5,874C 646.308,872.884 641.642,870.718 637.5,867.5C 636.643,868.736 635.977,870.069 635.5,871.5C 629.946,872.806 624.446,872.806 619,871.5C 618.5,836.168 618.333,800.835 618.5,765.5C 626.352,765.175 634.018,765.508 641.5,766.5 Z"/></g>
<g><path style="opacity:1" fill="#6a6a6a" d="M 641.5,766.5 C 642.167,778.167 642.833,789.833 643.5,801.5C 643.44,802.043 643.107,802.376 642.5,802.5C 641.501,790.518 641.168,778.518 641.5,766.5 Z"/></g>
<g><path style="opacity:1" fill="#0c0c0c" d="M 371.5,767.5 C 385.799,768.265 390.632,775.265 386,788.5C 378.896,795.022 371.896,795.022 365,788.5C 362.702,784.782 362.035,780.782 363,776.5C 365.362,772.973 368.196,769.973 371.5,767.5 Z"/></g>
<g><path style="opacity:1" fill="#030303" d="M 429.5,799.5 C 434.833,799.5 440.167,799.5 445.5,799.5C 445.823,806.022 445.49,812.355 444.5,818.5C 439.167,818.5 433.833,818.5 428.5,818.5C 428.172,829.014 428.506,839.347 429.5,849.5C 429.452,852.292 430.785,854.125 433.5,855C 437.486,855.499 441.486,855.666 445.5,855.5C 445.5,861.167 445.5,866.833 445.5,872.5C 443.435,872.517 441.435,872.85 439.5,873.5C 434.176,872.296 428.843,872.296 423.5,873.5C 412.844,871.171 407.177,864.504 406.5,853.5C 406.5,841.833 406.5,830.167 406.5,818.5C 402.5,818.5 398.5,818.5 394.5,818.5C 394.5,813.167 394.5,807.833 394.5,802.5C 398.136,801.674 401.803,801.008 405.5,800.5C 406.491,793.687 406.825,786.687 406.5,779.5C 413.833,779.5 421.167,779.5 428.5,779.5C 428.176,786.354 428.509,793.021 429.5,799.5 Z"/></g>
<g><path style="opacity:1" fill="#cacaca" d="M 332.5,784.5 C 326.158,784.334 319.825,784.5 313.5,785C 311.667,786.167 309.833,787.333 308,788.5C 307.329,787.748 306.496,787.414 305.5,787.5C 307.493,785.837 309.826,784.67 312.5,784C 319.346,783.179 326.013,783.346 332.5,784.5 Z"/></g>
<g><path style="opacity:1" fill="#7b7b7b" d="M 429.5,799.5 C 428.509,793.021 428.176,786.354 428.5,779.5C 421.167,779.5 413.833,779.5 406.5,779.5C 406.825,786.687 406.491,793.687 405.5,800.5C 405.5,793.167 405.5,785.833 405.5,778.5C 413.5,778.5 421.5,778.5 429.5,778.5C 429.5,785.5 429.5,792.5 429.5,799.5 Z"/></g>
<g><path style="opacity:1" fill="#050505" d="M 364.5,799.5 C 371.833,799.5 379.167,799.5 386.5,799.5C 386.667,823.502 386.5,847.502 386,871.5C 378.667,872.833 371.333,872.833 364,871.5C 363.178,847.428 363.344,823.428 364.5,799.5 Z"/></g>
<g><path style="opacity:1" fill="#040404" d="M 542.5,855.5 C 542.5,837.167 542.5,818.833 542.5,800.5C 549.833,800.5 557.167,800.5 564.5,800.5C 564.333,816.837 564.5,833.17 565,849.5C 566.068,854.076 568.902,856.076 573.5,855.5C 577.444,855.519 581.111,854.519 584.5,852.5C 585.333,835.176 585.833,817.843 586,800.5C 593.413,799.519 600.913,799.186 608.5,799.5C 608.5,823.833 608.5,848.167 608.5,872.5C 603.489,872.666 598.489,872.499 593.5,872C 592.663,870.989 592.33,869.822 592.5,868.5C 587.047,870.888 581.38,872.721 575.5,874C 568.766,874.829 562.099,874.496 555.5,873C 547.65,869.808 543.317,863.974 542.5,855.5 Z"/></g>
<g><path style="opacity:1" fill="#333333" d="M 564.5,800.5 C 557.167,800.5 549.833,800.5 542.5,800.5C 542.5,818.833 542.5,837.167 542.5,855.5C 541.503,837.007 541.17,818.341 541.5,799.5C 549.352,799.175 557.018,799.508 564.5,800.5 Z"/></g>
<g><path style="opacity:1" fill="#a7a7a7" d="M 271.5,802.5 C 270.277,812.841 270.277,823.174 271.5,833.5C 269.967,829.104 269.3,824.437 269.5,819.5C 269.402,813.599 270.069,807.933 271.5,802.5 Z"/></g>
<g><path style="opacity:1" fill="#dbdbdb" d="M 352.5,810.5 C 353.663,830.663 353.829,850.996 353,871.5C 351.399,871.112 349.565,870.445 347.5,869.5C 348.765,868.521 350.099,867.521 351.5,866.5C 352.5,847.845 352.833,829.179 352.5,810.5 Z"/></g>
<g><path style="opacity:1" fill="#999999" d="M 444.5,818.5 C 439.695,819.487 434.695,819.821 429.5,819.5C 429.5,829.5 429.5,839.5 429.5,849.5C 428.506,839.347 428.172,829.014 428.5,818.5C 433.833,818.5 439.167,818.5 444.5,818.5 Z"/></g>
<g><path style="opacity:1" fill="#f8f8f8" d="M 647.5,816.5 C 656.003,814.666 661.837,817.666 665,825.5C 665.775,833.548 665.442,841.548 664,849.5C 662.878,851.624 661.378,853.457 659.5,855C 653.258,856.245 647.424,855.411 642,852.5C 641.333,841.5 641.333,830.5 642,819.5C 643.876,818.391 645.709,817.391 647.5,816.5 Z"/></g>
<g><path style="opacity:1" fill="#878787" d="M 394.5,818.5 C 398.5,818.5 402.5,818.5 406.5,818.5C 406.5,830.167 406.5,841.833 406.5,853.5C 405.505,842.346 405.172,831.012 405.5,819.5C 401.629,819.815 397.962,819.482 394.5,818.5 Z"/></g>
<g><path style="opacity:1" fill="#4d4d4d" d="M 508.5,826.5 C 509.181,841.735 509.848,857.069 510.5,872.5C 508.516,857.536 507.849,842.203 508.5,826.5 Z"/></g>
<g><path style="opacity:1" fill="#414141" d="M 439.5,873.5 C 434.167,874.833 428.833,874.833 423.5,873.5C 428.843,872.296 434.176,872.296 439.5,873.5 Z"/></g>
</svg>
