<?xml version="1.0" encoding="UTF-8"?>
<!DOCTYPE svg PUBLIC "-//W3C//DTD SVG 1.1//EN" "http://www.w3.org/Graphics/SVG/1.1/DTD/svg11.dtd">
<svg xmlns="http://www.w3.org/2000/svg" version="1.1" width="900px" height="1060px" style="shape-rendering:geometricPrecision; text-rendering:geometricPrecision; image-rendering:optimizeQuality; fill-rule:evenodd; clip-rule:evenodd" xmlns:xlink="http://www.w3.org/1999/xlink">
<g><path style="opacity:0.983" fill="#020202" d="M 510.5,41.5 C 512.453,45.1203 515.119,48.1203 518.5,50.5C 518.833,51.5 519.5,52.1667 520.5,52.5C 544.685,76.2308 552.185,104.564 543,137.5C 537.446,157.608 528.446,175.941 516,192.5C 503.571,208.264 489.737,222.764 474.5,236C 456.104,250.724 438.604,266.558 422,283.5C 397.385,313.981 396.052,345.648 418,378.5C 431.908,398.74 445.408,419.24 458.5,440C 455.196,443.633 451.529,446.966 447.5,450C 446.5,450.667 445.5,450.667 444.5,450C 435.267,440.264 425.6,431.097 415.5,422.5C 406.139,412.807 396.806,403.14 387.5,393.5C 387.167,392.5 386.5,391.833 385.5,391.5C 385.167,390.5 384.5,389.833 383.5,389.5C 383.262,387.596 382.262,386.262 380.5,385.5C 377.975,381.104 374.975,377.104 371.5,373.5C 370.331,370.489 368.664,367.822 366.5,365.5C 366.5,365.167 366.5,364.833 366.5,364.5C 366.167,363.5 365.5,362.833 364.5,362.5C 364.34,360.847 363.674,359.514 362.5,358.5C 361.341,354.849 359.674,351.515 357.5,348.5C 356.541,344.617 355.208,340.95 353.5,337.5C 353.101,333.884 352.101,330.55 350.5,327.5C 350.5,326.167 350.5,324.833 350.5,323.5C 349.806,318.195 349.472,312.862 349.5,307.5C 350.167,304.167 350.833,300.833 351.5,297.5C 352.537,296.07 353.204,294.403 353.5,292.5C 353.5,292.167 353.5,291.833 353.5,291.5C 354.401,290.71 355.068,289.71 355.5,288.5C 356.167,287.167 356.833,285.833 357.5,284.5C 359.262,283.738 360.262,282.404 360.5,280.5C 362.543,279.421 363.876,277.754 364.5,275.5C 365.5,275.167 366.167,274.5 366.5,273.5C 367.5,273.167 368.167,272.5 368.5,271.5C 369.873,269.793 371.539,268.46 373.5,267.5C 374.974,266.564 375.974,265.23 376.5,263.5C 377.5,263.167 378.167,262.5 378.5,261.5C 380.533,259.132 382.867,257.132 385.5,255.5C 386.5,255.167 387.167,254.5 387.5,253.5C 388.5,252.5 389.5,251.5 390.5,250.5C 392.71,250.106 394.043,248.773 394.5,246.5C 395.5,246.167 396.167,245.5 396.5,244.5C 397.5,244.167 398.167,243.5 398.5,242.5C 398.833,242.5 399.167,242.5 399.5,242.5C 400.5,242.167 401.167,241.5 401.5,240.5C 402.5,240.167 403.167,239.5 403.5,238.5C 405.167,236.833 406.833,235.167 408.5,233.5C 410.404,233.262 411.738,232.262 412.5,230.5C 416.378,226.693 420.378,223.026 424.5,219.5C 426.167,218.5 427.5,217.167 428.5,215.5C 429.222,214.449 430.222,213.782 431.5,213.5C 433.167,212.5 434.5,211.167 435.5,209.5C 436.5,208.5 437.5,207.5 438.5,206.5C 440.122,205.878 441.455,204.878 442.5,203.5C 443.5,202.5 444.5,201.5 445.5,200.5C 447.144,200.19 448.144,199.19 448.5,197.5C 450.122,196.878 451.455,195.878 452.5,194.5C 454.144,194.19 455.144,193.19 455.5,191.5C 457.23,190.974 458.564,189.974 459.5,188.5C 460.5,188.167 461.167,187.5 461.5,186.5C 462.5,186.167 463.167,185.5 463.5,184.5C 463.833,184.5 464.167,184.5 464.5,184.5C 465.5,184.167 466.167,183.5 466.5,182.5C 467.5,182.167 468.167,181.5 468.5,180.5C 470.027,180.573 471.027,179.906 471.5,178.5C 471.5,177.167 472.167,176.5 473.5,176.5C 474.5,176.167 475.167,175.5 475.5,174.5C 476.5,174.167 477.167,173.5 477.5,172.5C 479.5,170.5 481.5,168.5 483.5,166.5C 484.5,166.167 485.167,165.5 485.5,164.5C 485.5,163.167 486.167,162.5 487.5,162.5C 488.906,162.027 489.573,161.027 489.5,159.5C 491.262,158.738 492.262,157.404 492.5,155.5C 493.5,155.167 494.167,154.5 494.5,153.5C 495.924,150.982 497.591,148.649 499.5,146.5C 500.401,145.71 501.068,144.71 501.5,143.5C 503.462,140.339 505.129,137.005 506.5,133.5C 507.906,133.027 508.573,132.027 508.5,130.5C 509.328,127.023 510.328,123.69 511.5,120.5C 512.458,118.698 513.125,116.698 513.5,114.5C 515.259,101.254 515.926,87.9211 515.5,74.5C 515.324,71.2727 514.657,68.2727 513.5,65.5C 513.5,65.1667 513.5,64.8333 513.5,64.5C 512.992,60.2641 511.992,56.2641 510.5,52.5C 510.58,49.2186 509.913,46.2186 508.5,43.5C 508.5,42.1667 509.167,41.5 510.5,41.5 Z"/></g>
<g><path style="opacity:0.075" fill="#dfdfdf" d="M 510.5,41.5 C 511.5,41.5 512.5,41.5 513.5,41.5C 515.146,44.4872 516.812,47.4872 518.5,50.5C 515.119,48.1203 512.453,45.1203 510.5,41.5 Z"/></g>
<g><path style="opacity:0.118" fill="#d4d4d4" d="M 508.5,43.5 C 509.913,46.2186 510.58,49.2186 510.5,52.5C 508.612,50.0122 507.945,47.0122 508.5,43.5 Z"/></g>
<g><path style="opacity:0.145" fill="#e3e3e3" d="M 518.5,50.5 C 519.833,50.5 520.5,51.1667 520.5,52.5C 519.5,52.1667 518.833,51.5 518.5,50.5 Z"/></g>
<g><path style="opacity:0.028" fill="#d6d6d6" d="M 510.5,52.5 C 511.992,56.2641 512.992,60.2641 513.5,64.5C 512.307,64.0296 511.64,63.0296 511.5,61.5C 510.838,58.5318 510.505,55.5318 510.5,52.5 Z"/></g>
<g><path style="opacity:0.02" fill="#d1d1d1" d="M 513.5,65.5 C 514.657,68.2727 515.324,71.2727 515.5,74.5C 513.612,72.0122 512.945,69.0122 513.5,65.5 Z"/></g>
<g><path style="opacity:0.457" fill="#ededed" d="M 520.5,52.5 C 521.978,52.238 523.311,52.5713 524.5,53.5C 534.642,64.2919 542.142,76.6252 547,90.5C 550.785,113.224 548.451,135.224 540,156.5C 534.001,170.668 526.501,184.002 517.5,196.5C 507.69,208.144 497.357,219.31 486.5,230C 481.559,235.443 475.893,239.943 469.5,243.5C 468.115,244.551 467.115,245.884 466.5,247.5C 465.311,248.429 463.978,248.762 462.5,248.5C 461.836,251.015 460.503,253.181 458.5,255C 450.379,260.621 443.046,267.121 436.5,274.5C 435.167,275.167 433.833,275.833 432.5,276.5C 427.543,283.126 422.209,289.46 416.5,295.5C 409.592,307.059 405.592,319.559 404.5,333C 405.292,341.669 406.959,350.169 409.5,358.5C 416.318,370.129 423.151,381.796 430,393.5C 439.756,407.351 449.256,421.351 458.5,435.5C 459.833,438.833 459.833,442.167 458.5,445.5C 454.882,448.732 450.882,451.398 446.5,453.5C 436.243,445.081 426.41,436.081 417,426.5C 416.209,425.255 415.709,423.922 415.5,422.5C 425.6,431.097 435.267,440.264 444.5,450C 445.5,450.667 446.5,450.667 447.5,450C 451.529,446.966 455.196,443.633 458.5,440C 445.408,419.24 431.908,398.74 418,378.5C 396.052,345.648 397.385,313.981 422,283.5C 438.604,266.558 456.104,250.724 474.5,236C 489.737,222.764 503.571,208.264 516,192.5C 528.446,175.941 537.446,157.608 543,137.5C 552.185,104.564 544.685,76.2308 520.5,52.5 Z"/></g>
<g><path style="opacity:0.022" fill="#efefef" d="M 513.5,114.5 C 513.125,116.698 512.458,118.698 511.5,120.5C 511.054,117.99 511.72,115.99 513.5,114.5 Z"/></g>
<g><path style="opacity:0.102" fill="#a6a6a6" d="M 508.5,130.5 C 508.573,132.027 507.906,133.027 506.5,133.5C 506.427,131.973 507.094,130.973 508.5,130.5 Z"/></g>
<g><path style="opacity:0.027" fill="#d4d4d4" d="M 501.5,143.5 C 501.068,144.71 500.401,145.71 499.5,146.5C 499.285,144.821 499.952,143.821 501.5,143.5 Z"/></g>
<g><path style="opacity:0.059" fill="#e9e9e9" d="M 494.5,153.5 C 494.167,154.5 493.5,155.167 492.5,155.5C 492.5,154.167 493.167,153.5 494.5,153.5 Z"/></g>
<g><path style="opacity:0.055" fill="#cbcbcb" d="M 492.5,155.5 C 492.262,157.404 491.262,158.738 489.5,159.5C 489.738,157.596 490.738,156.262 492.5,155.5 Z"/></g>
<g><path style="opacity:0.153" fill="#8e8e8e" d="M 489.5,159.5 C 489.573,161.027 488.906,162.027 487.5,162.5C 487.427,160.973 488.094,159.973 489.5,159.5 Z"/></g>
<g><path style="opacity:0.043" fill="#c6c6c6" d="M 485.5,164.5 C 485.167,165.5 484.5,166.167 483.5,166.5C 483.5,165.167 484.167,164.5 485.5,164.5 Z"/></g>
<g><path style="opacity:0.055" fill="#c7c7c7" d="M 477.5,172.5 C 477.167,173.5 476.5,174.167 475.5,174.5C 475.5,173.167 476.167,172.5 477.5,172.5 Z"/></g>
<g><path style="opacity:0.094" fill="#b9b9b9" d="M 475.5,174.5 C 475.167,175.5 474.5,176.167 473.5,176.5C 473.5,175.167 474.167,174.5 475.5,174.5 Z"/></g>
<g><path style="opacity:0.114" fill="#777777" d="M 471.5,178.5 C 471.027,179.906 470.027,180.573 468.5,180.5C 468.973,179.094 469.973,178.427 471.5,178.5 Z"/></g>
<g><path style="opacity:0.055" fill="#dcdcdc" d="M 468.5,180.5 C 468.167,181.5 467.5,182.167 466.5,182.5C 466.5,181.167 467.167,180.5 468.5,180.5 Z"/></g>
<g><path style="opacity:0.067" fill="#afafaf" d="M 466.5,182.5 C 466.167,183.5 465.5,184.167 464.5,184.5C 464.5,183.167 465.167,182.5 466.5,182.5 Z"/></g>
<g><path style="opacity:0.018" fill="#f9f9f9" d="M 463.5,184.5 C 463.167,185.5 462.5,186.167 461.5,186.5C 461.5,185.167 462.167,184.5 463.5,184.5 Z"/></g>
<g><path style="opacity:0.035" fill="#e1e1e1" d="M 461.5,186.5 C 461.167,187.5 460.5,188.167 459.5,188.5C 459.5,187.167 460.167,186.5 461.5,186.5 Z"/></g>
<g><path style="opacity:0.013" fill="#e5e5e5" d="M 459.5,188.5 C 458.564,189.974 457.23,190.974 455.5,191.5C 456.035,189.554 457.368,188.554 459.5,188.5 Z"/></g>
<g><path style="opacity:0.286" fill="#787878" d="M 455.5,191.5 C 455.144,193.19 454.144,194.19 452.5,194.5C 452.856,192.81 453.856,191.81 455.5,191.5 Z"/></g>
<g><path style="opacity:0.979" fill="#030303" d="M 630.5,195.5 C 602.011,215.137 573.345,234.637 544.5,254C 531.072,264.093 518.905,275.593 508,288.5C 502.465,295.4 499.298,303.233 498.5,312C 499.443,323.707 503.776,333.874 511.5,342.5C 519.145,354.332 526.645,366.332 534,378.5C 540.949,396.817 538.949,414.151 528,430.5C 515.564,444.939 502.397,458.772 488.5,472C 490.473,472.495 492.473,472.662 494.5,472.5C 522.494,469.691 550.494,467.358 578.5,465.5C 584.167,465.5 589.833,465.5 595.5,465.5C 595.457,468.867 595.79,472.201 596.5,475.5C 596.38,478.064 595.047,479.564 592.5,480C 513.483,500.598 433.149,512.098 351.5,514.5C 347.837,520.65 345.17,527.15 343.5,534C 343.605,539.606 346.271,543.44 351.5,545.5C 352.167,545.5 352.833,545.5 353.5,545.5C 354.93,546.537 356.597,547.204 358.5,547.5C 386.841,547.833 415.175,547.5 443.5,546.5C 451.323,545.833 458.99,545.167 466.5,544.5C 474.056,544.69 481.389,544.023 488.5,542.5C 489.167,542.5 489.833,542.5 490.5,542.5C 494.425,542.57 498.091,541.903 501.5,540.5C 503.167,540.5 504.833,540.5 506.5,540.5C 509.373,540.198 512.039,539.531 514.5,538.5C 516.167,538.5 517.833,538.5 519.5,538.5C 523.011,538.101 526.344,537.434 529.5,536.5C 530.167,536.5 530.833,536.5 531.5,536.5C 534.689,536.142 537.689,535.475 540.5,534.5C 541.5,534.5 542.5,534.5 543.5,534.5C 545.952,533.935 548.285,533.268 550.5,532.5C 552.099,532.768 553.432,532.434 554.5,531.5C 556.199,531.34 557.866,531.506 559.5,532C 562.317,536.643 565.651,540.81 569.5,544.5C 569.5,544.833 569.5,545.167 569.5,545.5C 569.833,546.5 570.5,547.167 571.5,547.5C 573.775,551.615 576.275,555.615 579,559.5C 579.498,562.482 579.665,565.482 579.5,568.5C 533.952,578.031 487.952,584.531 441.5,588C 418.145,588.862 394.812,588.528 371.5,587C 353.839,585.752 337.172,581.086 321.5,573C 318.308,570.972 315.641,568.472 313.5,565.5C 312.345,562.672 311.011,560.005 309.5,557.5C 309.5,554.167 309.5,550.833 309.5,547.5C 310.345,546.329 311.011,544.995 311.5,543.5C 311.5,542.833 311.5,542.167 311.5,541.5C 312.401,540.71 313.068,539.71 313.5,538.5C 314.36,536.712 315.36,535.045 316.5,533.5C 318.543,532.421 319.876,530.754 320.5,528.5C 321.5,528.167 322.167,527.5 322.5,526.5C 323.222,525.449 324.222,524.782 325.5,524.5C 326.5,524.167 327.167,523.5 327.5,522.5C 330.784,520.755 333.784,518.755 336.5,516.5C 338.713,516.152 340.713,515.319 342.5,514C 324.168,512.916 306.168,509.916 288.5,505C 279.133,502.687 272.133,497.521 267.5,489.5C 267.187,485.587 267.853,481.921 269.5,478.5C 270.5,478.167 271.167,477.5 271.5,476.5C 273.167,475.5 274.5,474.167 275.5,472.5C 276.222,471.449 277.222,470.782 278.5,470.5C 279.5,470.167 280.167,469.5 280.5,468.5C 280.833,468.5 281.167,468.5 281.5,468.5C 282.5,468.167 283.167,467.5 283.5,466.5C 285.011,465.498 286.678,464.831 288.5,464.5C 289.71,464.068 290.71,463.401 291.5,462.5C 293.282,461.28 295.282,460.614 297.5,460.5C 298.71,460.068 299.71,459.401 300.5,458.5C 301.167,458.5 301.833,458.5 302.5,458.5C 303.71,458.068 304.71,457.401 305.5,456.5C 307.099,456.768 308.432,456.434 309.5,455.5C 311.153,455.34 312.486,454.674 313.5,453.5C 314.167,453.5 314.833,453.5 315.5,453.5C 316.995,453.011 318.329,452.345 319.5,451.5C 319.833,451.5 320.167,451.5 320.5,451.5C 322.403,451.204 324.07,450.537 325.5,449.5C 326.167,449.5 326.833,449.5 327.5,449.5C 328.995,449.011 330.329,448.345 331.5,447.5C 332.5,447.5 333.5,447.5 334.5,447.5C 335.995,447.011 337.329,446.345 338.5,445.5C 339.5,445.5 340.5,445.5 341.5,445.5C 342.995,445.011 344.329,444.345 345.5,443.5C 353.684,441.312 362.017,439.978 370.5,439.5C 370.858,443.599 370.858,447.599 370.5,451.5C 354.552,456.64 339.885,464.14 326.5,474C 328.158,475.663 330.158,476.496 332.5,476.5C 343.182,479.263 354.182,480.597 365.5,480.5C 369.833,480.5 374.167,480.5 378.5,480.5C 385.965,479.899 393.298,479.232 400.5,478.5C 403.833,478.5 407.167,478.5 410.5,478.5C 415.969,477.925 421.302,477.259 426.5,476.5C 440.67,474.941 455.003,474.275 469.5,474.5C 471.167,474.5 472.833,474.5 474.5,474.5C 474.813,470.958 474.479,467.625 473.5,464.5C 473.336,461.813 473.503,459.146 474,456.5C 474.278,455.584 474.778,454.918 475.5,454.5C 476.737,453.035 477.737,451.368 478.5,449.5C 480.189,446.123 481.855,442.789 483.5,439.5C 484.674,438.486 485.34,437.153 485.5,435.5C 486.875,431.302 487.542,426.969 487.5,422.5C 486.201,417.236 483.868,412.569 480.5,408.5C 476.554,401.595 471.887,395.262 466.5,389.5C 465.66,387.147 464.326,385.147 462.5,383.5C 459.163,377.492 455.83,371.492 452.5,365.5C 452.5,365.167 452.5,364.833 452.5,364.5C 452.068,363.29 451.401,362.29 450.5,361.5C 450.5,361.167 450.5,360.833 450.5,360.5C 450.011,359.005 449.345,357.671 448.5,356.5C 447.87,352.952 446.87,349.619 445.5,346.5C 445.5,345.833 445.5,345.167 445.5,344.5C 445.073,341.99 444.407,339.657 443.5,337.5C 443.169,328.808 443.502,320.141 444.5,311.5C 445.103,306.87 446.436,302.537 448.5,298.5C 449.674,297.486 450.34,296.153 450.5,294.5C 451.522,292.456 452.522,290.456 453.5,288.5C 454.5,288.167 455.167,287.5 455.5,286.5C 455.5,286.167 455.5,285.833 455.5,285.5C 456.401,284.71 457.068,283.71 457.5,282.5C 457.782,281.222 458.449,280.222 459.5,279.5C 461.262,278.738 462.262,277.404 462.5,275.5C 463.5,275.167 464.167,274.5 464.5,273.5C 465.122,271.878 466.122,270.545 467.5,269.5C 468.5,269.167 469.167,268.5 469.5,267.5C 470.833,264.833 472.833,262.833 475.5,261.5C 476.833,260.167 478.167,258.833 479.5,257.5C 480.5,256.5 481.5,255.5 482.5,254.5C 484.144,254.19 485.144,253.19 485.5,251.5C 486.492,251.672 487.158,251.338 487.5,250.5C 489.749,249.92 491.415,248.587 492.5,246.5C 494.027,246.573 495.027,245.906 495.5,244.5C 495.833,244.5 496.167,244.5 496.5,244.5C 497.5,244.167 498.167,243.5 498.5,242.5C 498.833,242.5 499.167,242.5 499.5,242.5C 500.71,242.068 501.71,241.401 502.5,240.5C 502.833,240.5 503.167,240.5 503.5,240.5C 504.71,240.068 505.71,239.401 506.5,238.5C 507.71,238.068 508.71,237.401 509.5,236.5C 509.833,236.5 510.167,236.5 510.5,236.5C 511.71,236.068 512.71,235.401 513.5,234.5C 515.011,233.498 516.678,232.831 518.5,232.5C 520.027,232.573 521.027,231.906 521.5,230.5C 521.833,230.5 522.167,230.5 522.5,230.5C 523.71,230.068 524.71,229.401 525.5,228.5C 527.282,227.28 529.282,226.614 531.5,226.5C 532.71,226.068 533.71,225.401 534.5,224.5C 536.282,223.28 538.282,222.614 540.5,222.5C 541.71,222.068 542.71,221.401 543.5,220.5C 543.842,219.662 544.508,219.328 545.5,219.5C 547.153,219.34 548.486,218.674 549.5,217.5C 549.833,217.5 550.167,217.5 550.5,217.5C 552.153,217.34 553.486,216.674 554.5,215.5C 554.833,215.5 555.167,215.5 555.5,215.5C 556.71,215.068 557.71,214.401 558.5,213.5C 558.833,213.5 559.167,213.5 559.5,213.5C 561.153,213.34 562.486,212.674 563.5,211.5C 563.833,211.5 564.167,211.5 564.5,211.5C 565.995,211.011 567.329,210.345 568.5,209.5C 568.833,209.5 569.167,209.5 569.5,209.5C 570.71,209.068 571.71,208.401 572.5,207.5C 572.833,207.5 573.167,207.5 573.5,207.5C 575.153,207.34 576.486,206.674 577.5,205.5C 577.833,205.5 578.167,205.5 578.5,205.5C 579.71,205.068 580.71,204.401 581.5,203.5C 583.315,202.37 585.315,201.704 587.5,201.5C 588.71,201.068 589.71,200.401 590.5,199.5C 591.167,199.5 591.833,199.5 592.5,199.5C 596.642,198.96 600.642,198.294 604.5,197.5C 613.134,196.483 621.8,195.816 630.5,195.5 Z"/></g>
<g><path style="opacity:0.46" fill="#ececec" d="M 630.5,195.5 C 631.461,197.265 631.795,199.265 631.5,201.5C 627.648,202.612 623.981,204.279 620.5,206.5C 613.877,211.635 606.877,215.968 599.5,219.5C 599.5,220.5 599.5,221.5 599.5,222.5C 594.622,224.3 589.955,226.634 585.5,229.5C 576.833,235.5 568.167,241.5 559.5,247.5C 558.311,248.429 556.978,248.762 555.5,248.5C 555.703,250.39 555.037,251.89 553.5,253C 549.09,254.923 545.09,257.423 541.5,260.5C 533.983,267.67 526.317,274.67 518.5,281.5C 513.182,287.474 508.348,293.807 504,300.5C 499.477,314.405 501.811,327.072 511,338.5C 511.49,339.793 511.657,341.127 511.5,342.5C 503.776,333.874 499.443,323.707 498.5,312C 499.298,303.233 502.465,295.4 508,288.5C 518.905,275.593 531.072,264.093 544.5,254C 573.345,234.637 602.011,215.137 630.5,195.5 Z"/></g>
<g><path style="opacity:0.302" fill="#bbbbbb" d="M 604.5,197.5 C 600.642,198.294 596.642,198.96 592.5,199.5C 592.611,198.883 592.944,198.383 593.5,198C 597.152,197.501 600.818,197.335 604.5,197.5 Z"/></g>
<g><path style="opacity:0.224" fill="#8d8d8d" d="M 448.5,197.5 C 448.144,199.19 447.144,200.19 445.5,200.5C 445.856,198.81 446.856,197.81 448.5,197.5 Z"/></g>
<g><path style="opacity:0.063" fill="#e3e3e3" d="M 590.5,199.5 C 589.71,200.401 588.71,201.068 587.5,201.5C 587.821,199.952 588.821,199.285 590.5,199.5 Z"/></g>
<g><path style="opacity:0.017" fill="#cccccc" d="M 442.5,203.5 C 441.455,204.878 440.122,205.878 438.5,206.5C 439.048,204.468 440.381,203.468 442.5,203.5 Z"/></g>
<g><path style="opacity:0.025" fill="#e6e6e6" d="M 581.5,203.5 C 580.71,204.401 579.71,205.068 578.5,205.5C 578.821,203.952 579.821,203.285 581.5,203.5 Z"/></g>
<g><path style="opacity:0.016" fill="#bababa" d="M 577.5,205.5 C 576.486,206.674 575.153,207.34 573.5,207.5C 574.287,205.896 575.62,205.229 577.5,205.5 Z"/></g>
<g><path style="opacity:0.029" fill="#e1e1e1" d="M 572.5,207.5 C 571.71,208.401 570.71,209.068 569.5,209.5C 569.821,207.952 570.821,207.285 572.5,207.5 Z"/></g>
<g><path style="opacity:0.031" fill="#dadada" d="M 568.5,209.5 C 567.329,210.345 565.995,211.011 564.5,211.5C 565.183,209.824 566.517,209.157 568.5,209.5 Z"/></g>
<g><path style="opacity:0.059" fill="#cbcbcb" d="M 435.5,209.5 C 434.5,211.167 433.167,212.5 431.5,213.5C 431.833,211.167 433.167,209.833 435.5,209.5 Z"/></g>
<g><path style="opacity:0.024" fill="#e2e2e2" d="M 563.5,211.5 C 562.486,212.674 561.153,213.34 559.5,213.5C 560.183,211.824 561.517,211.157 563.5,211.5 Z"/></g>
<g><path style="opacity:0.018" fill="#ededed" d="M 558.5,213.5 C 557.71,214.401 556.71,215.068 555.5,215.5C 555.821,213.952 556.821,213.285 558.5,213.5 Z"/></g>
<g><path style="opacity:0.021" fill="#d9d9d9" d="M 554.5,215.5 C 553.486,216.674 552.153,217.34 550.5,217.5C 551.183,215.824 552.517,215.157 554.5,215.5 Z"/></g>
<g><path style="opacity:0.039" fill="#ececec" d="M 428.5,215.5 C 427.5,217.167 426.167,218.5 424.5,219.5C 424.833,217.167 426.167,215.833 428.5,215.5 Z"/></g>
<g><path style="opacity:0.021" fill="#e9e9e9" d="M 549.5,217.5 C 548.486,218.674 547.153,219.34 545.5,219.5C 546.183,217.824 547.517,217.157 549.5,217.5 Z"/></g>
<g><path style="opacity:0.082" fill="#bbbbbb" d="M 543.5,220.5 C 542.71,221.401 541.71,222.068 540.5,222.5C 540.821,220.952 541.821,220.285 543.5,220.5 Z"/></g>
<g><path style="opacity:0.012" fill="#cbcbcb" d="M 534.5,224.5 C 533.71,225.401 532.71,226.068 531.5,226.5C 531.821,224.952 532.821,224.285 534.5,224.5 Z"/></g>
<g><path style="opacity:0.016" fill="#e6e6e6" d="M 525.5,228.5 C 524.71,229.401 523.71,230.068 522.5,230.5C 522.821,228.952 523.821,228.285 525.5,228.5 Z"/></g>
<g><path style="opacity:0.082" fill="#a1a1a1" d="M 412.5,230.5 C 411.738,232.262 410.404,233.262 408.5,233.5C 409.262,231.738 410.596,230.738 412.5,230.5 Z"/></g>
<g><path style="opacity:0.176" fill="#808080" d="M 521.5,230.5 C 521.027,231.906 520.027,232.573 518.5,232.5C 518.821,230.952 519.821,230.285 521.5,230.5 Z"/></g>
<g><path style="opacity:0.018" fill="#e3e3e3" d="M 513.5,234.5 C 512.71,235.401 511.71,236.068 510.5,236.5C 510.821,234.952 511.821,234.285 513.5,234.5 Z"/></g>
<g><path style="opacity:0.082" fill="#e5e5e5" d="M 509.5,236.5 C 508.71,237.401 507.71,238.068 506.5,238.5C 506.821,236.952 507.821,236.285 509.5,236.5 Z"/></g>
<g><path style="opacity:0.071" fill="#c7c7c7" d="M 403.5,238.5 C 403.167,239.5 402.5,240.167 401.5,240.5C 401.5,239.167 402.167,238.5 403.5,238.5 Z"/></g>
<g><path style="opacity:0.125" fill="#c3c3c3" d="M 506.5,238.5 C 505.71,239.401 504.71,240.068 503.5,240.5C 503.821,238.952 504.821,238.285 506.5,238.5 Z"/></g>
<g><path style="opacity:0.09" fill="#aeaeae" d="M 401.5,240.5 C 401.167,241.5 400.5,242.167 399.5,242.5C 399.5,241.167 400.167,240.5 401.5,240.5 Z"/></g>
<g><path style="opacity:0.039" fill="#e0e0e0" d="M 502.5,240.5 C 501.71,241.401 500.71,242.068 499.5,242.5C 499.821,240.952 500.821,240.285 502.5,240.5 Z"/></g>
<g><path style="opacity:0.018" fill="#fefefe" d="M 398.5,242.5 C 398.167,243.5 397.5,244.167 396.5,244.5C 396.5,243.167 397.167,242.5 398.5,242.5 Z"/></g>
<g><path style="opacity:0.063" fill="#dedede" d="M 498.5,242.5 C 498.167,243.5 497.5,244.167 496.5,244.5C 496.5,243.167 497.167,242.5 498.5,242.5 Z"/></g>
<g><path style="opacity:0.018" fill="#fafafa" d="M 396.5,244.5 C 396.167,245.5 395.5,246.167 394.5,246.5C 394.5,245.167 395.167,244.5 396.5,244.5 Z"/></g>
<g><path style="opacity:0.033" fill="#e4e4e4" d="M 495.5,244.5 C 495.027,245.906 494.027,246.573 492.5,246.5C 492.821,244.952 493.821,244.285 495.5,244.5 Z"/></g>
<g><path style="opacity:0.184" fill="#838383" d="M 394.5,246.5 C 394.043,248.773 392.71,250.106 390.5,250.5C 391.402,248.659 392.736,247.326 394.5,246.5 Z"/></g>
<g><path style="opacity:0.271" fill="#989898" d="M 492.5,246.5 C 491.415,248.587 489.749,249.92 487.5,250.5C 488.353,248.107 490.019,246.774 492.5,246.5 Z"/></g>
<g><path style="opacity:0.063" fill="#b2b2b2" d="M 387.5,253.5 C 387.167,254.5 386.5,255.167 385.5,255.5C 385.5,254.167 386.167,253.5 387.5,253.5 Z"/></g>
<g><path style="opacity:0.227" fill="#939393" d="M 485.5,251.5 C 485.144,253.19 484.144,254.19 482.5,254.5C 482.856,252.81 483.856,251.81 485.5,251.5 Z"/></g>
<g><path style="opacity:0.025" fill="#c7c7c7" d="M 479.5,257.5 C 478.167,258.833 476.833,260.167 475.5,261.5C 475.525,258.821 476.858,257.488 479.5,257.5 Z"/></g>
<g><path style="opacity:0.03" fill="#fefefe" d="M 378.5,261.5 C 378.167,262.5 377.5,263.167 376.5,263.5C 376.5,262.167 377.167,261.5 378.5,261.5 Z"/></g>
<g><path style="opacity:0.165" fill="#979797" d="M 376.5,263.5 C 375.974,265.23 374.974,266.564 373.5,267.5C 373.554,265.368 374.554,264.035 376.5,263.5 Z"/></g>
<g><path style="opacity:0.098" fill="#c0c0c0" d="M 469.5,267.5 C 469.167,268.5 468.5,269.167 467.5,269.5C 467.5,268.167 468.167,267.5 469.5,267.5 Z"/></g>
<g><path style="opacity:0.018" fill="#fefefe" d="M 368.5,271.5 C 368.167,272.5 367.5,273.167 366.5,273.5C 366.5,272.167 367.167,271.5 368.5,271.5 Z"/></g>
<g><path style="opacity:0.029" fill="#fefffe" d="M 366.5,273.5 C 366.167,274.5 365.5,275.167 364.5,275.5C 364.5,274.167 365.167,273.5 366.5,273.5 Z"/></g>
<g><path style="opacity:0.094" fill="#cbcbcb" d="M 464.5,273.5 C 464.167,274.5 463.5,275.167 462.5,275.5C 462.5,274.167 463.167,273.5 464.5,273.5 Z"/></g>
<g><path style="opacity:0.043" fill="#afafaf" d="M 462.5,275.5 C 462.262,277.404 461.262,278.738 459.5,279.5C 459.738,277.596 460.738,276.262 462.5,275.5 Z"/></g>
<g><path style="opacity:0.11" fill="#bdbdbd" d="M 364.5,275.5 C 363.876,277.754 362.543,279.421 360.5,280.5C 361.136,278.205 362.469,276.539 364.5,275.5 Z"/></g>
<g><path style="opacity:0.212" fill="#8d8d8d" d="M 360.5,280.5 C 360.262,282.404 359.262,283.738 357.5,284.5C 357.738,282.596 358.738,281.262 360.5,280.5 Z"/></g>
<g><path style="opacity:0.014" fill="#ebebeb" d="M 457.5,282.5 C 457.068,283.71 456.401,284.71 455.5,285.5C 455.285,283.821 455.952,282.821 457.5,282.5 Z"/></g>
<g><path style="opacity:0.027" fill="#b3b3b3" d="M 455.5,286.5 C 455.167,287.5 454.5,288.167 453.5,288.5C 453.5,287.167 454.167,286.5 455.5,286.5 Z"/></g>
<g><path style="opacity:0.014" fill="#e0e0e0" d="M 355.5,288.5 C 355.068,289.71 354.401,290.71 353.5,291.5C 353.285,289.821 353.952,288.821 355.5,288.5 Z"/></g>
<g><path style="opacity:0.145" fill="#a6a6a6" d="M 353.5,292.5 C 353.204,294.403 352.537,296.07 351.5,297.5C 351.12,295.302 351.787,293.635 353.5,292.5 Z"/></g>
<g><path style="opacity:0.031" fill="#bfbfbf" d="M 450.5,294.5 C 450.34,296.153 449.674,297.486 448.5,298.5C 448.229,296.62 448.896,295.287 450.5,294.5 Z"/></g>
<g><path style="opacity:0.107" fill="#e1e1e1" d="M 349.5,307.5 C 349.472,312.862 349.806,318.195 350.5,323.5C 349.188,321.257 348.522,318.59 348.5,315.5C 348.503,312.645 348.836,309.978 349.5,307.5 Z"/></g>
<g><path style="opacity:0.038" fill="#e1e1e1" d="M 350.5,327.5 C 352.101,330.55 353.101,333.884 353.5,337.5C 352.307,337.03 351.64,336.03 351.5,334.5C 351.003,332.182 350.67,329.848 350.5,327.5 Z"/></g>
<g><path style="opacity:0.208" fill="#c0c0c0" d="M 443.5,337.5 C 444.407,339.657 445.073,341.99 445.5,344.5C 443.656,342.721 442.99,340.388 443.5,337.5 Z"/></g>
<g><path style="opacity:0.034" fill="#ececec" d="M 353.5,337.5 C 355.208,340.95 356.541,344.617 357.5,348.5C 354.426,345.662 353.093,341.995 353.5,337.5 Z"/></g>
<g><path style="opacity:0.094" fill="#d3d3d3" d="M 445.5,346.5 C 446.87,349.619 447.87,352.952 448.5,356.5C 447.414,356.38 446.747,355.713 446.5,354.5C 445.731,351.885 445.397,349.219 445.5,346.5 Z"/></g>
<g><path style="opacity:0.055" fill="#e8e8e8" d="M 357.5,348.5 C 359.674,351.515 361.341,354.849 362.5,358.5C 359.29,356.082 357.624,352.748 357.5,348.5 Z"/></g>
<g><path style="opacity:0.147" fill="#e9e9e9" d="M 362.5,358.5 C 363.674,359.514 364.34,360.847 364.5,362.5C 362.824,361.817 362.157,360.483 362.5,358.5 Z"/></g>
<g><path style="opacity:0.063" fill="#dcdcdc" d="M 448.5,356.5 C 449.345,357.671 450.011,359.005 450.5,360.5C 448.824,359.817 448.157,358.483 448.5,356.5 Z"/></g>
<g><path style="opacity:0.175" fill="#c7c7c7" d="M 450.5,361.5 C 451.401,362.29 452.068,363.29 452.5,364.5C 450.952,364.179 450.285,363.179 450.5,361.5 Z"/></g>
<g><path style="opacity:0.173" fill="#dadada" d="M 364.5,362.5 C 365.5,362.833 366.167,363.5 366.5,364.5C 365.167,364.5 364.5,363.833 364.5,362.5 Z"/></g>
<g><path style="opacity:0.025" fill="#eeeeee" d="M 366.5,365.5 C 368.664,367.822 370.331,370.489 371.5,373.5C 367.837,372.155 366.17,369.488 366.5,365.5 Z"/></g>
<g><path style="opacity:0.212" fill="#e9e9e9" d="M 371.5,373.5 C 374.975,377.104 377.975,381.104 380.5,385.5C 375.59,382.925 372.59,378.925 371.5,373.5 Z"/></g>
<g><path style="opacity:0.178" fill="#eaeaea" d="M 452.5,365.5 C 455.83,371.492 459.163,377.492 462.5,383.5C 456.592,379.024 453.258,373.024 452.5,365.5 Z"/></g>
<g><path style="opacity:0.432" fill="#ededed" d="M 511.5,342.5 C 515.283,344.293 517.616,347.293 518.5,351.5C 528.239,362.307 535.405,374.64 540,388.5C 540.667,396.167 540.667,403.833 540,411.5C 537.276,418.614 534.276,425.614 531,432.5C 521.02,445.313 509.854,456.98 497.5,467.5C 496.048,468.94 495.048,470.606 494.5,472.5C 492.473,472.662 490.473,472.495 488.5,472C 502.397,458.772 515.564,444.939 528,430.5C 538.949,414.151 540.949,396.817 534,378.5C 526.645,366.332 519.145,354.332 511.5,342.5 Z"/></g>
<g><path style="opacity:0.029" fill="#eaeaea" d="M 462.5,383.5 C 464.326,385.147 465.66,387.147 466.5,389.5C 463.687,388.554 462.354,386.554 462.5,383.5 Z"/></g>
<g><path style="opacity:0.135" fill="#e1e1e1" d="M 380.5,385.5 C 382.262,386.262 383.262,387.596 383.5,389.5C 381.554,388.965 380.554,387.632 380.5,385.5 Z"/></g>
<g><path style="opacity:0.09" fill="#f0f0f0" d="M 383.5,389.5 C 384.5,389.833 385.167,390.5 385.5,391.5C 384.167,391.5 383.5,390.833 383.5,389.5 Z"/></g>
<g><path style="opacity:0.157" fill="#e0e0e0" d="M 385.5,391.5 C 386.5,391.833 387.167,392.5 387.5,393.5C 386.167,393.5 385.5,392.833 385.5,391.5 Z"/></g>
<g><path style="opacity:0.188" fill="#efefef" d="M 466.5,389.5 C 471.887,395.262 476.554,401.595 480.5,408.5C 473.968,403.621 469.301,397.288 466.5,389.5 Z"/></g>
<g><path style="opacity:0.18" fill="#d4d4d4" d="M 480.5,408.5 C 483.868,412.569 486.201,417.236 487.5,422.5C 484.681,418.195 482.348,413.529 480.5,408.5 Z"/></g>
<g><path style="opacity:0.071" fill="#eaeaea" d="M 387.5,393.5 C 396.806,403.14 406.139,412.807 415.5,422.5C 414.022,422.762 412.689,422.429 411.5,421.5C 406.724,415.643 401.39,410.31 395.5,405.5C 391.997,402.008 389.33,398.008 387.5,393.5 Z"/></g>
<g><path style="opacity:0.187" fill="#d8d8d8" d="M 660.5,433.5 C 665.294,432.903 669.627,433.57 673.5,435.5C 669.027,434.949 664.693,434.283 660.5,433.5 Z"/></g>
<g><path style="opacity:0.974" fill="#040404" d="M 660.5,433.5 C 664.693,434.283 669.027,434.949 673.5,435.5C 673.833,435.5 674.167,435.5 674.5,435.5C 676.214,436.738 678.214,437.405 680.5,437.5C 681.93,438.537 683.597,439.204 685.5,439.5C 690.129,442.821 694.796,446.154 699.5,449.5C 717.01,471.242 719.176,494.576 706,519.5C 696.456,533.377 684.623,544.877 670.5,554C 641.186,573.581 608.853,583.081 573.5,582.5C 573.721,581.265 574.388,580.265 575.5,579.5C 581.137,576.404 586.47,573.071 591.5,569.5C 592.5,569.167 593.167,568.5 593.5,567.5C 593.833,567.5 594.167,567.5 594.5,567.5C 595.5,567.167 596.167,566.5 596.5,565.5C 598.833,564.167 601.167,562.833 603.5,561.5C 605.027,561.573 606.027,560.906 606.5,559.5C 608.027,559.573 609.027,558.906 609.5,557.5C 609.833,557.5 610.167,557.5 610.5,557.5C 611.5,557.167 612.167,556.5 612.5,555.5C 612.833,555.5 613.167,555.5 613.5,555.5C 614.71,555.068 615.71,554.401 616.5,553.5C 618.285,551.866 620.285,550.532 622.5,549.5C 623.5,549.167 624.167,548.5 624.5,547.5C 625.778,547.218 626.778,546.551 627.5,545.5C 629.167,544.5 630.5,543.167 631.5,541.5C 631.842,540.662 632.508,540.328 633.5,540.5C 635.833,538.833 637.833,536.833 639.5,534.5C 640.222,533.449 641.222,532.782 642.5,532.5C 644.167,531.5 645.5,530.167 646.5,528.5C 647.833,527.167 649.167,525.833 650.5,524.5C 651.5,524.167 652.167,523.5 652.5,522.5C 653.797,520.202 655.463,518.202 657.5,516.5C 658.5,516.167 659.167,515.5 659.5,514.5C 661.543,513.421 662.876,511.754 663.5,509.5C 664.974,508.564 665.974,507.23 666.5,505.5C 666.5,505.167 666.5,504.833 666.5,504.5C 667.401,503.71 668.068,502.71 668.5,501.5C 669.467,497.76 670.134,493.926 670.5,490C 670.134,486.074 669.467,482.24 668.5,478.5C 668.34,476.847 667.674,475.514 666.5,474.5C 665.457,471.944 663.79,469.777 661.5,468C 653.621,463.946 645.288,461.28 636.5,460C 624.148,458.581 611.814,457.081 599.5,455.5C 598.314,454.295 598.314,452.961 599.5,451.5C 601.754,450.876 603.421,449.543 604.5,447.5C 606.285,445.866 608.285,444.532 610.5,443.5C 611.5,443.167 612.167,442.5 612.5,441.5C 613.222,440.449 614.222,439.782 615.5,439.5C 616.5,439.167 617.167,438.5 617.5,437.5C 631.578,434.16 645.912,432.826 660.5,433.5 Z"/></g>
<g><path style="opacity:0.137" fill="#d9d9d9" d="M 674.5,435.5 C 677.082,435.025 679.082,435.692 680.5,437.5C 678.214,437.405 676.214,436.738 674.5,435.5 Z"/></g>
<g><path style="opacity:0.039" fill="#cecece" d="M 485.5,435.5 C 485.34,437.153 484.674,438.486 483.5,439.5C 483.229,437.62 483.896,436.287 485.5,435.5 Z"/></g>
<g><path style="opacity:0.051" fill="#d5d5d5" d="M 617.5,437.5 C 617.167,438.5 616.5,439.167 615.5,439.5C 615.5,438.167 616.167,437.5 617.5,437.5 Z"/></g>
<g><path style="opacity:0.082" fill="#eaeaea" d="M 680.5,437.5 C 682.781,437.077 684.448,437.744 685.5,439.5C 683.597,439.204 681.93,438.537 680.5,437.5 Z"/></g>
<g><path style="opacity:0.491" fill="#e9e9e9" d="M 370.5,439.5 C 372.547,441.626 373.547,444.292 373.5,447.5C 374.143,453.524 371.476,456.191 365.5,455.5C 365.5,456.5 365.5,457.5 365.5,458.5C 360.342,459.561 355.342,461.227 350.5,463.5C 345.436,466.699 340.103,469.365 334.5,471.5C 332.995,472.842 332.328,474.508 332.5,476.5C 330.158,476.496 328.158,475.663 326.5,474C 339.885,464.14 354.552,456.64 370.5,451.5C 370.858,447.599 370.858,443.599 370.5,439.5 Z"/></g>
<g><path style="opacity:0.031" fill="#bdbdbd" d="M 612.5,441.5 C 612.167,442.5 611.5,443.167 610.5,443.5C 610.5,442.167 611.167,441.5 612.5,441.5 Z"/></g>
<g><path style="opacity:0.046" fill="#e7e7e7" d="M 345.5,443.5 C 344.329,444.345 342.995,445.011 341.5,445.5C 342.183,443.824 343.517,443.157 345.5,443.5 Z"/></g>
<g><path style="opacity:0.047" fill="#e7e7e7" d="M 338.5,445.5 C 337.329,446.345 335.995,447.011 334.5,447.5C 335.183,445.824 336.517,445.157 338.5,445.5 Z"/></g>
<g><path style="opacity:0.314" fill="#e9e9e9" d="M 685.5,439.5 C 689.352,440.612 693.019,442.279 696.5,444.5C 698.278,445.726 699.278,447.393 699.5,449.5C 694.796,446.154 690.129,442.821 685.5,439.5 Z"/></g>
<g><path style="opacity:0.035" fill="#f1f1f1" d="M 331.5,447.5 C 330.329,448.345 328.995,449.011 327.5,449.5C 328.183,447.824 329.517,447.157 331.5,447.5 Z"/></g>
<g><path style="opacity:0.017" fill="#ededed" d="M 604.5,447.5 C 603.421,449.543 601.754,450.876 599.5,451.5C 600.265,449.071 601.931,447.738 604.5,447.5 Z"/></g>
<g><path style="opacity:0.028" fill="#ececec" d="M 325.5,449.5 C 324.07,450.537 322.403,451.204 320.5,451.5C 321.552,449.744 323.219,449.077 325.5,449.5 Z"/></g>
<g><path style="opacity:0.027" fill="#eaeaea" d="M 478.5,449.5 C 477.737,451.368 476.737,453.035 475.5,454.5C 475.259,451.966 476.259,450.3 478.5,449.5 Z"/></g>
<g><path style="opacity:0.031" fill="#e7e7e7" d="M 319.5,451.5 C 318.329,452.345 316.995,453.011 315.5,453.5C 316.183,451.824 317.517,451.157 319.5,451.5 Z"/></g>
<g><path style="opacity:0.18" fill="#c3c3c3" d="M 313.5,453.5 C 312.486,454.674 311.153,455.34 309.5,455.5C 310.287,453.896 311.62,453.229 313.5,453.5 Z"/></g>
<g><path style="opacity:0.022" fill="#d7d7d7" d="M 305.5,456.5 C 304.71,457.401 303.71,458.068 302.5,458.5C 302.821,456.952 303.821,456.285 305.5,456.5 Z"/></g>
<g><path style="opacity:0.01" fill="#e0e0e0" d="M 300.5,458.5 C 299.71,459.401 298.71,460.068 297.5,460.5C 297.821,458.952 298.821,458.285 300.5,458.5 Z"/></g>
<g><path style="opacity:0.305" fill="#f0f0f0" d="M 599.5,455.5 C 611.814,457.081 624.148,458.581 636.5,460C 645.288,461.28 653.621,463.946 661.5,468C 663.79,469.777 665.457,471.944 666.5,474.5C 661.092,471.111 655.425,468.111 649.5,465.5C 634.436,461.812 619.103,459.812 603.5,459.5C 601.231,458.995 599.897,457.662 599.5,455.5 Z"/></g>
<g><path style="opacity:0.014" fill="#dfdfdf" d="M 291.5,462.5 C 290.71,463.401 289.71,464.068 288.5,464.5C 288.821,462.952 289.821,462.285 291.5,462.5 Z"/></g>
<g><path style="opacity:0.086" fill="#d4d4d4" d="M 283.5,466.5 C 283.167,467.5 282.5,468.167 281.5,468.5C 281.5,467.167 282.167,466.5 283.5,466.5 Z"/></g>
<g><path style="opacity:0.075" fill="#c1c1c1" d="M 280.5,468.5 C 280.167,469.5 279.5,470.167 278.5,470.5C 278.5,469.167 279.167,468.5 280.5,468.5 Z"/></g>
<g><path style="opacity:0.251" fill="#c1c1c1" d="M 473.5,464.5 C 474.479,467.625 474.813,470.958 474.5,474.5C 472.833,474.5 471.167,474.5 469.5,474.5C 470.183,472.824 471.517,472.157 473.5,472.5C 473.5,469.833 473.5,467.167 473.5,464.5 Z"/></g>
<g><path style="opacity:0.078" fill="#949494" d="M 275.5,472.5 C 274.5,474.167 273.167,475.5 271.5,476.5C 271.833,474.167 273.167,472.833 275.5,472.5 Z"/></g>
<g><path style="opacity:0.129" fill="#d4d4d4" d="M 666.5,474.5 C 667.674,475.514 668.34,476.847 668.5,478.5C 666.824,477.817 666.157,476.483 666.5,474.5 Z"/></g>
<g><path style="opacity:0.031" fill="#d4d4d4" d="M 332.5,476.5 C 343.015,477.739 353.682,478.572 364.5,479C 365.056,479.383 365.389,479.883 365.5,480.5C 354.182,480.597 343.182,479.263 332.5,476.5 Z"/></g>
<g><path style="opacity:0.078" fill="#eeeeee" d="M 426.5,476.5 C 421.302,477.259 415.969,477.925 410.5,478.5C 410.611,477.883 410.944,477.383 411.5,477C 416.489,476.501 421.489,476.334 426.5,476.5 Z"/></g>
<g><path style="opacity:0.055" fill="#d3d3d3" d="M 271.5,476.5 C 271.167,477.5 270.5,478.167 269.5,478.5C 269.5,477.167 270.167,476.5 271.5,476.5 Z"/></g>
<g><path style="opacity:0.076" fill="#e3e3e3" d="M 400.5,478.5 C 393.298,479.232 385.965,479.899 378.5,480.5C 378.611,479.883 378.944,479.383 379.5,479C 386.492,478.5 393.492,478.334 400.5,478.5 Z"/></g>
<g><path style="opacity:0.437" fill="#e3e3e3" d="M 578.5,465.5 C 584.346,464.183 590.346,464.183 596.5,465.5C 598.713,470.278 599.046,475.278 597.5,480.5C 592.693,482.59 587.693,484.257 582.5,485.5C 523.282,500.279 462.949,509.946 401.5,514.5C 400.624,515.251 399.624,515.751 398.5,516C 384.167,516.333 369.833,516.667 355.5,517C 354.437,518.188 353.103,518.688 351.5,518.5C 350.134,524.238 348.467,529.905 346.5,535.5C 346.061,539.506 347.727,541.84 351.5,542.5C 351.5,543.5 351.5,544.5 351.5,545.5C 346.271,543.44 343.605,539.606 343.5,534C 345.17,527.15 347.837,520.65 351.5,514.5C 433.149,512.098 513.483,500.598 592.5,480C 595.047,479.564 596.38,478.064 596.5,475.5C 595.79,472.201 595.457,468.867 595.5,465.5C 589.833,465.5 584.167,465.5 578.5,465.5 Z"/></g>
<g><path style="opacity:0.428" fill="#ececec" d="M 699.5,449.5 C 702.263,449.744 704.429,451.077 706,453.5C 713.442,464.08 717.275,475.913 717.5,489C 716.682,498.094 714.848,506.928 712,515.5C 707.954,522.467 703.454,529.134 698.5,535.5C 697.167,536.167 695.833,536.833 694.5,537.5C 691.325,541.841 687.658,545.674 683.5,549C 678.696,552.201 674.03,555.534 669.5,559C 656.798,565.363 644.132,571.697 631.5,578C 622.384,579.914 613.384,581.914 604.5,584C 594.142,584.678 583.809,585.512 573.5,586.5C 573.5,585.167 573.5,583.833 573.5,582.5C 608.853,583.081 641.186,573.581 670.5,554C 684.623,544.877 696.456,533.377 706,519.5C 719.176,494.576 717.01,471.242 699.5,449.5 Z"/></g>
<g><path style="opacity:0.025" fill="#ebebeb" d="M 668.5,501.5 C 668.068,502.71 667.401,503.71 666.5,504.5C 666.285,502.821 666.952,501.821 668.5,501.5 Z"/></g>
<g><path style="opacity:0.397" fill="#ececec" d="M 267.5,489.5 C 272.133,497.521 279.133,502.687 288.5,505C 306.168,509.916 324.168,512.916 342.5,514C 340.713,515.319 338.713,516.152 336.5,516.5C 325.158,513.951 313.491,512.117 301.5,511C 290.508,509.262 280.508,505.095 271.5,498.5C 268.315,496.317 266.982,493.317 267.5,489.5 Z"/></g>
<g><path style="opacity:0.133" fill="#c8c8c8" d="M 666.5,505.5 C 665.974,507.23 664.974,508.564 663.5,509.5C 663.554,507.368 664.554,506.035 666.5,505.5 Z"/></g>
<g><path style="opacity:0.098" fill="#bbbbbb" d="M 663.5,509.5 C 662.876,511.754 661.543,513.421 659.5,514.5C 660.136,512.205 661.469,510.539 663.5,509.5 Z"/></g>
<g><path style="opacity:0.014" fill="#f3f3f3" d="M 659.5,514.5 C 659.167,515.5 658.5,516.167 657.5,516.5C 657.5,515.167 658.167,514.5 659.5,514.5 Z"/></g>
<g><path style="opacity:0.122" fill="#d3d3d3" d="M 327.5,522.5 C 327.167,523.5 326.5,524.167 325.5,524.5C 325.5,523.167 326.167,522.5 327.5,522.5 Z"/></g>
<g><path style="opacity:0.055" fill="#b8b8b8" d="M 652.5,522.5 C 652.167,523.5 651.5,524.167 650.5,524.5C 650.5,523.167 651.167,522.5 652.5,522.5 Z"/></g>
<g><path style="opacity:0.009" fill="#fefffe" d="M 322.5,526.5 C 322.167,527.5 321.5,528.167 320.5,528.5C 320.5,527.167 321.167,526.5 322.5,526.5 Z"/></g>
<g><path style="opacity:0.043" fill="#969696" d="M 646.5,528.5 C 645.5,530.167 644.167,531.5 642.5,532.5C 642.833,530.167 644.167,528.833 646.5,528.5 Z"/></g>
<g><path style="opacity:0.017" fill="#eeeeee" d="M 554.5,531.5 C 556.693,530.203 559.027,530.203 561.5,531.5C 563.812,534.646 566.312,537.646 569,540.5C 569.49,541.793 569.657,543.127 569.5,544.5C 565.651,540.81 562.317,536.643 559.5,532C 557.866,531.506 556.199,531.34 554.5,531.5 Z"/></g>
<g><path style="opacity:0.059" fill="#d8d8d8" d="M 320.5,528.5 C 319.876,530.754 318.543,532.421 316.5,533.5C 317.136,531.205 318.469,529.539 320.5,528.5 Z"/></g>
<g><path style="opacity:0.024" fill="#dcdcdc" d="M 550.5,532.5 C 548.285,533.268 545.952,533.935 543.5,534.5C 545.279,532.656 547.612,531.99 550.5,532.5 Z"/></g>
<g><path style="opacity:0.075" fill="#dadada" d="M 540.5,534.5 C 537.689,535.475 534.689,536.142 531.5,536.5C 533.988,534.612 536.988,533.945 540.5,534.5 Z"/></g>
<g><path style="opacity:0.082" fill="#dadada" d="M 529.5,536.5 C 526.344,537.434 523.011,538.101 519.5,538.5C 522.337,536.598 525.671,535.931 529.5,536.5 Z"/></g>
<g><path style="opacity:0.125" fill="#bfbfbf" d="M 639.5,534.5 C 637.833,536.833 635.833,538.833 633.5,540.5C 634.5,537.5 636.5,535.5 639.5,534.5 Z"/></g>
<g><path style="opacity:0.014" fill="#f7f7f7" d="M 313.5,538.5 C 313.068,539.71 312.401,540.71 311.5,541.5C 311.285,539.821 311.952,538.821 313.5,538.5 Z"/></g>
<g><path style="opacity:0.026" fill="#ededed" d="M 514.5,538.5 C 512.039,539.531 509.373,540.198 506.5,540.5C 508.635,538.631 511.302,537.964 514.5,538.5 Z"/></g>
<g><path style="opacity:0.025" fill="#d9d9d9" d="M 501.5,540.5 C 498.091,541.903 494.425,542.57 490.5,542.5C 490.611,541.883 490.944,541.383 491.5,541C 494.817,540.502 498.15,540.335 501.5,540.5 Z"/></g>
<g><path style="opacity:0.011" fill="#d5d5d5" d="M 488.5,542.5 C 481.389,544.023 474.056,544.69 466.5,544.5C 467.263,543.732 468.263,543.232 469.5,543C 475.825,542.5 482.158,542.334 488.5,542.5 Z"/></g>
<g><path style="opacity:0.02" fill="#cecece" d="M 631.5,541.5 C 630.5,543.167 629.167,544.5 627.5,545.5C 627.833,543.167 629.167,541.833 631.5,541.5 Z"/></g>
<g><path style="opacity:0.021" fill="#e6e6e6" d="M 311.5,543.5 C 311.011,544.995 310.345,546.329 309.5,547.5C 309.157,545.517 309.824,544.183 311.5,543.5 Z"/></g>
<g><path style="opacity:0.063" fill="#cecece" d="M 353.5,545.5 C 355.781,545.077 357.448,545.744 358.5,547.5C 356.597,547.204 354.93,546.537 353.5,545.5 Z"/></g>
<g><path style="opacity:0.169" fill="#d3d3d3" d="M 569.5,545.5 C 570.833,545.5 571.5,546.167 571.5,547.5C 570.5,547.167 569.833,546.5 569.5,545.5 Z"/></g>
<g><path style="opacity:0.118" fill="#c6c6c6" d="M 624.5,547.5 C 624.167,548.5 623.5,549.167 622.5,549.5C 622.5,548.167 623.167,547.5 624.5,547.5 Z"/></g>
<g><path style="opacity:0.043" fill="#dcdcdc" d="M 616.5,553.5 C 615.71,554.401 614.71,555.068 613.5,555.5C 613.821,553.952 614.821,553.285 616.5,553.5 Z"/></g>
<g><path style="opacity:0.051" fill="#e0e0e0" d="M 612.5,555.5 C 612.167,556.5 611.5,557.167 610.5,557.5C 610.5,556.167 611.167,555.5 612.5,555.5 Z"/></g>
<g><path style="opacity:0.4" fill="#e8e8e8" d="M 571.5,547.5 C 577.526,551.547 581.192,557.213 582.5,564.5C 582.33,566.715 581.663,568.715 580.5,570.5C 570.707,573.084 561.04,575.584 551.5,578C 521.221,582.715 490.888,586.549 460.5,589.5C 445.845,590.333 431.178,590.833 416.5,591C 414.541,592.096 412.375,592.596 410,592.5C 392.467,591.225 374.967,589.558 357.5,587.5C 346.059,585.779 335.059,582.612 324.5,578C 321.036,575.373 317.703,572.54 314.5,569.5C 313.571,568.311 313.238,566.978 313.5,565.5C 315.641,568.472 318.308,570.972 321.5,573C 337.172,581.086 353.839,585.752 371.5,587C 394.812,588.528 418.145,588.862 441.5,588C 487.952,584.531 533.952,578.031 579.5,568.5C 579.665,565.482 579.498,562.482 579,559.5C 576.275,555.615 573.775,551.615 571.5,547.5 Z"/></g>
<g><path style="opacity:0.031" fill="#bcbcbc" d="M 609.5,557.5 C 609.027,558.906 608.027,559.573 606.5,559.5C 606.973,558.094 607.973,557.427 609.5,557.5 Z"/></g>
<g><path style="opacity:0.01" fill="#dddddd" d="M 606.5,559.5 C 606.027,560.906 605.027,561.573 603.5,561.5C 603.821,559.952 604.821,559.285 606.5,559.5 Z"/></g>
<g><path style="opacity:0.025" fill="#e6e6e6" d="M 309.5,557.5 C 311.011,560.005 312.345,562.672 313.5,565.5C 310.108,564.01 308.774,561.343 309.5,557.5 Z"/></g>
<g><path style="opacity:0.043" fill="#dbdbdb" d="M 596.5,565.5 C 596.167,566.5 595.5,567.167 594.5,567.5C 594.5,566.167 595.167,565.5 596.5,565.5 Z"/></g>
<g><path style="opacity:0.035" fill="#d6d6d6" d="M 593.5,567.5 C 593.167,568.5 592.5,569.167 591.5,569.5C 591.5,568.167 592.167,567.5 593.5,567.5 Z"/></g>
<g><path style="opacity:0.981" fill="#020202" d="M 347.5,596.5 C 350.876,599.194 354.543,601.527 358.5,603.5C 359.514,604.674 360.847,605.34 362.5,605.5C 364.322,605.831 365.989,606.498 367.5,607.5C 368.514,608.674 369.847,609.34 371.5,609.5C 371.833,609.5 372.167,609.5 372.5,609.5C 374.214,610.738 376.214,611.405 378.5,611.5C 380.515,612.924 382.848,613.59 385.5,613.5C 388.219,614.913 391.219,615.58 394.5,615.5C 397.656,616.434 400.989,617.101 404.5,617.5C 405.167,617.5 405.833,617.5 406.5,617.5C 422.837,620.121 439.17,620.121 455.5,617.5C 469.557,615.873 483.557,613.873 497.5,611.5C 499.599,612.612 501.933,613.279 504.5,613.5C 504.833,613.5 505.167,613.5 505.5,613.5C 507.905,614.768 510.572,615.435 513.5,615.5C 518.573,617.435 523.906,618.768 529.5,619.5C 529.833,619.5 530.167,619.5 530.5,619.5C 532.905,620.768 535.572,621.435 538.5,621.5C 540.905,622.768 543.572,623.435 546.5,623.5C 548.905,624.768 551.572,625.435 554.5,625.5C 556.905,626.768 559.572,627.435 562.5,627.5C 562.833,627.5 563.167,627.5 563.5,627.5C 565.905,628.768 568.572,629.435 571.5,629.5C 576.627,631.285 581.96,632.785 587.5,634C 552.247,645.48 516.247,653.813 479.5,659C 440.683,664.007 402.349,661.674 364.5,652C 346.408,646.623 330.075,638.123 315.5,626.5C 315.5,624.833 315.5,623.167 315.5,621.5C 316.71,621.068 317.71,620.401 318.5,619.5C 319.5,619.167 320.167,618.5 320.5,617.5C 321.5,617.167 322.167,616.5 322.5,615.5C 323.222,614.449 324.222,613.782 325.5,613.5C 326.5,613.167 327.167,612.5 327.5,611.5C 328.5,611.167 329.167,610.5 329.5,609.5C 330.222,608.449 331.222,607.782 332.5,607.5C 333.5,607.167 334.167,606.5 334.5,605.5C 336.144,605.19 337.144,604.19 337.5,602.5C 340.089,601.581 342.089,599.914 343.5,597.5C 344.568,596.566 345.901,596.232 347.5,596.5 Z"/></g>
<g><path style="opacity:0.028" fill="#f3f3f3" d="M 347.5,596.5 C 351.273,597.554 354.94,598.887 358.5,600.5C 358.5,601.5 358.5,602.5 358.5,603.5C 354.543,601.527 350.876,599.194 347.5,596.5 Z"/></g>
<g><path style="opacity:0.18" fill="#aaaaaa" d="M 343.5,597.5 C 342.089,599.914 340.089,601.581 337.5,602.5C 338.593,599.739 340.593,598.073 343.5,597.5 Z"/></g>
<g><path style="opacity:0.059" fill="#e2e2e2" d="M 358.5,603.5 C 360.483,603.157 361.817,603.824 362.5,605.5C 360.847,605.34 359.514,604.674 358.5,603.5 Z"/></g>
<g><path style="opacity:0.125" fill="#ababab" d="M 334.5,605.5 C 334.167,606.5 333.5,607.167 332.5,607.5C 332.5,606.167 333.167,605.5 334.5,605.5 Z"/></g>
<g><path style="opacity:0.175" fill="#d5d5d5" d="M 367.5,607.5 C 369.483,607.157 370.817,607.824 371.5,609.5C 369.847,609.34 368.514,608.674 367.5,607.5 Z"/></g>
<g><path style="opacity:0.027" fill="#e1e1e1" d="M 329.5,609.5 C 329.167,610.5 328.5,611.167 327.5,611.5C 327.5,610.167 328.167,609.5 329.5,609.5 Z"/></g>
<g><path style="opacity:0.169" fill="#e2e2e2" d="M 372.5,609.5 C 375.082,609.025 377.082,609.692 378.5,611.5C 376.214,611.405 374.214,610.738 372.5,609.5 Z"/></g>
<g><path style="opacity:0.122" fill="#b7b7b7" d="M 327.5,611.5 C 327.167,612.5 326.5,613.167 325.5,613.5C 325.5,612.167 326.167,611.5 327.5,611.5 Z"/></g>
<g><path style="opacity:0.149" fill="#d3d3d3" d="M 378.5,611.5 C 380.527,611.338 382.527,611.505 384.5,612C 385.056,612.383 385.389,612.883 385.5,613.5C 382.848,613.59 380.515,612.924 378.5,611.5 Z"/></g>
<g><path style="opacity:0.157" fill="#dcdcdc" d="M 497.5,611.5 C 499.527,611.338 501.527,611.505 503.5,612C 504.056,612.383 504.389,612.883 504.5,613.5C 501.933,613.279 499.599,612.612 497.5,611.5 Z"/></g>
<g><path style="opacity:0.159" fill="#cecece" d="M 385.5,613.5 C 388.187,613.336 390.854,613.503 393.5,614C 394.056,614.383 394.389,614.883 394.5,615.5C 391.219,615.58 388.219,614.913 385.5,613.5 Z"/></g>
<g><path style="opacity:0.149" fill="#dbdbdb" d="M 505.5,613.5 C 508.698,612.964 511.365,613.631 513.5,615.5C 510.572,615.435 507.905,614.768 505.5,613.5 Z"/></g>
<g><path style="opacity:0.063" fill="#e4e4e4" d="M 322.5,615.5 C 322.167,616.5 321.5,617.167 320.5,617.5C 320.5,616.167 321.167,615.5 322.5,615.5 Z"/></g>
<g><path style="opacity:0.152" fill="#d3d3d3" d="M 394.5,615.5 C 398.329,614.931 401.663,615.598 404.5,617.5C 400.989,617.101 397.656,616.434 394.5,615.5 Z"/></g>
<g><path style="opacity:0.133" fill="#c3c3c3" d="M 320.5,617.5 C 320.167,618.5 319.5,619.167 318.5,619.5C 318.5,618.167 319.167,617.5 320.5,617.5 Z"/></g>
<g><path style="opacity:0.204" fill="#d4d4d4" d="M 513.5,615.5 C 516.187,615.336 518.854,615.503 521.5,616C 524.503,616.749 527.169,617.915 529.5,619.5C 523.906,618.768 518.573,617.435 513.5,615.5 Z"/></g>
<g><path style="opacity:0.168" fill="#9e9e9e" d="M 406.5,617.5 C 422.833,617.5 439.167,617.5 455.5,617.5C 439.17,620.121 422.837,620.121 406.5,617.5 Z"/></g>
<g><path style="opacity:0.027" fill="#e3e3e3" d="M 318.5,619.5 C 317.71,620.401 316.71,621.068 315.5,621.5C 315.821,619.952 316.821,619.285 318.5,619.5 Z"/></g>
<g><path style="opacity:0.025" fill="#ebebeb" d="M 530.5,619.5 C 533.698,618.964 536.365,619.631 538.5,621.5C 535.572,621.435 532.905,620.768 530.5,619.5 Z"/></g>
<g><path style="opacity:0.025" fill="#e6e6e6" d="M 538.5,621.5 C 541.698,620.964 544.365,621.631 546.5,623.5C 543.572,623.435 540.905,622.768 538.5,621.5 Z"/></g>
<g><path style="opacity:0.106" fill="#cbcbcb" d="M 546.5,623.5 C 548.857,623.337 551.19,623.503 553.5,624C 554.056,624.383 554.389,624.883 554.5,625.5C 551.572,625.435 548.905,624.768 546.5,623.5 Z"/></g>
<g><path style="opacity:0.031" fill="#dadada" d="M 554.5,625.5 C 557.698,624.964 560.365,625.631 562.5,627.5C 559.572,627.435 556.905,626.768 554.5,625.5 Z"/></g>
<g><path style="opacity:0.036" fill="#dfdfdf" d="M 563.5,627.5 C 566.698,626.964 569.365,627.631 571.5,629.5C 568.572,629.435 565.905,628.768 563.5,627.5 Z"/></g>
<g><path style="opacity:0.451" fill="#e7e7e7" d="M 315.5,626.5 C 330.075,638.123 346.408,646.623 364.5,652C 402.349,661.674 440.683,664.007 479.5,659C 516.247,653.813 552.247,645.48 587.5,634C 581.96,632.785 576.627,631.285 571.5,629.5C 574.85,629.335 578.183,629.502 581.5,630C 583.909,631.707 586.575,632.54 589.5,632.5C 589.822,634.722 589.155,636.556 587.5,638C 539.6,652.815 490.6,661.982 440.5,665.5C 428.92,663.9 417.253,663.066 405.5,663C 404.692,662.692 404.025,662.192 403.5,661.5C 373.887,659.185 346.554,650.185 321.5,634.5C 320.614,633.675 320.281,632.675 320.5,631.5C 316.849,631.838 315.183,630.172 315.5,626.5 Z"/></g>
<g><path style="opacity:0.203" fill="#e3e3e3" d="M 269.5,645.5 C 273.988,644.834 278.654,644.501 283.5,644.5C 288.551,644.507 293.217,645.173 297.5,646.5C 288.199,645.613 278.866,645.279 269.5,645.5 Z"/></g>
<g><path style="opacity:0.975" fill="#040404" d="M 269.5,645.5 C 278.866,645.279 288.199,645.613 297.5,646.5C 298.833,646.5 300.167,646.5 301.5,646.5C 304.627,647.581 307.96,648.247 311.5,648.5C 312.167,648.5 312.833,648.5 313.5,648.5C 316.684,649.323 320.017,649.99 323.5,650.5C 323.5,650.833 323.5,651.167 323.5,651.5C 303.88,657.559 286.046,666.892 270,679.5C 264.557,685.61 266.057,688.943 274.5,689.5C 274.833,689.5 275.167,689.5 275.5,689.5C 278.876,691.082 282.542,691.749 286.5,691.5C 316.359,692.976 346.359,694.642 376.5,696.5C 388.657,697.566 400.991,698.233 413.5,698.5C 454.818,699.062 495.818,696.729 536.5,691.5C 540.011,691.101 543.344,690.434 546.5,689.5C 547.833,689.5 549.167,689.5 550.5,689.5C 554.04,689.247 557.373,688.581 560.5,687.5C 561.167,687.5 561.833,687.5 562.5,687.5C 565.689,687.142 568.689,686.475 571.5,685.5C 572.167,685.5 572.833,685.5 573.5,685.5C 577.387,685.354 581.054,684.687 584.5,683.5C 585.5,683.5 586.5,683.5 587.5,683.5C 589.403,683.204 591.07,682.537 592.5,681.5C 596.799,680.653 601.133,679.987 605.5,679.5C 608.01,679.073 610.343,678.407 612.5,677.5C 620.545,675.481 628.545,673.481 636.5,671.5C 638.027,671.573 639.027,670.906 639.5,669.5C 645.85,668.159 651.85,665.826 657.5,662.5C 658.687,660.099 660.021,657.765 661.5,655.5C 658.603,651.65 659.269,648.65 663.5,646.5C 667.771,650.269 671.938,654.269 676,658.5C 679.101,664.76 679.101,671.093 676,677.5C 667.847,689.309 657.013,697.809 643.5,703C 626.374,709.698 608.707,714.365 590.5,717C 511.054,725.868 431.387,731.701 351.5,734.5C 331.497,734.333 311.497,734.5 291.5,735C 293.813,735.662 296.146,736.162 298.5,736.5C 303.721,737.926 309.055,738.926 314.5,739.5C 364.448,744.482 414.448,744.816 464.5,740.5C 492.197,737.413 519.864,734.079 547.5,730.5C 562.313,726.852 577.313,724.352 592.5,723C 595.54,721.931 598.54,720.764 601.5,719.5C 609.138,717.727 616.805,716.06 624.5,714.5C 628.087,713.379 631.753,712.379 635.5,711.5C 636.791,711.737 637.791,711.404 638.5,710.5C 652.676,707.878 666.676,704.545 680.5,700.5C 681.995,700.011 683.329,699.345 684.5,698.5C 691.052,696.629 697.719,695.295 704.5,694.5C 706.593,698.735 707.593,703.068 707.5,707.5C 630.905,738.42 551.905,760.92 470.5,775C 419.653,783.713 369.653,780.38 320.5,765C 308.392,760.447 297.059,754.614 286.5,747.5C 281.695,742.866 276.695,738.366 271.5,734C 248.15,733.083 225.483,728.75 203.5,721C 195.037,717.367 188.704,711.533 184.5,703.5C 183.382,697.916 183.215,692.249 184,686.5C 184.236,684.189 185.069,682.189 186.5,680.5C 187.401,679.71 188.068,678.71 188.5,677.5C 189.46,675.539 190.793,673.873 192.5,672.5C 194.144,672.19 195.144,671.19 195.5,669.5C 198.894,666.681 202.561,664.348 206.5,662.5C 208.027,662.573 209.027,661.906 209.5,660.5C 211.553,660.598 213.22,659.931 214.5,658.5C 216.403,658.204 218.07,657.537 219.5,656.5C 219.833,656.5 220.167,656.5 220.5,656.5C 221.995,656.011 223.329,655.345 224.5,654.5C 230.279,652.279 236.279,650.946 242.5,650.5C 244.403,650.204 246.07,649.537 247.5,648.5C 254.934,647.322 262.267,646.322 269.5,645.5 Z M 635.5,711.5 C 631.753,712.379 628.087,713.379 624.5,714.5C 625.007,713.141 626.007,712.141 627.5,711.5C 630.309,710.2 632.976,710.2 635.5,711.5 Z M 601.5,719.5 C 598.54,720.764 595.54,721.931 592.5,723C 577.313,724.352 562.313,726.852 547.5,730.5C 519.864,734.079 492.197,737.413 464.5,740.5C 414.448,744.816 364.448,744.482 314.5,739.5C 327.141,737.844 340.141,736.844 353.5,736.5C 387.515,735.723 421.515,734.557 455.5,733C 478.496,730.623 501.496,728.289 524.5,726C 535.515,725.832 546.515,725.332 557.5,724.5C 569.644,722.049 581.977,720.049 594.5,718.5C 597.025,718.503 599.359,718.837 601.5,719.5 Z"/></g>
<g><path style="opacity:0.139" fill="#c9c9c9" d="M 301.5,646.5 C 305.329,645.931 308.663,646.598 311.5,648.5C 307.96,648.247 304.627,647.581 301.5,646.5 Z"/></g>
<g><path style="opacity:0.078" fill="#dadada" d="M 247.5,648.5 C 246.07,649.537 244.403,650.204 242.5,650.5C 243.635,648.787 245.302,648.12 247.5,648.5 Z"/></g>
<g><path style="opacity:0.129" fill="#cbcbcb" d="M 313.5,648.5 C 317.329,647.931 320.663,648.598 323.5,650.5C 320.017,649.99 316.684,649.323 313.5,648.5 Z"/></g>
<g><path style="opacity:0.467" fill="#ebebeb" d="M 323.5,651.5 C 323.579,652.93 323.246,654.264 322.5,655.5C 316.687,658.019 310.687,660.019 304.5,661.5C 293.124,667.528 282.124,674.195 271.5,681.5C 271.714,683.144 271.38,684.644 270.5,686C 272.093,686.949 273.426,688.115 274.5,689.5C 266.057,688.943 264.557,685.61 270,679.5C 286.046,666.892 303.88,657.559 323.5,651.5 Z"/></g>
<g><path style="opacity:0.027" fill="#ededed" d="M 224.5,654.5 C 223.329,655.345 221.995,656.011 220.5,656.5C 221.183,654.824 222.517,654.157 224.5,654.5 Z"/></g>
<g><path style="opacity:0.027" fill="#e5e5e5" d="M 219.5,656.5 C 218.07,657.537 216.403,658.204 214.5,658.5C 215.635,656.787 217.302,656.12 219.5,656.5 Z"/></g>
<g><path style="opacity:0.02" fill="#e1e1e1" d="M 214.5,658.5 C 213.22,659.931 211.553,660.598 209.5,660.5C 210.78,659.069 212.447,658.402 214.5,658.5 Z"/></g>
<g><path style="opacity:0.184" fill="#c5c5c5" d="M 209.5,660.5 C 209.027,661.906 208.027,662.573 206.5,662.5C 206.973,661.094 207.973,660.427 209.5,660.5 Z"/></g>
<g><path style="opacity:0.141" fill="#808080" d="M 639.5,669.5 C 639.027,670.906 638.027,671.573 636.5,671.5C 636.821,669.952 637.821,669.285 639.5,669.5 Z"/></g>
<g><path style="opacity:0.204" fill="#8d8d8d" d="M 195.5,669.5 C 195.144,671.19 194.144,672.19 192.5,672.5C 192.856,670.81 193.856,669.81 195.5,669.5 Z"/></g>
<g><path style="opacity:0.016" fill="#e7e7e7" d="M 188.5,677.5 C 188.068,678.71 187.401,679.71 186.5,680.5C 186.285,678.821 186.952,677.821 188.5,677.5 Z"/></g>
<g><path style="opacity:0.071" fill="#cbcbcb" d="M 612.5,677.5 C 610.343,678.407 608.01,679.073 605.5,679.5C 605.611,678.883 605.944,678.383 606.5,678C 608.473,677.505 610.473,677.338 612.5,677.5 Z"/></g>
<g><path style="opacity:0.078" fill="#d2d2d2" d="M 592.5,681.5 C 591.07,682.537 589.403,683.204 587.5,683.5C 588.552,681.744 590.219,681.077 592.5,681.5 Z"/></g>
<g><path style="opacity:0.029" fill="#e1e1e1" d="M 584.5,683.5 C 581.054,684.687 577.387,685.354 573.5,685.5C 576.684,683.586 580.351,682.92 584.5,683.5 Z"/></g>
<g><path style="opacity:0.077" fill="#efefef" d="M 571.5,685.5 C 568.689,686.475 565.689,687.142 562.5,687.5C 562.611,686.883 562.944,686.383 563.5,686C 566.146,685.503 568.813,685.336 571.5,685.5 Z"/></g>
<g><path style="opacity:0.029" fill="#e3e3e3" d="M 560.5,687.5 C 557.373,688.581 554.04,689.247 550.5,689.5C 550.611,688.883 550.944,688.383 551.5,688C 554.482,687.502 557.482,687.335 560.5,687.5 Z"/></g>
<g><path style="opacity:0.015" fill="#e0e0e0" d="M 275.5,689.5 C 278.518,689.335 281.518,689.502 284.5,690C 285.416,690.278 286.082,690.778 286.5,691.5C 282.542,691.749 278.876,691.082 275.5,689.5 Z"/></g>
<g><path style="opacity:0.012" fill="#f7f7f7" d="M 546.5,689.5 C 543.344,690.434 540.011,691.101 536.5,691.5C 536.611,690.883 536.944,690.383 537.5,690C 540.482,689.502 543.482,689.335 546.5,689.5 Z"/></g>
<g><path style="opacity:0.139" fill="#8a8a8a" d="M 376.5,696.5 C 388.505,696.333 400.505,696.5 412.5,697C 413.056,697.383 413.389,697.883 413.5,698.5C 400.991,698.233 388.657,697.566 376.5,696.5 Z"/></g>
<g><path style="opacity:0.09" fill="#e1e1e1" d="M 684.5,698.5 C 683.329,699.345 681.995,700.011 680.5,700.5C 681.183,698.824 682.517,698.157 684.5,698.5 Z"/></g>
<g><path style="opacity:0.436" fill="#e8e8e8" d="M 704.5,694.5 C 706.017,694.511 707.184,695.177 708,696.5C 708.527,699.581 709.36,702.581 710.5,705.5C 710.167,706.5 709.833,707.5 709.5,708.5C 700.08,714.801 689.747,718.801 678.5,720.5C 678.5,721.5 678.5,722.5 678.5,723.5C 656.361,731.136 634.028,738.303 611.5,745C 604.581,746.98 597.581,748.48 590.5,749.5C 590.5,750.5 590.5,751.5 590.5,752.5C 563.328,759.021 535.995,765.354 508.5,771.5C 489.966,775.1 471.299,777.767 452.5,779.5C 451.975,780.192 451.308,780.692 450.5,781C 427.167,781.667 403.833,781.667 380.5,781C 379.692,780.692 379.025,780.192 378.5,779.5C 350.137,777.11 323.137,769.777 297.5,757.5C 294.997,755.416 292.331,753.583 289.5,752C 288.252,750.6 287.252,749.1 286.5,747.5C 297.059,754.614 308.392,760.447 320.5,765C 369.653,780.38 419.653,783.713 470.5,775C 551.905,760.92 630.905,738.42 707.5,707.5C 707.593,703.068 706.593,698.735 704.5,694.5 Z"/></g>
<g><path style="opacity:0.337" fill="#efefef" d="M 184.5,703.5 C 188.704,711.533 195.037,717.367 203.5,721C 225.483,728.75 248.15,733.083 271.5,734C 276.695,738.366 281.695,742.866 286.5,747.5C 281.027,744.625 276.027,740.958 271.5,736.5C 247.071,735.345 223.405,730.845 200.5,723C 196.056,719.732 191.723,716.232 187.5,712.5C 185.664,709.748 184.664,706.748 184.5,703.5 Z"/></g>
<g><path style="opacity:0.366" fill="#e7e7e7" d="M 663.5,646.5 C 670.378,649.873 675.878,654.873 680,661.5C 681.496,669.36 680.329,676.693 676.5,683.5C 674.126,685.539 672.126,687.872 670.5,690.5C 667.136,692.911 663.803,695.411 660.5,698C 656.859,700.592 652.859,702.425 648.5,703.5C 644.683,705.386 641.35,707.719 638.5,710.5C 637.791,711.404 636.791,711.737 635.5,711.5C 632.976,710.2 630.309,710.2 627.5,711.5C 626.007,712.141 625.007,713.141 624.5,714.5C 616.805,716.06 609.138,717.727 601.5,719.5C 599.359,718.837 597.025,718.503 594.5,718.5C 581.977,720.049 569.644,722.049 557.5,724.5C 546.515,725.332 535.515,725.832 524.5,726C 501.496,728.289 478.496,730.623 455.5,733C 421.515,734.557 387.515,735.723 353.5,736.5C 340.141,736.844 327.141,737.844 314.5,739.5C 309.055,738.926 303.721,737.926 298.5,736.5C 316.167,735.833 333.833,735.167 351.5,734.5C 431.387,731.701 511.054,725.868 590.5,717C 608.707,714.365 626.374,709.698 643.5,703C 657.013,697.809 667.847,689.309 676,677.5C 679.101,671.093 679.101,664.76 676,658.5C 671.938,654.269 667.771,650.269 663.5,646.5 Z"/></g>
<g><path style="opacity:0.745" fill="#858585" d="M 351.5,734.5 C 333.833,735.167 316.167,735.833 298.5,736.5C 296.146,736.162 293.813,735.662 291.5,735C 311.497,734.5 331.497,734.333 351.5,734.5 Z"/></g>
<g><path style="opacity:0.114" fill="#676767" d="M 243.5,773.5 C 253.987,772.506 264.654,772.172 275.5,772.5C 275.5,773.5 275.5,774.5 275.5,775.5C 265.09,773.56 254.423,772.893 243.5,773.5 Z"/></g>
<g><path style="opacity:0.984" fill="#060606" d="M 243.5,773.5 C 254.423,772.893 265.09,773.56 275.5,775.5C 275.667,834.501 275.5,893.501 275,952.5C 275.528,973.269 268.028,990.436 252.5,1004C 244.416,1009.79 235.916,1014.96 227,1019.5C 225.281,1016.71 223.115,1014.38 220.5,1012.5C 218.518,1009.19 216.185,1006.19 213.5,1003.5C 213.5,1001.83 213.5,1000.17 213.5,998.5C 214.5,998.5 215.5,998.5 216.5,998.5C 217.5,998.167 218.167,997.5 218.5,996.5C 222.074,994.896 225.074,992.562 227.5,989.5C 229.144,989.19 230.144,988.19 230.5,986.5C 231.906,986.027 232.573,985.027 232.5,983.5C 232.782,982.222 233.449,981.222 234.5,980.5C 235.674,979.486 236.34,978.153 236.5,976.5C 237.11,975.609 237.443,974.609 237.5,973.5C 238.345,972.329 239.011,970.995 239.5,969.5C 241.553,956.612 242.553,943.612 242.5,930.5C 241.236,888.153 241.236,845.819 242.5,803.5C 243.494,793.681 243.827,783.681 243.5,773.5 Z"/></g>
<g><path style="opacity:0.528" fill="#ebebeb" d="M 275.5,772.5 C 276.315,773.429 277.148,774.429 278,775.5C 278.667,837.167 278.667,898.833 278,960.5C 276.039,969.44 273.706,978.44 271,987.5C 266.424,995.244 260.591,1001.91 253.5,1007.5C 246.723,1011.96 240.057,1016.46 233.5,1021C 226.416,1022.42 222.083,1019.59 220.5,1012.5C 223.115,1014.38 225.281,1016.71 227,1019.5C 235.916,1014.96 244.416,1009.79 252.5,1004C 268.028,990.436 275.528,973.269 275,952.5C 275.5,893.501 275.667,834.501 275.5,775.5C 275.5,774.5 275.5,773.5 275.5,772.5 Z"/></g>
<g><path style="opacity:0.024" fill="#717171" d="M 243.5,773.5 C 243.827,783.681 243.494,793.681 242.5,803.5C 242.657,795.479 242.323,787.479 241.5,779.5C 241.667,777.833 241.833,776.167 242,774.5C 242.383,773.944 242.883,773.611 243.5,773.5 Z"/></g>
<g><path style="opacity:0.976" fill="#030303" d="M 631.5,820.5 C 635.358,821.294 639.358,821.96 643.5,822.5C 644.5,822.5 645.5,822.5 646.5,822.5C 648.214,823.738 650.214,824.405 652.5,824.5C 664.771,829.606 672.604,838.606 676,851.5C 676.5,890.165 676.667,928.832 676.5,967.5C 669.111,968.065 661.778,968.065 654.5,967.5C 654.167,966.5 653.5,965.833 652.5,965.5C 651.545,963.254 650.878,960.921 650.5,958.5C 638.542,961.763 626.542,964.929 614.5,968C 595.681,973.446 580.348,968.613 568.5,953.5C 568.5,953.167 568.5,952.833 568.5,952.5C 568.068,951.29 567.401,950.29 566.5,949.5C 566.5,949.167 566.5,948.833 566.5,948.5C 566.204,946.597 565.537,944.93 564.5,943.5C 564.5,943.167 564.5,942.833 564.5,942.5C 563.235,934.147 563.235,925.813 564.5,917.5C 564.5,916.833 564.5,916.167 564.5,915.5C 565.345,914.329 566.011,912.995 566.5,911.5C 566.5,911.167 566.5,910.833 566.5,910.5C 567.401,909.71 568.068,908.71 568.5,907.5C 570.413,903.584 573.08,900.251 576.5,897.5C 578.54,895.823 580.54,894.156 582.5,892.5C 582.833,892.5 583.167,892.5 583.5,892.5C 585.153,892.34 586.486,891.674 587.5,890.5C 588.167,890.5 588.833,890.5 589.5,890.5C 591.027,890.573 592.027,889.906 592.5,888.5C 593.167,888.5 593.833,888.5 594.5,888.5C 595.995,888.011 597.329,887.345 598.5,886.5C 599.5,886.5 600.5,886.5 601.5,886.5C 603.306,885.976 604.972,885.309 606.5,884.5C 607.167,884.5 607.833,884.5 608.5,884.5C 610.786,884.405 612.786,883.738 614.5,882.5C 624.811,880.383 635.144,878.383 645.5,876.5C 645.5,872.167 645.5,867.833 645.5,863.5C 644.71,853.88 639.71,847.713 630.5,845C 621.167,844.333 611.833,844.333 602.5,845C 593.187,846.696 583.853,848.196 574.5,849.5C 573.371,844.004 572.037,838.671 570.5,833.5C 570.856,831.81 571.856,830.81 573.5,830.5C 575.786,830.405 577.786,829.738 579.5,828.5C 579.833,828.5 580.167,828.5 580.5,828.5C 582.403,828.204 584.07,827.537 585.5,826.5C 586.167,826.5 586.833,826.5 587.5,826.5C 589.306,825.976 590.972,825.309 592.5,824.5C 605.259,821.265 618.259,819.932 631.5,820.5 Z M 645.5,922.5 C 644.987,926.546 644.154,930.546 643,934.5C 641.595,935.731 640.429,937.064 639.5,938.5C 637.821,938.285 636.821,938.952 636.5,940.5C 634.821,940.285 633.821,940.952 633.5,942.5C 633.167,942.5 632.833,942.5 632.5,942.5C 630.302,942.12 628.635,942.787 627.5,944.5C 621.281,946.006 614.948,946.673 608.5,946.5C 607.075,944.747 605.409,943.08 603.5,941.5C 602.311,940.571 600.978,940.238 599.5,940.5C 599.54,937.575 598.707,934.909 597,932.5C 594.717,923.722 596.884,916.389 603.5,910.5C 616.359,906.163 629.526,903.497 643,902.5C 643.414,902.957 643.914,903.291 644.5,903.5C 645.496,909.798 645.83,916.132 645.5,922.5 Z"/></g>
<g><path style="opacity:0.152" fill="#c8c8c8" d="M 631.5,820.5 C 635.971,819.911 639.971,820.577 643.5,822.5C 639.358,821.96 635.358,821.294 631.5,820.5 Z"/></g>
<g><path style="opacity:0.175" fill="#a9a9a9" d="M 372.5,822.5 C 366.833,822.5 361.167,822.5 355.5,822.5C 357.915,821.186 360.748,820.519 364,820.5C 367.252,820.519 370.085,821.186 372.5,822.5 Z"/></g>
<g><path style="opacity:0.974" fill="#040404" d="M 355.5,822.5 C 361.167,822.5 366.833,822.5 372.5,822.5C 374.5,822.5 376.5,822.5 378.5,822.5C 380.599,823.612 382.933,824.279 385.5,824.5C 385.833,824.5 386.167,824.5 386.5,824.5C 399.056,829.924 406.223,839.591 408,853.5C 409.695,891.169 409.862,928.835 408.5,966.5C 400.747,966.799 393.08,966.466 385.5,965.5C 385.5,964.833 385.5,964.167 385.5,963.5C 385.011,962.005 384.345,960.671 383.5,959.5C 383.468,957.433 382.468,956.1 380.5,955.5C 370.5,962.497 359.5,967.331 347.5,970C 332.917,972.13 319.584,969.13 307.5,961C 304.696,957.855 302.03,954.688 299.5,951.5C 299.5,951.167 299.5,950.833 299.5,950.5C 299.011,949.005 298.345,947.671 297.5,946.5C 297.405,944.214 296.738,942.214 295.5,940.5C 295.5,939.833 295.5,939.167 295.5,938.5C 294.873,933.859 294.54,929.193 294.5,924.5C 295.301,922.958 295.634,921.292 295.5,919.5C 296.285,917.626 296.952,915.626 297.5,913.5C 297.5,913.167 297.5,912.833 297.5,912.5C 298.401,911.71 299.068,910.71 299.5,909.5C 299.263,908.209 299.596,907.209 300.5,906.5C 301.906,906.027 302.573,905.027 302.5,903.5C 303.5,903.167 304.167,902.5 304.5,901.5C 305.5,901.167 306.167,900.5 306.5,899.5C 308.144,899.19 309.144,898.19 309.5,896.5C 311.027,896.573 312.027,895.906 312.5,894.5C 312.833,894.5 313.167,894.5 313.5,894.5C 314.71,894.068 315.71,893.401 316.5,892.5C 318.153,892.34 319.486,891.674 320.5,890.5C 321.167,890.5 321.833,890.5 322.5,890.5C 323.71,890.068 324.71,889.401 325.5,888.5C 326.167,888.5 326.833,888.5 327.5,888.5C 329.306,887.976 330.972,887.309 332.5,886.5C 333.167,886.5 333.833,886.5 334.5,886.5C 337.067,886.279 339.401,885.612 341.5,884.5C 342.167,884.5 342.833,884.5 343.5,884.5C 345.403,884.204 347.07,883.537 348.5,882.5C 349.833,882.5 351.167,882.5 352.5,882.5C 354.403,882.204 356.07,881.537 357.5,880.5C 360.059,880.802 362.393,880.468 364.5,879.5C 368.833,879.5 373.167,879.5 377.5,879.5C 377.5,878.5 377.5,877.5 377.5,876.5C 378.477,873.713 378.81,870.713 378.5,867.5C 377.914,853.412 370.581,845.579 356.5,844C 351.167,843.333 345.833,843.333 340.5,844C 329.324,845.469 318.324,847.635 307.5,850.5C 307.737,849.209 307.404,848.209 306.5,847.5C 305.085,842.921 304.085,838.255 303.5,833.5C 303.856,831.81 304.856,830.81 306.5,830.5C 307.71,830.068 308.71,829.401 309.5,828.5C 310.167,828.5 310.833,828.5 311.5,828.5C 313.786,828.405 315.786,827.738 317.5,826.5C 329.975,823.597 342.641,822.264 355.5,822.5 Z M 377.5,904.5 C 378.802,913.108 378.802,921.774 377.5,930.5C 376.157,933.819 374.157,936.486 371.5,938.5C 370.167,938.5 369.5,939.167 369.5,940.5C 367.5,941.167 365.5,941.833 363.5,942.5C 361.821,942.285 360.821,942.952 360.5,944.5C 356.715,944.631 353.048,945.298 349.5,946.5C 331.14,944.488 324.806,934.488 330.5,916.5C 333.479,912.677 337.146,909.844 341.5,908C 348.459,906.393 355.459,905.06 362.5,904C 367.584,903.222 372.584,903.389 377.5,904.5 Z"/></g>
<g><path style="opacity:0.153" fill="#cdcdcd" d="M 378.5,822.5 C 381.388,821.99 383.721,822.656 385.5,824.5C 382.933,824.279 380.599,823.612 378.5,822.5 Z"/></g>
<g><path style="opacity:0.243" fill="#d3d3d3" d="M 427.5,823.5 C 431.653,822.834 435.987,822.501 440.5,822.5C 445.222,822.508 449.555,823.175 453.5,824.5C 444.874,823.589 436.208,823.255 427.5,823.5 Z"/></g>
<g><path style="opacity:0.075" fill="#ebebeb" d="M 646.5,822.5 C 649.082,822.025 651.082,822.692 652.5,824.5C 650.214,824.405 648.214,823.738 646.5,822.5 Z"/></g>
<g><path style="opacity:0.98" fill="#030303" d="M 427.5,823.5 C 436.208,823.255 444.874,823.589 453.5,824.5C 458.918,827.951 462.418,832.951 464,839.5C 472.798,869.56 481.798,899.56 491,929.5C 493.045,931.043 494.545,930.71 495.5,928.5C 497.508,917.449 500.174,906.449 503.5,895.5C 504.813,892.002 505.813,888.336 506.5,884.5C 508.007,876.804 509.674,869.137 511.5,861.5C 512.537,860.07 513.204,858.403 513.5,856.5C 514.563,848.922 516.23,841.589 518.5,834.5C 519.371,831.997 520.037,829.33 520.5,826.5C 520.782,825.222 521.449,824.222 522.5,823.5C 532.5,823.5 542.5,823.5 552.5,823.5C 542.355,870.751 528.188,916.751 510,961.5C 508.127,963.709 505.96,965.542 503.5,967C 494.831,967.751 486.165,968.084 477.5,968C 471.194,964.864 466.86,960.031 464.5,953.5C 464.5,953.167 464.5,952.833 464.5,952.5C 463.458,948.303 462.125,944.303 460.5,940.5C 459.539,938.735 459.205,936.735 459.5,934.5C 458.976,932.694 458.309,931.028 457.5,929.5C 457.405,927.214 456.738,925.214 455.5,923.5C 455.074,919.573 454.074,915.907 452.5,912.5C 452.5,912.167 452.5,911.833 452.5,911.5C 452.204,909.597 451.537,907.93 450.5,906.5C 450.5,906.167 450.5,905.833 450.5,905.5C 449.739,901.216 448.405,897.216 446.5,893.5C 445.699,891.958 445.366,890.292 445.5,888.5C 445.204,886.597 444.537,884.93 443.5,883.5C 443.5,883.167 443.5,882.833 443.5,882.5C 443.125,880.302 442.458,878.302 441.5,876.5C 441.072,873.215 440.072,870.215 438.5,867.5C 438.5,866.833 438.5,866.167 438.5,865.5C 438.204,863.597 437.537,861.93 436.5,860.5C 436.5,860.167 436.5,859.833 436.5,859.5C 436.204,857.597 435.537,855.93 434.5,854.5C 434.5,854.167 434.5,853.833 434.5,853.5C 434.405,851.214 433.738,849.214 432.5,847.5C 431.549,846.081 431.216,844.415 431.5,842.5C 431.011,841.005 430.345,839.671 429.5,838.5C 429.5,837.833 429.5,837.167 429.5,836.5C 428.09,832.603 427.09,828.603 426.5,824.5C 427.167,824.5 427.5,824.167 427.5,823.5 Z"/></g>
<g><path style="opacity:0.094" fill="#e6e6e6" d="M 592.5,824.5 C 590.972,825.309 589.306,825.976 587.5,826.5C 588.552,824.744 590.219,824.077 592.5,824.5 Z"/></g>
<g><path style="opacity:0.076" fill="#dbdbdb" d="M 317.5,826.5 C 315.786,827.738 313.786,828.405 311.5,828.5C 312.918,826.692 314.918,826.025 317.5,826.5 Z"/></g>
<g><path style="opacity:0.025" fill="#e8e8e8" d="M 585.5,826.5 C 584.07,827.537 582.403,828.204 580.5,828.5C 581.552,826.744 583.219,826.077 585.5,826.5 Z"/></g>
<g><path style="opacity:0.016" fill="#dadada" d="M 520.5,826.5 C 520.037,829.33 519.371,831.997 518.5,834.5C 518.337,832.143 518.503,829.81 519,827.5C 519.383,826.944 519.883,826.611 520.5,826.5 Z"/></g>
<g><path style="opacity:0.067" fill="#e8e8e8" d="M 309.5,828.5 C 308.71,829.401 307.71,830.068 306.5,830.5C 306.821,828.952 307.821,828.285 309.5,828.5 Z"/></g>
<g><path style="opacity:0.224" fill="#ebebeb" d="M 579.5,828.5 C 577.786,829.738 575.786,830.405 573.5,830.5C 574.918,828.692 576.918,828.025 579.5,828.5 Z"/></g>
<g><path style="opacity:0.157" fill="#d5d5d5" d="M 426.5,824.5 C 427.09,828.603 428.09,832.603 429.5,836.5C 428.057,835.665 427.057,834.332 426.5,832.5C 425.2,829.691 425.2,827.024 426.5,824.5 Z"/></g>
<g><path style="opacity:0.08" fill="#e7e7e7" d="M 303.5,833.5 C 304.085,838.255 305.085,842.921 306.5,847.5C 304.903,846.263 303.737,844.596 303,842.5C 302.195,839.304 302.362,836.304 303.5,833.5 Z"/></g>
<g><path style="opacity:0.018" fill="#d7d7d7" d="M 429.5,838.5 C 430.345,839.671 431.011,841.005 431.5,842.5C 429.824,841.817 429.157,840.483 429.5,838.5 Z"/></g>
<g><path style="opacity:0.361" fill="#e3e3e3" d="M 378.5,867.5 C 376.709,863.444 375.042,859.111 373.5,854.5C 371.298,851.297 368.298,849.297 364.5,848.5C 346.622,846.377 329.122,848.044 312,853.5C 310.2,852.622 308.367,851.955 306.5,851.5C 306.5,850.167 306.5,848.833 306.5,847.5C 307.404,848.209 307.737,849.209 307.5,850.5C 318.324,847.635 329.324,845.469 340.5,844C 345.833,843.333 351.167,843.333 356.5,844C 370.581,845.579 377.914,853.412 378.5,867.5 Z"/></g>
<g><path style="opacity:0.37" fill="#e9e9e9" d="M 570.5,833.5 C 572.037,838.671 573.371,844.004 574.5,849.5C 583.853,848.196 593.187,846.696 602.5,845C 611.833,844.333 621.167,844.333 630.5,845C 639.71,847.713 644.71,853.88 645.5,863.5C 640.613,850.21 630.946,844.877 616.5,847.5C 602.18,849.074 587.847,850.407 573.5,851.5C 572.121,846.359 570.788,841.193 569.5,836C 569.528,834.93 569.861,834.097 570.5,833.5 Z"/></g>
<g><path style="opacity:0.075" fill="#cccccc" d="M 432.5,847.5 C 433.738,849.214 434.405,851.214 434.5,853.5C 432.692,852.082 432.025,850.082 432.5,847.5 Z"/></g>
<g><path style="opacity:0.512" fill="#ebebeb" d="M 652.5,824.5 C 666.935,827.772 675.435,836.772 678,851.5C 678.667,890.167 678.667,928.833 678,967.5C 672.76,969.339 667.26,970.673 661.5,971.5C 658.102,971.727 655.768,970.394 654.5,967.5C 661.778,968.065 669.111,968.065 676.5,967.5C 676.667,928.832 676.5,890.165 676,851.5C 672.604,838.606 664.771,829.606 652.5,824.5 Z"/></g>
<g><path style="opacity:0.306" fill="#efefef" d="M 453.5,824.5 C 456.044,824.104 458.211,824.771 460,826.5C 462.271,830.044 464.271,833.71 466,837.5C 469.468,849.074 472.635,860.74 475.5,872.5C 482.261,890.891 487.928,909.558 492.5,928.5C 493.5,928.5 494.5,928.5 495.5,928.5C 494.545,930.71 493.045,931.043 491,929.5C 481.798,899.56 472.798,869.56 464,839.5C 462.418,832.951 458.918,827.951 453.5,824.5 Z"/></g>
<g><path style="opacity:0.125" fill="#d9d9d9" d="M 434.5,854.5 C 435.537,855.93 436.204,857.597 436.5,859.5C 434.744,858.448 434.077,856.781 434.5,854.5 Z"/></g>
<g><path style="opacity:0.01" fill="#d3d3d3" d="M 513.5,856.5 C 513.204,858.403 512.537,860.07 511.5,861.5C 511.12,859.302 511.787,857.635 513.5,856.5 Z"/></g>
<g><path style="opacity:0.204" fill="#c7c7c7" d="M 436.5,860.5 C 437.537,861.93 438.204,863.597 438.5,865.5C 436.744,864.448 436.077,862.781 436.5,860.5 Z"/></g>
<g><path style="opacity:0.546" fill="#f2f2f2" d="M 386.5,824.5 C 397.872,826.549 405.206,833.216 408.5,844.5C 411.024,868.474 412.024,892.641 411.5,917C 411.167,933.833 410.833,950.667 410.5,967.5C 406.687,968.762 402.687,969.429 398.5,969.5C 394.435,969.489 390.768,968.822 387.5,967.5C 394.687,967.825 401.687,967.491 408.5,966.5C 409.862,928.835 409.695,891.169 408,853.5C 406.223,839.591 399.056,829.924 386.5,824.5 Z"/></g>
<g><path style="opacity:0.033" fill="#e3e3e3" d="M 438.5,867.5 C 440.072,870.215 441.072,873.215 441.5,876.5C 439.149,874.159 438.149,871.159 438.5,867.5 Z"/></g>
<g><path style="opacity:0.14" fill="#f0f0f0" d="M 377.5,876.5 C 377.5,877.5 377.5,878.5 377.5,879.5C 373.167,879.5 368.833,879.5 364.5,879.5C 368.95,879.036 373.283,878.036 377.5,876.5 Z"/></g>
<g><path style="opacity:0.165" fill="#d8d8d8" d="M 441.5,876.5 C 442.458,878.302 443.125,880.302 443.5,882.5C 441.692,881.082 441.025,879.082 441.5,876.5 Z"/></g>
<g><path style="opacity:0.145" fill="#d0d0d0" d="M 357.5,880.5 C 356.07,881.537 354.403,882.204 352.5,882.5C 353.552,880.744 355.219,880.077 357.5,880.5 Z"/></g>
<g><path style="opacity:0.039" fill="#dddddd" d="M 348.5,882.5 C 347.07,883.537 345.403,884.204 343.5,884.5C 344.552,882.744 346.219,882.077 348.5,882.5 Z"/></g>
<g><path style="opacity:0.114" fill="#e0e0e0" d="M 614.5,882.5 C 612.786,883.738 610.786,884.405 608.5,884.5C 609.918,882.692 611.918,882.025 614.5,882.5 Z"/></g>
<g><path style="opacity:0.021" fill="#cfcfcf" d="M 341.5,884.5 C 339.401,885.612 337.067,886.279 334.5,886.5C 336.279,884.656 338.612,883.99 341.5,884.5 Z"/></g>
<g><path style="opacity:0.106" fill="#e6e6e6" d="M 606.5,884.5 C 604.972,885.309 603.306,885.976 601.5,886.5C 602.552,884.744 604.219,884.077 606.5,884.5 Z"/></g>
<g><path style="opacity:0.161" fill="#d6d6d6" d="M 443.5,883.5 C 444.537,884.93 445.204,886.597 445.5,888.5C 443.744,887.448 443.077,885.781 443.5,883.5 Z"/></g>
<g><path style="opacity:0.021" fill="#f2f2f2" d="M 332.5,886.5 C 330.972,887.309 329.306,887.976 327.5,888.5C 328.552,886.744 330.219,886.077 332.5,886.5 Z"/></g>
<g><path style="opacity:0.027" fill="#ededed" d="M 598.5,886.5 C 597.329,887.345 595.995,888.011 594.5,888.5C 595.183,886.824 596.517,886.157 598.5,886.5 Z"/></g>
<g><path style="opacity:0.041" fill="#eaeaea" d="M 325.5,888.5 C 324.71,889.401 323.71,890.068 322.5,890.5C 322.821,888.952 323.821,888.285 325.5,888.5 Z"/></g>
<g><path style="opacity:0.333" fill="#7b7b7b" d="M 592.5,888.5 C 592.027,889.906 591.027,890.573 589.5,890.5C 589.821,888.952 590.821,888.285 592.5,888.5 Z"/></g>
<g><path style="opacity:0.106" fill="#dddddd" d="M 320.5,890.5 C 319.486,891.674 318.153,892.34 316.5,892.5C 317.287,890.896 318.62,890.229 320.5,890.5 Z"/></g>
<g><path style="opacity:0.184" fill="#959595" d="M 587.5,890.5 C 586.486,891.674 585.153,892.34 583.5,892.5C 584.287,890.896 585.62,890.229 587.5,890.5 Z"/></g>
<g><path style="opacity:0.025" fill="#dbdbdb" d="M 316.5,892.5 C 315.71,893.401 314.71,894.068 313.5,894.5C 313.821,892.952 314.821,892.285 316.5,892.5 Z"/></g>
<g><path style="opacity:0.01" fill="#dadada" d="M 582.5,892.5 C 580.54,894.156 578.54,895.823 576.5,897.5C 577.268,894.438 579.268,892.772 582.5,892.5 Z"/></g>
<g><path style="opacity:0.361" fill="#a5a5a5" d="M 506.5,884.5 C 505.813,888.336 504.813,892.002 503.5,895.5C 503.572,892.807 503.905,890.14 504.5,887.5C 504.64,885.97 505.307,884.97 506.5,884.5 Z"/></g>
<g><path style="opacity:0.114" fill="#b2b2b2" d="M 312.5,894.5 C 312.027,895.906 311.027,896.573 309.5,896.5C 309.973,895.094 310.973,894.427 312.5,894.5 Z"/></g>
<g><path style="opacity:0.027" fill="#d9d9d9" d="M 446.5,893.5 C 448.405,897.216 449.739,901.216 450.5,905.5C 448.905,903.889 447.739,901.889 447,899.5C 446.505,897.527 446.338,895.527 446.5,893.5 Z"/></g>
<g><path style="opacity:0.02" fill="#afafaf" d="M 306.5,899.5 C 306.167,900.5 305.5,901.167 304.5,901.5C 304.5,900.167 305.167,899.5 306.5,899.5 Z"/></g>
<g><path style="opacity:0.41" fill="#e6e6e6" d="M 377.5,904.5 C 372.584,903.389 367.584,903.222 362.5,904C 355.459,905.06 348.459,906.393 341.5,908C 337.146,909.844 333.479,912.677 330.5,916.5C 324.806,934.488 331.14,944.488 349.5,946.5C 334.289,947.632 326.622,940.299 326.5,924.5C 326.638,914.717 331.304,908.217 340.5,905C 352.698,902.267 365.032,900.434 377.5,899.5C 377.5,901.167 377.5,902.833 377.5,904.5 Z"/></g>
<g><path style="opacity:0.051" fill="#d8d8d8" d="M 304.5,901.5 C 304.167,902.5 303.5,903.167 302.5,903.5C 302.5,902.167 303.167,901.5 304.5,901.5 Z"/></g>
<g><path style="opacity:0.39" fill="#dddddd" d="M 645.5,922.5 C 645.83,916.132 645.496,909.798 644.5,903.5C 643.914,903.291 643.414,902.957 643,902.5C 629.526,903.497 616.359,906.163 603.5,910.5C 596.884,916.389 594.717,923.722 597,932.5C 598.707,934.909 599.54,937.575 599.5,940.5C 595.174,936.54 593.174,931.54 593.5,925.5C 593.851,913.646 599.851,906.479 611.5,904C 623.083,901.798 634.75,900.298 646.5,899.5C 646.825,907.352 646.492,915.018 645.5,922.5 Z"/></g>
<g><path style="opacity:0.402" fill="#eaeaea" d="M 522.5,823.5 C 532.658,822.341 542.992,822.175 553.5,823C 554.131,824.906 554.464,826.906 554.5,829C 547.222,858.274 539.389,887.441 531,916.5C 529.518,919.464 528.018,922.464 526.5,925.5C 522.69,936.465 518.856,947.465 515,958.5C 513.46,962.213 511.293,965.547 508.5,968.5C 505.286,969.044 502.286,970.044 499.5,971.5C 497.883,970.358 496.05,969.691 494,969.5C 481.297,973.819 471.631,970.152 465,958.5C 464.506,956.866 464.34,955.199 464.5,953.5C 466.86,960.031 471.194,964.864 477.5,968C 486.165,968.084 494.831,967.751 503.5,967C 505.96,965.542 508.127,963.709 510,961.5C 528.188,916.751 542.355,870.751 552.5,823.5C 542.5,823.5 532.5,823.5 522.5,823.5 Z"/></g>
<g><path style="opacity:0.016" fill="#bdbdbd" d="M 302.5,903.5 C 302.573,905.027 301.906,906.027 300.5,906.5C 300.427,904.973 301.094,903.973 302.5,903.5 Z"/></g>
<g><path style="opacity:0.029" fill="#d2d2d2" d="M 568.5,907.5 C 568.068,908.71 567.401,909.71 566.5,910.5C 566.285,908.821 566.952,907.821 568.5,907.5 Z"/></g>
<g><path style="opacity:0.114" fill="#d3d3d3" d="M 450.5,906.5 C 451.537,907.93 452.204,909.597 452.5,911.5C 450.744,910.448 450.077,908.781 450.5,906.5 Z"/></g>
<g><path style="opacity:0.063" fill="#cccccc" d="M 299.5,909.5 C 299.068,910.71 298.401,911.71 297.5,912.5C 297.285,910.821 297.952,909.821 299.5,909.5 Z"/></g>
<g><path style="opacity:0.024" fill="#e1e1e1" d="M 566.5,911.5 C 566.011,912.995 565.345,914.329 564.5,915.5C 564.157,913.517 564.824,912.183 566.5,911.5 Z"/></g>
<g><path style="opacity:0.025" fill="#d9d9d9" d="M 297.5,913.5 C 296.952,915.626 296.285,917.626 295.5,919.5C 295.025,916.918 295.692,914.918 297.5,913.5 Z"/></g>
<g><path style="opacity:0.026" fill="#e7e7e7" d="M 452.5,912.5 C 454.074,915.907 455.074,919.573 455.5,923.5C 454.883,923.389 454.383,923.056 454,922.5C 453.174,919.207 452.674,915.874 452.5,912.5 Z"/></g>
<g><path style="opacity:0.011" fill="#ededed" d="M 294.5,924.5 C 294.54,929.193 294.873,933.859 295.5,938.5C 294.027,935.983 293.36,933.15 293.5,930C 293.506,927.967 293.839,926.134 294.5,924.5 Z"/></g>
<g><path style="opacity:0.071" fill="#dedede" d="M 455.5,923.5 C 456.738,925.214 457.405,927.214 457.5,929.5C 455.72,928.01 455.054,926.01 455.5,923.5 Z"/></g>
<g><path style="opacity:0.067" fill="#b4b4b4" d="M 564.5,917.5 C 563.235,925.813 563.235,934.147 564.5,942.5C 563.176,938.893 562.509,934.893 562.5,930.5C 562.667,926.5 562.833,922.5 563,918.5C 563.383,917.944 563.883,917.611 564.5,917.5 Z"/></g>
<g><path style="opacity:0.129" fill="#c7c7c7" d="M 457.5,929.5 C 458.309,931.028 458.976,932.694 459.5,934.5C 457.744,933.448 457.077,931.781 457.5,929.5 Z"/></g>
<g><path style="opacity:0.09" fill="#dcdcdc" d="M 371.5,938.5 C 371.167,939.5 370.5,940.167 369.5,940.5C 369.5,939.167 370.167,938.5 371.5,938.5 Z"/></g>
<g><path style="opacity:0.014" fill="#e6e6e6" d="M 639.5,938.5 C 638.71,939.401 637.71,940.068 636.5,940.5C 636.821,938.952 637.821,938.285 639.5,938.5 Z"/></g>
<g><path style="opacity:0.039" fill="#d8d8d8" d="M 636.5,940.5 C 635.71,941.401 634.71,942.068 633.5,942.5C 633.821,940.952 634.821,940.285 636.5,940.5 Z"/></g>
<g><path style="opacity:0.024" fill="#d3d3d3" d="M 460.5,940.5 C 462.125,944.303 463.458,948.303 464.5,952.5C 461.558,949.23 460.224,945.23 460.5,940.5 Z"/></g>
<g><path style="opacity:0.078" fill="#e3e3e3" d="M 599.5,940.5 C 600.978,940.238 602.311,940.571 603.5,941.5C 605.409,943.08 607.075,944.747 608.5,946.5C 604.63,945.737 601.63,943.737 599.5,940.5 Z"/></g>
<g><path style="opacity:0.037" fill="#d8d8d8" d="M 632.5,942.5 C 631.07,943.537 629.403,944.204 627.5,944.5C 628.635,942.787 630.302,942.12 632.5,942.5 Z"/></g>
<g><path style="opacity:0.09" fill="#e0e0e0" d="M 295.5,940.5 C 296.738,942.214 297.405,944.214 297.5,946.5C 295.692,945.082 295.025,943.082 295.5,940.5 Z"/></g>
<g><path style="opacity:0.251" fill="#7b7b7b" d="M 363.5,942.5 C 363.027,943.906 362.027,944.573 360.5,944.5C 360.821,942.952 361.821,942.285 363.5,942.5 Z"/></g>
<g><path style="opacity:0.078" fill="#dadada" d="M 564.5,943.5 C 565.537,944.93 566.204,946.597 566.5,948.5C 564.744,947.448 564.077,945.781 564.5,943.5 Z"/></g>
<g><path style="opacity:0.082" fill="#dddddd" d="M 297.5,946.5 C 298.345,947.671 299.011,949.005 299.5,950.5C 297.824,949.817 297.157,948.483 297.5,946.5 Z"/></g>
<g><path style="opacity:0.153" fill="#dedede" d="M 566.5,949.5 C 567.401,950.29 568.068,951.29 568.5,952.5C 566.952,952.179 566.285,951.179 566.5,949.5 Z"/></g>
<g><path style="opacity:0.382" fill="#e7e7e7" d="M 568.5,953.5 C 580.348,968.613 595.681,973.446 614.5,968C 626.542,964.929 638.542,961.763 650.5,958.5C 650.878,960.921 651.545,963.254 652.5,965.5C 650.743,964.708 649.409,963.375 648.5,961.5C 629.038,970.155 608.705,973.155 587.5,970.5C 580.282,968.466 574.449,964.466 570,958.5C 568.991,956.975 568.491,955.308 568.5,953.5 Z"/></g>
<g><path style="opacity:0.371" fill="#eeeeee" d="M 299.5,951.5 C 302.03,954.688 304.696,957.855 307.5,961C 319.584,969.13 332.917,972.13 347.5,970C 359.5,967.331 370.5,962.497 380.5,955.5C 382.468,956.1 383.468,957.433 383.5,959.5C 381.712,959.215 380.045,959.548 378.5,960.5C 374.223,963.794 369.556,966.461 364.5,968.5C 355.25,970.589 345.916,972.255 336.5,973.5C 323.053,973.124 311.72,968.124 302.5,958.5C 300.673,956.513 299.673,954.179 299.5,951.5 Z"/></g>
<g><path style="opacity:0.031" fill="#cfcfcf" d="M 383.5,959.5 C 384.345,960.671 385.011,962.005 385.5,963.5C 383.824,962.817 383.157,961.483 383.5,959.5 Z"/></g>
<g><path style="opacity:0.837" fill="#7a7a7a" d="M 385.5,965.5 C 393.08,966.466 400.747,966.799 408.5,966.5C 401.687,967.491 394.687,967.825 387.5,967.5C 386.167,967.5 385.5,966.833 385.5,965.5 Z"/></g>
<g><path style="opacity:0.035" fill="#ededed" d="M 652.5,965.5 C 653.5,965.833 654.167,966.5 654.5,967.5C 653.167,967.5 652.5,966.833 652.5,965.5 Z"/></g>
<g><path style="opacity:0.025" fill="#e7e7e7" d="M 239.5,969.5 C 239.011,970.995 238.345,972.329 237.5,973.5C 237.157,971.517 237.824,970.183 239.5,969.5 Z"/></g>
<g><path style="opacity:0.035" fill="#c1c1c1" d="M 236.5,976.5 C 236.34,978.153 235.674,979.486 234.5,980.5C 234.229,978.62 234.896,977.287 236.5,976.5 Z"/></g>
<g><path style="opacity:0.2" fill="#9a9a9a" d="M 232.5,983.5 C 232.573,985.027 231.906,986.027 230.5,986.5C 230.427,984.973 231.094,983.973 232.5,983.5 Z"/></g>
<g><path style="opacity:0.235" fill="#7f7f7f" d="M 230.5,986.5 C 230.144,988.19 229.144,989.19 227.5,989.5C 227.856,987.81 228.856,986.81 230.5,986.5 Z"/></g>
<g><path style="opacity:0.125" fill="#cfcfcf" d="M 218.5,996.5 C 218.167,997.5 217.5,998.167 216.5,998.5C 216.5,997.167 217.167,996.5 218.5,996.5 Z"/></g>
<g><path style="opacity:0.318" fill="#e7e7e7" d="M 213.5,1003.5 C 216.185,1006.19 218.518,1009.19 220.5,1012.5C 215.271,1011.73 212.937,1008.73 213.5,1003.5 Z"/></g>
</svg>
