<svg xmlns="http://www.w3.org/2000/svg" version="1.0" width="649.000000pt" height="673.000000pt" viewBox="0 0 649.000000 673.000000" preserveAspectRatio="xMidYMid meet">

<g transform="translate(0.000000,673.000000) scale(0.100000,-0.100000)" fill="#ffffff" stroke="none">
<path d="M1588 6699 c-48 -23 -66 -29 -143 -43 -37 -7 -54 -18 -48 -32 3 -8 9 -11 14 -8 5 3 7 9 4 13 -2 5 6 8 18 7 12 -1 28 5 36 12 10 10 16 11 21 2 6 -9 13 -9 28 -1 22 12 39 0 27 -19 -3 -5 -2 -10 4 -10 18 0 21 18 6 34 -9 9 -11 17 -5 21 5 3 10 2 10 -3 0 -5 10 -8 23 -7 12 2 21 8 19 15 -2 10 0 11 10 2 9 -7 19 -8 28 -2 8 6 27 10 42 10 15 0 29 4 32 9 6 10 -105 10 -126 0z" fill="#ffffff"/>
<path d="M1738 6701 c10 -6 4 -11 -20 -16 -18 -5 -40 -9 -48 -10 -30 -2 -41 -15 -30 -36 8 -14 15 -17 28 -10 9 4 23 6 30 4 7 -3 23 1 35 9 12 8 32 13 44 12 15 -1 20 3 16 13 -3 8 -14 13 -24 10 -12 -3 -16 0 -12 9 3 8 10 11 17 7 6 -3 8 -2 3 2 -4 5 -18 10 -30 12 -15 2 -18 0 -9 -6z m-14 -39 c3 -5 -1 -9 -9 -9 -8 0 -12 4 -9 9 3 4 7 8 9 8 2 0 6 -4 9 -8z" fill="#ffffff"/>
<path d="M1816 6659 c21 -23 21 -23 21 -5 0 8 -9 17 -20 20 -18 4 -18 4 -1 -15z" fill="#ffffff"/>
<path d="M1570 6648 c0 -4 6 -8 12 -8 7 0 2 -7 -10 -16 -21 -14 -48 -11 -38 5 3 4 -1 8 -9 8 -8 0 -12 -4 -9 -9 3 -4 1 -8 -5 -8 -5 0 -13 5 -16 10 -3 6 -12 10 -18 10 -7 0 -6 -4 3 -11 11 -8 6 -9 -20 -5 -25 4 -31 3 -20 -4 13 -8 12 -10 -3 -10 -10 0 -16 -4 -13 -9 3 -4 -6 -6 -20 -3 -24 4 -25 3 -15 -15 5 -11 7 -23 4 -27 -12 -12 13 -6 26 7 11 10 12 9 6 -3 -6 -12 -5 -13 6 -2 16 14 33 16 24 2 -3 -5 0 -7 9 -4 8 3 17 12 20 20 5 12 8 13 20 2 8 -7 12 -16 10 -19 -2 -3 4 -6 12 -6 10 0 11 4 4 11 -17 17 -12 23 18 22 16 0 26 4 25 12 -2 7 6 12 18 12 11 0 18 -4 15 -8 -3 -5 1 -9 9 -9 8 0 12 4 9 8 -2 4 2 10 8 12 10 4 10 7 0 15 -8 5 -12 13 -10 18 1 5 -9 9 -24 9 -16 1 -28 -3 -28 -7z m-35 -47 c3 -6 -4 -8 -16 -6 -30 6 -37 15 -11 15 11 0 23 -4 27 -9z" fill="#ffffff"/>
<path d="M1330 6631 c0 -5 -8 -8 -17 -7 -10 2 -21 -1 -24 -6 -4 -6 -19 -11 -35 -11 -16 -1 -32 -5 -35 -10 -3 -5 -20 -9 -37 -9 -23 -1 -30 -5 -29 -20 1 -10 9 -18 20 -18 10 0 16 4 12 9 -3 5 -1 12 4 15 5 4 12 2 15 -3 8 -12 48 -2 63 16 6 8 31 15 56 16 25 1 43 5 41 9 -3 4 3 5 12 1 11 -4 15 -2 12 7 -5 15 -58 26 -58 11z m-73 -47 c-3 -3 -12 -4 -19 -1 -8 3 -5 6 6 6 11 1 17 -2 13 -5z" fill="#ffffff"/>
<path d="M1672 6618 c-14 -14 -16 -38 -3 -38 6 0 13 5 17 12 4 7 3 8 -4 4 -16 -9 -15 7 0 22 7 7 10 12 7 12 -3 0 -10 -5 -17 -12z" fill="#ffffff"/>
<path d="M2295 6581 c16 -32 16 -34 -6 -57 -17 -18 -25 -21 -36 -13 -10 9 -13 8 -13 0 0 -7 -5 -9 -10 -6 -6 4 -17 1 -25 -5 -8 -6 -19 -9 -24 -6 -5 4 -13 2 -16 -4 -4 -6 -14 -10 -23 -8 -10 1 -28 -4 -41 -11 -19 -11 -22 -11 -15 1 5 8 -3 6 -20 -6 -16 -10 -25 -13 -22 -7 5 7 1 9 -8 5 -9 -3 -16 -11 -16 -18 0 -6 -5 -4 -10 4 -6 9 -10 11 -10 3 0 -7 -7 -10 -17 -6 -12 5 -14 3 -8 -7 6 -10 4 -10 -10 -3 -20 12 -58 5 -49 -8 3 -5 -2 -6 -10 -3 -9 4 -16 1 -16 -6 0 -9 -8 -6 -21 6 -22 19 -22 19 -11 -3 11 -19 10 -21 -15 -18 -15 1 -38 -1 -52 -6 -16 -7 -28 -5 -39 3 -13 11 -14 10 -4 -9 11 -20 10 -21 -14 -17 -15 3 -23 1 -20 -5 4 -6 -4 -8 -20 -5 -14 3 -23 1 -20 -4 3 -5 -10 -7 -29 -5 -18 2 -36 -1 -40 -7 -4 -6 1 -7 12 -4 14 5 15 4 4 -4 -8 -6 -25 -6 -42 -2 -31 9 -44 3 -29 -15 8 -9 3 -12 -20 -9 -16 2 -30 0 -30 -5 0 -5 -9 -7 -20 -4 -11 3 -26 0 -33 -6 -8 -6 -17 -8 -20 -4 -4 3 -13 0 -22 -7 -8 -7 -21 -10 -30 -7 -8 4 -17 1 -21 -5 -5 -7 -2 -8 6 -3 9 5 11 4 6 -3 -5 -9 -13 -9 -28 -1 -16 9 -19 8 -13 -2 6 -9 3 -10 -9 -6 -13 5 -17 3 -13 -7 4 -9 0 -12 -13 -9 -10 3 -28 -1 -40 -7 -12 -7 -20 -8 -17 -3 3 5 -5 9 -18 9 -13 0 -21 -4 -18 -9 3 -4 -4 -11 -16 -14 -11 -3 -18 -9 -15 -14 3 -5 1 -9 -5 -9 -5 0 -13 5 -16 11 -5 7 -14 6 -28 -3 -12 -7 -31 -13 -42 -13 -11 1 -22 -3 -26 -7 -3 -4 -20 -9 -38 -11 -18 -2 -36 -8 -39 -14 -4 -5 -29 -13 -57 -17 -27 -3 -53 -10 -58 -15 -6 -6 -19 -6 -35 0 -22 8 -23 8 -13 -5 11 -13 9 -16 -13 -22 -13 -3 -29 -3 -35 0 -5 3 -11 2 -13 -4 -3 -11 -39 -21 -80 -23 -15 0 -25 -4 -22 -9 3 -4 -6 -8 -19 -8 -14 0 -28 -7 -31 -17 -5 -12 -10 -13 -18 -5 -8 8 -14 7 -23 -5 -10 -13 -14 -13 -20 -3 -6 9 -4 11 5 5 9 -5 11 -4 6 3 -5 8 -13 9 -25 2 -10 -5 -21 -6 -25 -2 -4 3 -4 -1 0 -11 5 -13 2 -16 -12 -10 -13 5 -15 3 -9 -8 7 -11 6 -12 -7 -2 -8 7 -18 10 -21 7 -4 -4 -26 13 -50 37 -45 46 -102 92 -146 120 -14 9 -37 27 -51 40 -13 13 -25 22 -26 19 -1 -3 -6 -1 -11 4 -4 5 -3 6 4 2 6 -3 14 -2 18 4 3 5 12 10 18 10 7 0 6 -4 -3 -11 -12 -9 -12 -10 3 -5 10 3 21 6 23 6 3 0 2 5 -1 10 -8 13 16 13 35 -1 12 -9 11 -10 -5 -4 -16 5 -17 4 -8 -6 10 -10 17 -8 35 8 17 16 28 19 39 12 9 -5 26 -10 38 -12 11 -2 24 -6 27 -10 4 -4 17 -7 28 -6 12 0 15 3 8 6 -6 2 -9 9 -6 14 3 6 11 6 20 -2 7 -6 11 -15 9 -20 -7 -10 46 -1 61 12 6 5 14 6 17 2 4 -3 15 1 25 10 9 9 30 14 45 13 22 -3 27 1 27 18 0 16 -3 17 -9 7 -6 -9 -11 -10 -15 -2 -9 14 42 27 56 13 6 -6 6 -12 -3 -17 -8 -5 -10 -4 -5 3 4 7 2 12 -3 12 -6 0 -11 -7 -11 -15 0 -17 16 -20 25 -5 4 6 11 7 17 4 6 -4 8 -2 4 4 -3 6 -2 13 4 17 6 4 7 11 4 17 -5 7 -2 8 5 4 7 -5 10 -14 7 -22 -4 -10 1 -13 17 -10 17 2 22 10 22 33 -1 21 3 29 12 26 17 -7 17 -23 1 -23 -9 0 -8 -3 2 -9 17 -11 33 -4 24 11 -4 7 0 7 12 0 29 -16 139 23 153 54 12 26 26 31 37 12 5 -8 2 -9 -9 -5 -10 3 -17 2 -17 -3 0 -5 11 -9 24 -8 14 1 23 5 20 9 -2 4 1 11 7 14 5 4 8 13 5 21 -3 8 0 11 10 7 7 -3 14 0 14 6 0 6 5 11 11 11 8 0 8 -4 0 -14 -10 -12 -8 -17 11 -27 20 -11 22 -11 10 3 -10 13 -10 18 -1 24 8 4 9 3 5 -4 -4 -7 -4 -12 1 -13 42 -5 61 -5 58 2 -3 4 0 9 7 11 13 5 2 28 -13 28 -6 0 -8 -4 -5 -9 3 -5 -2 -12 -11 -15 -9 -4 -20 -1 -24 5 -9 15 23 49 33 35 5 -7 8 -6 8 2 0 7 5 10 10 7 6 -4 8 -10 5 -15 -10 -16 10 -18 30 -3 15 12 16 14 3 10 -10 -4 -19 1 -23 11 -3 9 -3 13 1 9 4 -4 13 -2 21 4 10 9 18 7 33 -6 17 -15 23 -16 33 -5 10 10 9 11 -3 5 -8 -5 -11 -4 -7 0 10 11 39 16 32 5 -3 -4 6 -7 20 -6 15 0 23 6 21 13 -6 16 10 27 19 13 8 -13 35 -13 35 1 0 5 -4 7 -10 4 -11 -7 -14 8 -3 18 3 4 11 0 17 -9 13 -17 64 -26 72 -12 3 5 13 7 22 3 9 -3 13 -2 8 2 -4 4 -20 9 -34 9 -55 3 -55 3 -44 17 12 15 4 31 -20 40 -15 5 -34 -16 -30 -35 3 -13 -5 -9 -19 9 -12 14 -12 16 0 8 10 -5 12 -4 7 3 -12 20 -35 14 -31 -7 2 -11 -3 -22 -11 -25 -9 -3 -12 -1 -9 4 3 6 1 10 -4 10 -6 0 -11 -5 -11 -11 0 -7 -11 -8 -30 -4 -20 4 -30 3 -30 -5 0 -6 6 -8 13 -4 6 4 9 3 4 -1 -4 -5 -18 -10 -30 -12 -17 -2 -19 -1 -7 7 8 5 10 10 4 10 -6 0 -17 -7 -24 -15 -7 -9 -15 -13 -18 -10 -3 3 -12 -1 -20 -8 -13 -9 -14 -9 -8 1 4 6 3 12 -3 12 -5 0 -13 -5 -16 -10 -4 -6 -12 -7 -18 -4 -7 4 -9 4 -5 -1 10 -10 -10 -45 -25 -45 -8 0 -7 3 2 9 8 5 11 16 8 25 -3 8 -2 18 4 21 5 4 7 11 4 16 -4 5 1 9 10 9 10 0 13 -5 9 -12 -5 -8 -2 -9 10 -5 10 4 23 7 29 8 7 0 -5 7 -26 16 -29 12 -41 13 -50 4 -9 -9 -9 -14 2 -20 8 -5 9 -11 3 -15 -5 -3 -12 0 -15 8 -3 7 -17 14 -31 14 -21 0 -24 -3 -15 -14 6 -8 15 -11 21 -8 12 7 39 -16 32 -27 -3 -5 -12 -5 -22 0 -13 7 -23 3 -40 -14 -16 -17 -19 -25 -10 -28 8 -3 6 -6 -4 -6 -14 -1 -16 5 -11 29 3 18 1 30 -5 30 -17 0 -24 -18 -10 -23 8 -3 6 -6 -4 -6 -11 -1 -15 -6 -12 -16 4 -8 1 -15 -6 -15 -6 0 -8 5 -5 10 3 6 1 10 -4 10 -6 0 -11 -6 -11 -12 0 -9 -4 -8 -10 2 -9 14 -15 7 -11 -14 1 -5 -6 -3 -15 5 -10 8 -15 9 -11 3 4 -7 0 -15 -9 -18 -15 -6 -15 -9 2 -28 11 -12 13 -18 7 -14 -17 9 -17 -6 -1 -23 9 -9 9 -12 1 -7 -6 3 -19 -2 -29 -11 -17 -17 -18 -17 -11 1 5 14 4 17 -8 12 -8 -3 -15 0 -15 5 0 6 9 9 19 6 13 -3 21 1 24 15 4 14 2 18 -9 14 -9 -3 -12 -1 -9 4 9 15 -4 32 -18 23 -12 -8 -33 -13 -54 -15 -7 -1 -13 -5 -13 -10 0 -5 -5 -6 -10 -3 -17 11 8 34 32 30 11 -3 18 -1 14 2 -12 12 -40 12 -48 0 -5 -8 -8 -9 -8 -1 0 6 7 17 15 24 8 7 15 8 15 3 0 -6 17 -9 38 -8 20 1 43 -2 50 -8 9 -7 11 -6 6 7 -4 11 0 16 12 17 46 3 65 7 71 13 3 3 -3 6 -15 6 -12 0 -22 6 -22 14 0 12 -4 12 -30 -1 -18 -9 -27 -19 -23 -26 5 -9 3 -9 -8 -1 -8 5 -23 9 -34 8 -37 -5 -78 -15 -94 -23 -9 -5 -18 -9 -21 -9 -40 -4 -92 -17 -96 -23 -3 -5 -13 -9 -23 -9 -10 0 -24 -7 -31 -15 -13 -16 -35 -21 -26 -7 3 5 -10 4 -29 -2 -35 -11 -38 -26 -5 -26 10 0 21 -6 23 -12 3 -8 6 -5 6 6 1 13 6 17 21 13 11 -3 18 -1 15 4 -3 5 8 1 24 -9 21 -11 26 -18 16 -20 -8 -2 -12 -8 -9 -14 4 -7 2 -8 -5 -4 -6 4 -9 12 -5 17 3 6 -6 8 -23 5 -15 -2 -28 -5 -28 -6 0 -1 -9 -3 -20 -5 -11 -2 -21 -8 -23 -14 -2 -5 -10 -7 -19 -4 -8 3 -18 1 -22 -5 -4 -7 -12 -8 -21 -2 -13 8 -12 10 3 10 9 0 16 3 16 8 -3 18 2 22 19 13 10 -5 24 -6 31 -2 26 17 -53 29 -89 14 -8 -4 -18 -7 -22 -8 -5 -2 -9 -3 -10 -5 -6 -4 -44 -11 -60 -11 -10 0 -18 -4 -18 -10 0 -5 5 -9 12 -9 6 0 9 -3 5 -6 -3 -3 -12 -2 -19 2 -15 10 -58 6 -74 -7 -6 -5 -14 -6 -17 -3 -9 9 -77 -25 -83 -41 -3 -7 2 -27 10 -44 9 -16 16 -39 16 -50 0 -11 11 -41 24 -68 14 -27 31 -91 40 -148 22 -140 33 -190 51 -224 8 -17 15 -56 15 -89 0 -67 23 -150 56 -202 12 -19 25 -54 29 -78 4 -25 24 -67 48 -103 69 -101 88 -140 113 -232 31 -116 57 -161 116 -197 27 -17 51 -30 53 -30 3 0 29 -12 58 -26 56 -28 126 -35 175 -16 15 6 54 18 87 27 85 24 147 45 169 57 19 10 164 65 199 75 29 9 64 -32 71 -83 3 -24 15 -65 26 -90 16 -35 21 -66 22 -137 0 -105 -16 -296 -32 -377 -6 -30 -13 -88 -16 -128 -5 -60 -2 -78 14 -105 40 -65 122 -296 122 -342 0 -13 11 -54 24 -92 14 -37 32 -90 42 -118 9 -27 23 -63 30 -80 6 -16 16 -41 22 -55 5 -14 14 -36 20 -50 5 -14 35 -56 66 -95 31 -38 56 -75 56 -81 0 -21 46 -53 87 -60 50 -8 109 10 128 39 19 30 37 150 42 275 5 120 -11 191 -55 242 -26 29 -30 43 -36 119 -8 100 0 113 76 125 24 4 60 18 81 32 34 22 46 25 88 19 27 -4 67 -15 88 -26 36 -17 151 -38 151 -27 0 3 -7 19 -16 36 -17 35 -37 39 -108 22 -39 -9 -67 -2 -68 16 -1 5 -6 20 -11 33 -10 20 -8 26 12 42 32 27 66 24 121 -10 39 -24 55 -28 91 -24 38 4 47 1 68 -21 23 -24 25 -45 6 -88 -5 -12 1 -21 23 -32 17 -9 33 -24 37 -35 9 -30 38 -58 78 -74 20 -9 37 -20 37 -26 0 -5 7 -16 15 -24 13 -13 10 -14 -25 -10 -50 7 -74 -14 -68 -58 4 -25 1 -32 -19 -40 -33 -12 -36 -11 -30 6 4 8 2 17 -3 20 -14 9 -12 36 5 69 19 36 19 46 0 46 -21 0 -65 -48 -65 -71 0 -10 11 -29 25 -43 14 -14 25 -29 25 -33 0 -4 12 -17 28 -29 22 -19 25 -26 16 -41 -6 -10 -21 -19 -33 -21 -12 -2 -21 -11 -21 -20 -1 -16 -1 -16 -11 0 -5 9 -16 15 -24 12 -8 -3 -20 -2 -27 2 -7 4 -19 9 -28 10 -8 1 -44 7 -80 14 -36 6 -83 13 -105 16 l-40 5 44 -27 c42 -26 43 -29 37 -67 -8 -46 13 -86 75 -142 58 -52 111 -71 231 -84 105 -11 107 -11 163 15 32 14 69 39 83 55 44 52 69 60 127 37 28 -11 81 -26 120 -35 83 -18 232 -93 267 -135 16 -17 16 -22 4 -40 -10 -14 -12 -28 -6 -42 12 -33 -3 -52 -145 -181 -204 -186 -435 -407 -435 -417 0 -5 12 0 26 11 15 12 33 21 40 21 8 0 14 5 14 10 0 6 5 10 12 10 6 0 36 26 67 57 61 63 210 200 251 231 14 11 34 22 45 26 11 3 37 22 58 42 97 93 188 130 201 82 9 -36 -42 -347 -64 -389 -5 -9 -12 -34 -16 -55 -3 -22 -10 -43 -14 -49 -4 -5 -13 -38 -19 -73 -7 -35 -23 -96 -36 -135 -13 -40 -26 -90 -30 -112 -4 -22 -20 -84 -36 -139 -41 -140 -37 -194 9 -128 20 28 46 105 62 182 17 86 58 235 79 288 12 29 21 62 21 74 0 11 14 69 31 127 17 58 34 124 39 146 34 160 64 272 75 284 20 20 42 -1 56 -53 6 -22 20 -53 30 -67 10 -15 19 -32 19 -39 0 -14 47 -159 59 -180 5 -9 12 -35 16 -58 4 -23 13 -49 21 -56 8 -8 14 -21 14 -28 0 -23 31 -59 48 -57 10 1 24 -1 34 -5 9 -4 36 2 63 14 39 18 49 19 56 8 10 -15 12 -44 3 -35 -4 3 -22 0 -40 -8 -19 -8 -34 -12 -34 -10 0 8 -95 -38 -115 -55 -11 -9 -45 -32 -75 -50 -75 -44 -130 -102 -130 -134 0 -34 42 -101 93 -149 l40 -37 -21 -23 c-46 -49 -38 -104 25 -170 66 -69 157 -92 258 -65 57 15 75 6 93 -48 25 -74 144 -173 210 -174 29 0 30 -36 0 -107 -12 -29 -19 -56 -15 -60 4 -3 25 -6 47 -5 23 1 40 -3 40 -9 0 -6 7 -8 16 -5 14 5 15 4 5 -8 -6 -8 -11 -18 -9 -22 1 -5 -2 -20 -6 -33 -5 -15 -4 -26 4 -31 6 -4 12 -11 13 -16 1 -5 8 -8 14 -8 9 1 11 -8 7 -30 -5 -30 -4 -30 11 -11 16 20 16 20 12 -3 -3 -12 -2 -20 3 -17 4 2 15 -4 25 -15 10 -11 21 -18 24 -15 4 2 7 -5 7 -15 0 -10 -5 -16 -10 -13 -5 3 -6 2 -3 -3 8 -14 -7 -35 -29 -38 -10 -2 -19 -10 -18 -18 2 -27 -43 -14 -57 17 -2 6 -8 8 -14 7 -30 -11 -43 -10 -39 2 6 15 -11 24 -43 21 -18 -1 -20 1 -11 12 6 8 7 13 2 12 -21 -4 -45 2 -40 9 2 4 -4 9 -15 9 -13 1 -17 -2 -12 -10 4 -8 1 -7 -9 1 -18 14 -13 46 5 35 6 -4 7 -1 3 6 -5 7 -10 10 -13 7 -3 -3 -15 0 -27 6 -20 11 -20 10 -6 -8 14 -17 14 -18 -2 -6 -9 8 -22 11 -27 8 -5 -4 -13 -2 -16 4 -4 6 -1 9 7 8 7 -2 13 4 13 12 0 11 -14 15 -60 17 -33 0 -60 2 -60 3 0 6 -47 5 -51 -2 -3 -4 -10 -8 -15 -8 -6 0 -7 6 -3 13 5 7 0 6 -11 -3 -11 -9 -16 -10 -11 -2 9 14 -5 16 -22 2 -9 -7 -9 -7 -2 2 16 19 12 25 -15 23 -14 -2 -23 2 -22 8 1 7 -6 11 -15 9 -10 -2 -18 2 -18 8 0 5 6 10 13 10 8 0 7 4 -3 10 -8 5 -19 10 -25 10 -5 0 -3 -5 5 -10 12 -7 11 -9 -6 -8 -15 2 -20 8 -18 25 1 13 -2 21 -6 18 -5 -3 -12 -1 -15 5 -4 6 -16 8 -28 4 -19 -6 -20 -5 -9 8 10 13 10 17 -3 22 -11 4 -14 2 -9 -7 6 -8 3 -8 -9 1 -9 8 -20 11 -24 9 -5 -3 -9 3 -9 13 0 11 6 16 16 14 8 -2 4 1 -10 8 -48 24 -51 28 -40 48 11 20 -3 39 -15 20 -3 -5 -11 -10 -17 -10 -6 0 -6 6 2 15 7 9 10 18 6 22 -3 3 2 16 11 27 18 21 18 21 -4 2 -13 -11 -23 -16 -23 -12 0 4 -9 2 -21 -4 -18 -10 -19 -10 -10 8 6 11 7 23 3 27 -4 5 0 6 9 3 9 -4 16 -1 16 8 0 12 -5 11 -25 -2 -13 -9 -21 -11 -18 -5 9 14 -6 15 -20 1 -6 -6 -10 -3 -10 9 0 11 5 17 11 13 5 -3 4 2 -4 11 -15 19 -36 24 -25 6 4 -7 -1 -9 -12 -7 -11 2 -18 11 -17 22 1 14 -2 15 -10 6 -9 -9 -7 -16 10 -30 19 -15 20 -20 9 -29 -11 -9 -16 -9 -22 0 -4 8 -3 9 4 5 20 -12 13 10 -8 29 -11 10 -18 20 -15 23 2 3 0 14 -6 25 -6 10 -7 17 -2 14 5 -3 9 7 9 22 0 23 -4 27 -28 27 -26 0 -27 -1 -14 -21 13 -19 12 -21 -13 -20 -29 0 -37 19 -18 43 6 7 6 12 1 11 -21 -4 -28 2 -14 12 12 8 11 9 -5 7 -13 -2 -19 2 -17 11 2 9 -3 11 -14 7 -14 -5 -15 -4 -4 9 9 11 9 15 1 15 -7 0 -9 5 -5 13 5 8 2 8 -9 -2 -20 -16 -23 -2 -4 19 10 12 9 12 -5 1 -12 -9 -22 -10 -37 -2 -37 20 -46 11 -73 -72 -32 -94 -34 -119 -13 -137 9 -7 28 -31 43 -54 73 -107 105 -152 118 -162 7 -6 42 -37 77 -70 57 -53 114 -102 169 -144 58 -44 145 -157 201 -260 16 -30 50 -79 76 -109 25 -29 64 -77 86 -105 51 -67 135 -166 200 -234 27 -29 51 -57 53 -62 2 -5 36 -35 75 -67 40 -32 74 -61 77 -64 17 -20 124 -89 170 -111 107 -50 76 -48 1015 -48 l887 0 -6 23 c-3 12 -6 25 -6 28 0 4 -10 9 -22 13 -19 5 -20 8 -8 15 9 6 19 6 26 0 9 -7 12 -5 10 8 -4 24 -38 24 -52 0 -10 -17 -12 -18 -17 -3 -4 10 -3 15 2 12 5 -3 12 6 16 21 5 21 2 32 -15 45 -12 10 -19 18 -16 18 4 0 2 9 -4 20 -6 11 -18 20 -28 19 -14 0 -14 -2 3 -9 11 -5 14 -9 6 -9 -8 -1 -11 -8 -8 -21 5 -20 -3 -26 -17 -13 -4 4 -15 8 -24 8 -9 0 -17 7 -17 15 0 9 8 14 20 13 11 -1 15 0 8 3 -12 5 -3 20 37 62 13 14 13 15 0 10 -9 -3 -25 1 -35 9 -19 13 -18 14 13 8 25 -4 33 -2 29 7 -2 8 -16 12 -33 10 -35 -3 -85 40 -63 53 8 6 10 4 4 -5 -6 -10 -4 -12 9 -7 11 5 15 3 10 -5 -4 -6 -3 -8 4 -4 6 3 17 0 25 -8 8 -8 17 -12 21 -9 11 11 7 23 -8 23 -7 0 -19 7 -26 15 -9 10 -9 15 -1 15 6 0 11 5 11 12 0 9 -3 9 -12 0 -7 -7 -19 -12 -28 -12 -8 0 -24 -9 -33 -21 -17 -19 -20 -19 -42 -5 -25 16 -64 14 -75 -5 -4 -6 -9 0 -12 15 -6 28 6 44 17 26 5 -8 12 -7 23 2 12 10 14 10 8 1 -4 -7 -2 -13 3 -13 6 0 11 10 11 23 0 18 2 19 11 7 8 -11 12 -12 16 -3 3 9 10 10 24 3 15 -8 17 -7 13 4 -3 9 -9 15 -12 14 -4 0 -18 0 -32 1 -18 1 -21 4 -12 10 11 6 10 10 -5 16 -10 5 -24 7 -30 6 -7 -1 -13 5 -13 14 0 13 7 15 36 9 25 -5 35 -3 30 4 -10 16 14 26 27 12 9 -10 9 -11 -2 -5 -10 6 -12 4 -6 -4 5 -9 10 -10 18 -2 17 17 26 13 22 -10 -3 -15 0 -19 11 -15 9 3 20 6 26 6 7 0 7 5 -1 13 -8 10 -7 14 4 14 8 0 12 -4 9 -9 -3 -4 3 -8 13 -8 17 -1 17 -1 0 -11 -17 -10 -15 -29 4 -29 6 0 8 4 5 8 -6 10 71 8 97 -3 10 -4 17 -3 17 4 0 6 -4 11 -8 11 -5 0 -22 11 -38 25 -16 14 -42 25 -57 25 -15 0 -30 7 -33 15 -9 22 -54 20 -54 -2 -1 -17 -1 -17 -11 0 -9 15 -13 16 -27 5 -9 -8 -13 -8 -9 -1 4 7 -5 15 -25 22 l-32 11 22 -20 c30 -28 28 -34 -4 -14 -28 19 -42 12 -49 -26 -8 -41 -55 -56 -55 -18 0 17 3 19 12 10 7 -7 16 -12 22 -12 5 0 2 6 -9 13 -14 11 -15 16 -5 22 9 5 11 4 6 -3 -4 -7 -2 -12 3 -12 13 0 14 20 3 38 -6 9 -12 5 -22 -13 -10 -18 -19 -24 -33 -19 -16 5 -18 2 -12 -16 6 -18 3 -21 -12 -18 -10 2 -28 -6 -41 -20 -18 -19 -26 -22 -37 -12 -12 10 -20 9 -40 -4 -14 -9 -23 -22 -19 -28 4 -7 3 -8 -5 -4 -6 4 -18 2 -26 -4 -8 -7 -15 -10 -15 -6 0 7 -52 -37 -105 -89 -52 -51 -155 -172 -155 -183 0 -5 -9 -12 -20 -15 -15 -4 -18 -10 -13 -24 7 -17 6 -17 -11 0 -13 13 -22 15 -31 7 -10 -8 -15 -8 -21 1 -4 7 -3 9 4 5 6 -3 13 -2 17 3 3 6 13 7 23 4 15 -6 15 -4 -2 16 -15 16 -22 19 -28 9 -6 -9 -8 -2 -6 18 3 23 1 31 -9 27 -8 -3 -13 3 -13 16 0 12 4 21 8 21 4 0 16 15 26 32 11 18 33 51 51 73 20 25 31 50 30 65 -1 18 4 27 19 32 13 4 4 6 -21 4 -23 -2 -48 1 -55 7 -9 6 -8 7 5 3 18 -6 20 0 19 46 0 21 3 26 16 21 13 -4 12 -2 -3 10 -17 14 -23 14 -42 2 -20 -13 -21 -13 -18 5 2 11 7 26 11 33 5 8 2 7 -9 -2 -18 -15 -30 -10 -33 14 -1 8 7 17 18 21 11 3 17 8 15 11 -3 2 -18 -2 -35 -11 -16 -8 -33 -12 -37 -8 -5 4 -5 2 -1 -5 4 -7 14 -10 24 -7 14 5 15 4 2 -5 -11 -7 -19 -6 -29 4 -13 12 -12 17 3 34 18 20 15 41 -7 41 -8 0 -8 -3 1 -9 11 -6 10 -11 -3 -25 -14 -13 -20 -14 -32 -5 -10 9 -11 14 -2 19 8 6 8 9 -2 13 -8 2 -24 -4 -35 -15 -16 -15 -24 -16 -29 -7 -5 7 -4 10 3 5 6 -3 13 -2 17 4 7 11 -39 25 -54 16 -10 -6 -25 11 -26 29 0 6 -9 9 -20 7 -17 -2 -17 -1 -5 7 8 6 11 11 5 11 -5 0 -2 5 8 11 21 12 38 2 18 -10 -10 -6 -10 -10 -1 -16 6 -4 14 -4 17 -1 3 3 12 1 20 -6 11 -9 12 -7 7 8 -7 18 -7 18 15 0 16 -15 18 -21 9 -28 -9 -5 -9 -8 -2 -8 22 0 58 36 49 50 -6 10 -11 9 -21 -4 -13 -18 -34 -14 -34 5 0 6 5 7 12 3 6 -4 8 -3 4 4 -3 5 0 12 6 15 7 2 9 8 5 13 -4 5 -11 4 -15 -1 -4 -6 -13 -11 -19 -12 -7 -2 -19 -4 -25 -5 -7 -2 -13 4 -13 12 0 8 6 14 13 12 8 -1 11 2 7 8 -4 7 -11 7 -18 2 -19 -15 -49 -11 -42 5 3 8 5 19 5 23 0 15 42 2 65 -20 12 -11 25 -17 29 -13 4 5 14 -1 22 -11 8 -11 14 -14 14 -7 0 7 5 9 10 6 6 -3 10 -2 10 2 0 12 38 14 45 2 4 -5 14 -5 26 1 25 14 24 26 -1 26 -11 0 -20 -3 -20 -6 0 -8 -83 -6 -97 3 -6 4 -14 2 -16 -3 -3 -6 -4 -5 -3 2 2 7 16 14 32 15 68 4 92 9 105 19 8 6 30 10 49 9 19 -1 43 2 52 7 14 7 16 5 11 -8 -5 -15 -3 -15 23 -1 20 10 35 12 46 6 10 -6 19 -6 23 0 7 12 35 3 35 -11 0 -5 -6 -8 -12 -7 -27 3 -49 -1 -44 -10 3 -5 24 -8 46 -7 30 2 44 -3 51 -15 6 -12 5 -20 -3 -25 -7 -5 -8 -3 -3 6 5 9 4 11 -3 6 -7 -4 -10 -2 -9 6 2 7 2 10 0 5 -3 -4 -10 -4 -16 0 -6 4 -23 8 -37 9 -14 2 -42 5 -62 7 -20 2 -43 0 -50 -4 -8 -5 5 -9 32 -9 92 -1 137 -11 125 -30 -6 -9 53 -2 72 9 14 7 -34 102 -56 109 -8 3 -11 0 -7 -7 5 -7 1 -9 -8 -5 -9 3 -16 1 -16 -5 0 -6 -5 -11 -11 -11 -5 0 -7 5 -4 10 3 6 2 10 -3 10 -6 0 -12 -7 -16 -15 -3 -9 -12 -12 -21 -9 -9 4 -14 12 -12 18 3 7 -2 21 -10 31 -14 20 -14 20 -29 1 -8 -11 -14 -15 -14 -10 0 6 6 16 13 23 10 11 3 12 -39 9 -46 -4 -50 -3 -49 16 1 12 8 22 16 22 8 1 20 2 27 3 8 1 10 6 6 14 -4 6 7 -1 24 -17 18 -17 32 -25 32 -20 0 6 6 17 13 25 6 8 11 12 9 10 -1 -2 6 -13 15 -24 10 -11 12 -17 6 -13 -7 4 -18 4 -24 0 -8 -4 -3 -12 12 -20 13 -7 18 -13 11 -14 -7 0 -10 -5 -7 -10 4 -6 10 -8 14 -6 4 3 13 1 21 -4 8 -5 21 -5 31 1 16 8 15 13 -10 66 -16 32 -32 69 -36 83 -4 14 -20 50 -35 80 -15 30 -39 87 -54 125 -15 39 -51 120 -81 180 -30 61 -65 136 -79 168 -17 39 -30 56 -37 51 -8 -4 -9 -3 -5 5 8 12 -34 151 -61 207 -19 36 -76 107 -67 82 8 -22 0 -23 -20 -3 -13 14 -15 13 -13 -4 1 -12 6 -17 16 -13 10 4 12 1 6 -9 -7 -11 -6 -12 7 -2 12 11 18 9 32 -6 26 -28 3 -35 -37 -11 -30 18 -36 18 -46 6 -7 -8 -18 -13 -26 -10 -7 3 -16 1 -20 -5 -11 -19 -14 -51 -4 -51 5 0 9 -7 9 -15 0 -8 5 -15 11 -15 5 0 8 4 5 8 -3 5 2 9 10 9 24 0 10 -20 -20 -28 -15 -4 -34 -15 -40 -25 -17 -22 -24 -4 -21 49 3 31 1 36 -11 26 -8 -6 -11 -16 -7 -22 4 -6 1 -7 -6 -3 -9 6 -8 13 5 27 9 10 20 17 23 14 4 -2 13 1 21 6 11 6 5 8 -18 4 -22 -4 -31 -2 -27 5 3 5 12 10 20 10 8 0 16 4 19 9 4 5 -2 8 -11 7 -10 -2 -22 2 -26 8 -6 7 -7 6 -5 -4 3 -8 0 -19 -6 -26 -15 -16 -47 15 -36 36 5 9 5 22 1 29 -6 10 -10 10 -12 2 -3 -9 -11 -9 -29 -2 -14 5 -18 10 -10 11 13 0 13 1 0 10 -8 5 -10 10 -5 10 20 1 -21 20 -43 20 -15 0 -21 -4 -16 -12 4 -7 3 -8 -5 -4 -6 4 -19 2 -28 -6 -9 -7 -14 -8 -10 -2 11 19 -32 8 -56 -14 -13 -12 -26 -19 -30 -16 -10 11 -51 11 -64 1 -8 -6 -18 -5 -28 3 -8 6 -19 9 -25 5 -6 -4 -10 -3 -9 2 5 29 -2 35 -21 18 -11 -10 -18 -21 -15 -25 2 -4 -2 -16 -11 -26 -14 -18 -15 -18 -4 3 6 13 8 23 5 23 -3 0 -1 9 5 19 7 14 7 22 -2 27 -7 4 -8 3 -4 -4 4 -7 2 -12 -3 -12 -18 0 -26 5 -24 13 5 12 -9 8 -31 -10 -12 -10 -18 -14 -14 -9 4 5 2 16 -5 24 -9 13 -9 14 1 8 6 -4 12 -3 12 3 0 5 -4 12 -10 16 -5 3 -7 12 -4 20 4 8 11 12 17 8 6 -3 7 -1 3 5 -4 6 -14 8 -23 5 -10 -4 -14 -2 -10 4 5 7 -2 10 -17 9 -14 -2 -27 3 -30 11 -3 8 -14 13 -23 11 -13 -2 -18 3 -17 23 1 22 -3 26 -23 23 -15 -1 -22 2 -20 9 3 7 10 11 16 9 7 -1 10 2 6 8 -4 7 -12 7 -25 0 -13 -7 -21 -7 -26 2 -5 7 -2 9 7 4 8 -4 6 -1 -3 7 -10 8 -14 18 -10 22 4 5 -1 5 -11 2 -11 -4 -16 -3 -12 3 3 6 -2 10 -12 10 -10 0 -14 4 -8 8 12 9 17 92 5 92 -5 0 -11 -5 -13 -10 -3 -6 -4 -5 -3 2 2 7 11 13 22 13 12 0 19 7 20 22 1 15 -3 20 -14 15 -11 -4 -12 -7 -4 -10 7 -2 12 -8 12 -13 0 -5 -10 -5 -24 1 -16 6 -26 5 -30 -1 -2 -5 -3 -4 -2 3 1 7 13 18 25 24 12 6 23 15 24 20 1 5 6 8 10 6 5 -1 6 2 2 7 -3 6 -13 7 -22 4 -12 -5 -14 -3 -8 7 5 9 4 11 -4 6 -6 -4 -9 -11 -7 -15 3 -4 -4 -7 -14 -8 -11 -1 -22 2 -25 8 -3 5 0 7 7 4 7 -3 19 4 26 16 8 12 9 18 2 14 -6 -4 -18 -1 -27 7 -9 7 -14 8 -10 2 4 -6 -3 -10 -16 -9 -15 1 -21 8 -19 20 2 10 -1 14 -7 10 -6 -3 -11 -1 -11 4 0 16 18 13 28 -5 8 -14 10 -14 22 1 11 13 10 15 -2 10 -12 -5 -15 0 -13 19 4 33 -5 38 -30 19 -19 -14 -19 -14 -1 -11 10 2 21 -3 24 -11 3 -8 0 -11 -7 -7 -6 4 -17 4 -23 0 -18 -11 -48 -12 -54 -2 -3 5 -2 8 3 7 22 -4 33 3 33 21 0 13 -5 18 -15 14 -10 -4 -13 -2 -10 8 4 9 19 13 45 12 46 -2 46 -1 23 17 -10 8 -14 9 -10 2 5 -8 -1 -11 -20 -9 -16 1 -33 -1 -39 -6 -6 -4 -11 -2 -11 7 0 8 8 15 18 15 11 0 16 7 15 18 -2 12 -12 17 -37 17 -39 0 -62 12 -53 26 3 5 2 9 -3 8 -21 -4 -34 2 -31 14 2 6 0 12 -4 12 -14 0 -47 38 -41 48 4 6 0 8 -10 4 -11 -4 -21 1 -28 15 -9 16 -8 19 3 12 7 -4 -1 7 -19 26 -29 29 -34 32 -50 19 -17 -13 -17 -12 -4 4 8 10 20 16 28 13 7 -3 13 -3 13 0 0 9 -44 43 -55 44 -5 0 -21 12 -35 27 -14 15 -19 23 -11 18 10 -6 12 -4 7 4 -6 9 -11 9 -24 -1 -9 -7 -13 -8 -9 -2 4 6 -5 24 -18 38 -14 15 -25 30 -25 35 0 4 -14 20 -31 37 -30 28 -31 28 -19 4 13 -25 13 -25 -7 -5 -16 16 -18 26 -11 50 4 16 8 31 8 32 0 1 16 7 36 12 41 11 52 7 125 -44 25 -18 56 -38 69 -45 20 -11 22 -10 17 4 -6 15 -1 16 41 11 45 -6 111 -21 217 -50 88 -24 138 -34 209 -40 38 -4 83 -15 101 -25 18 -10 61 -23 96 -29 35 -6 98 -18 139 -27 118 -24 137 -26 120 -15 -36 23 -320 107 -510 151 -19 4 -60 15 -90 24 -30 9 -71 21 -90 27 -19 6 -58 15 -87 20 -63 11 -124 47 -119 70 4 19 -36 29 -116 29 -59 0 -61 12 -10 61 45 44 92 69 127 69 15 0 41 6 58 14 18 8 55 22 82 31 74 26 113 44 121 57 5 7 2 9 -9 5 -9 -3 -35 -11 -59 -17 -54 -14 -118 -36 -177 -59 -63 -25 -114 -41 -195 -62 -93 -24 -116 -14 -116 51 0 26 11 85 24 131 34 120 74 274 107 419 16 69 35 143 43 165 19 55 31 155 18 155 -11 0 -42 -71 -42 -97 0 -9 -7 -39 -15 -67 -8 -28 -22 -78 -31 -111 -9 -33 -31 -107 -49 -165 -18 -58 -38 -136 -45 -175 -17 -100 -70 -277 -87 -295 -13 -13 -17 -12 -39 15 -13 17 -36 68 -50 115 -15 47 -34 103 -44 125 -10 22 -28 72 -40 110 -13 39 -31 86 -41 105 l-19 35 0 -36 c0 -19 4 -39 9 -45 16 -17 33 -83 26 -104 -13 -41 -45 -22 -137 81 -13 14 -33 29 -44 33 -12 4 -24 14 -28 24 -46 136 -46 134 -39 252 5 105 3 122 -20 195 -14 44 -28 115 -32 158 -12 131 -95 280 -168 303 -11 4 -28 15 -36 25 -9 10 -38 30 -65 45 -62 33 -66 37 -135 103 -61 59 -206 161 -228 161 -8 0 -12 4 -9 9 3 5 -4 12 -17 15 -24 7 -125 120 -168 189 -32 52 -54 119 -46 141 3 8 23 18 44 21 44 7 94 21 143 42 19 8 44 19 55 23 11 5 36 11 56 15 58 9 65 24 51 108 -7 39 -16 75 -21 81 -5 6 -12 31 -16 56 -4 25 -11 50 -15 55 -4 6 -10 30 -14 55 -4 25 -13 65 -20 90 -8 25 -24 81 -36 125 -12 44 -25 89 -30 100 -4 11 -13 38 -19 60 -31 121 -64 237 -81 288 -11 31 -20 62 -20 69 0 23 -42 124 -61 148 l-20 25 16 -34z m-920 -10 c3 -6 -3 -9 -14 -8 -11 0 -17 5 -15 9 7 11 22 10 29 -1z m-522 -98 c-7 -2 -19 -2 -25 0 -7 3 -2 5 12 5 14 0 19 -2 13 -5z m-170 -40 c-7 -3 -13 -9 -13 -14 0 -4 6 -6 13 -3 8 3 14 -2 14 -10 0 -10 -8 -14 -21 -12 -12 2 -27 -1 -35 -7 -7 -6 -18 -12 -25 -14 -6 -1 -23 -4 -37 -7 -18 -4 -31 0 -44 14 -10 11 -15 20 -10 20 4 0 14 -8 21 -17 12 -17 12 -17 11 2 -2 21 24 28 54 14 19 -9 55 13 46 27 -3 6 4 10 16 11 12 0 16 -1 10 -4z m223 -30 c-3 -8 -1 -11 4 -8 20 12 9 -14 -12 -29 -22 -15 -43 -12 -32 5 3 5 10 6 16 3 6 -4 8 -1 6 7 -3 8 -11 13 -17 11 -7 -1 -10 2 -6 8 3 6 11 7 17 4 7 -5 9 -1 5 9 -4 11 -2 14 9 10 8 -3 13 -12 10 -20z m-266 11 c0 -8 -19 -13 -24 -6 -3 5 1 9 9 9 8 0 15 -2 15 -3z m-64 -109 c1 -8 -3 -18 -8 -22 -7 -3 -8 -1 -4 5 4 7 3 12 -3 12 -5 0 -12 -6 -14 -12 -4 -10 -6 -10 -6 0 -1 7 6 15 14 18 8 4 12 11 8 18 -3 6 -2 7 2 3 5 -4 10 -14 11 -22z m-241 1 c7 3 15 2 18 -3 3 -4 -7 -8 -23 -8 -21 -1 -26 3 -22 14 4 9 7 11 9 4 3 -7 10 -10 18 -7z m1473 -8 c20 -20 14 -42 -18 -73 -20 -19 -30 -39 -30 -57 0 -24 -7 -32 -36 -44 -37 -15 -55 -13 -113 13 -32 14 -37 14 -67 -2 -18 -10 -44 -17 -59 -17 -14 0 -28 -4 -31 -9 -3 -5 -13 -9 -23 -9 -10 0 -32 -7 -47 -15 -16 -8 -42 -15 -58 -15 -16 0 -37 -7 -47 -16 -9 -8 -32 -17 -51 -19 -18 -2 -64 -19 -103 -39 -38 -20 -76 -36 -83 -36 -24 0 -107 -42 -132 -67 -31 -31 -69 -47 -84 -34 -6 5 -29 11 -51 14 -114 16 -125 22 -125 68 0 22 7 29 43 43 23 9 49 16 58 16 8 0 19 4 24 9 6 5 37 16 70 26 33 10 64 22 70 27 5 4 18 8 30 8 11 0 53 11 93 25 40 14 106 32 145 41 40 9 104 27 142 39 39 12 99 30 135 40 112 30 235 68 245 76 10 7 43 15 76 18 8 0 20 -4 27 -11z m-1563 -18 c-3 -5 -12 -10 -18 -10 -7 0 -6 4 3 10 19 12 23 12 15 0z m37 -22 c-7 -7 -12 -8 -12 -2 0 14 12 26 19 19 2 -3 -1 -11 -7 -17z m242 10 c-3 -4 -15 -8 -27 -8 -16 0 -18 -3 -9 -9 11 -6 9 -10 -7 -14 -17 -4 -19 -2 -11 13 10 18 25 27 47 27 7 0 10 -4 7 -9z m1387 -129 c11 -5 24 -20 30 -32 5 -12 21 -38 35 -57 20 -27 24 -44 22 -80 -4 -54 -20 -61 -63 -25 l-30 25 23 16 c16 12 22 26 22 56 l0 40 -34 -6 c-42 -8 -106 25 -106 55 0 16 7 19 41 19 22 0 49 -5 60 -11z m-783 -228 c-2 -9 -14 -18 -27 -19 -30 -5 -47 19 -25 34 20 16 56 6 52 -15z m690 -15 c3 -13 -1 -17 -14 -14 -11 2 -20 11 -22 22 -3 13 1 17 14 14 11 -2 20 -11 22 -22z m-506 -41 c15 -33 -2 -55 -27 -35 -23 19 -18 60 7 60 5 0 14 -11 20 -25z m-314 -12 c-4 -20 -35 -30 -50 -15 -15 15 0 32 28 32 19 0 25 -5 22 -17z m205 -5 c8 -12 8 -24 -1 -42 -22 -49 -77 -1 -58 50 8 20 46 14 59 -8z m387 -61 c0 -20 -1 -20 -16 -5 -9 9 -13 21 -9 27 10 16 25 3 25 -22z m218 14 c3 -8 -1 -12 -9 -9 -7 2 -15 10 -17 17 -3 8 1 12 9 9 7 -2 15 -10 17 -17z m262 -48 c0 -25 -19 -22 -40 7 -13 19 -19 37 -15 48 6 15 10 13 31 -13 13 -16 24 -35 24 -42z m-711 47 c11 -5 21 -26 24 -48 5 -26 16 -45 37 -60 24 -18 30 -30 30 -62 0 -47 -6 -52 -48 -35 -33 15 -35 19 -32 73 1 25 -5 38 -24 53 -19 15 -26 30 -26 55 0 35 9 41 39 24z m115 -6 c22 -21 20 -44 -3 -44 -20 0 -37 32 -26 50 8 13 11 13 29 -6z m-394 -10 c11 -12 11 -18 -1 -30 -13 -12 -18 -12 -34 -1 -11 9 -16 20 -12 31 8 20 31 21 47 0z m183 -72 c10 -10 15 -21 12 -24 -3 -3 11 -17 30 -33 33 -24 36 -31 33 -68 -2 -31 -7 -41 -18 -39 -8 2 -30 6 -47 9 -32 5 -33 5 -33 -31 0 -45 -19 -47 -54 -5 -26 31 -36 89 -15 89 7 0 26 -9 44 -20 l32 -20 6 42 c5 35 3 46 -13 60 -20 16 -26 39 -13 51 10 11 19 8 36 -11z m377 -7 c24 -12 30 -22 30 -49 0 -22 8 -40 25 -56 28 -26 33 -60 10 -60 -8 0 -22 15 -31 33 -9 17 -26 38 -37 46 -33 23 -57 101 -31 101 3 0 18 -7 34 -15z m94 -4 c10 -10 13 -22 8 -25 -12 -7 -54 23 -47 35 9 14 20 11 39 -10z m-590 -7 c20 -19 21 -60 2 -67 -43 -17 -69 20 -46 64 13 23 24 24 44 3z m406 -39 c0 -34 -4 -45 -16 -45 -31 0 -54 20 -54 49 0 35 6 41 42 41 27 0 28 -2 28 -45z m540 -14 c14 -44 9 -71 -15 -71 -44 0 -64 70 -29 104 20 21 28 15 44 -33z m-1182 -71 c13 -35 1 -39 -28 -10 -23 23 -25 36 -7 43 18 6 24 1 35 -33z m130 17 c2 -10 -3 -17 -11 -17 -16 0 -30 24 -19 34 10 10 27 1 30 -17z m917 -23 c21 -33 13 -41 -20 -20 -25 17 -30 27 -18 39 11 12 20 8 38 -19z m-346 -13 c13 -23 5 -31 -31 -31 -31 0 -33 3 -18 31 13 24 36 24 49 0z m-73 -21 c11 0 2 -39 -11 -50 -12 -10 -21 -10 -45 0 -36 15 -41 11 -49 -37 -8 -48 -24 -51 -62 -14 -22 22 -29 38 -27 58 3 29 4 29 71 16 22 -4 27 -2 27 14 0 34 19 44 58 28 19 -8 36 -15 38 -15z m-413 -22 c22 -18 34 -68 15 -68 -17 0 -68 51 -68 68 0 16 32 15 53 0z m-165 -36 c3 -9 -2 -13 -14 -10 -9 1 -19 9 -22 16 -3 9 2 13 14 10 9 -1 19 -9 22 -16z m362 -73 c6 -21 21 -49 34 -61 44 -44 80 -125 66 -148 -6 -9 -17 -6 -48 11 -42 25 -52 42 -52 94 0 24 -7 35 -31 49 -34 20 -49 51 -49 101 l0 34 35 -20 c25 -15 38 -32 45 -60z m507 43 c18 -11 35 -64 25 -74 -5 -5 -22 -8 -38 -6 -23 2 -30 9 -32 31 -6 50 12 70 45 49z m-112 -37 c35 -34 32 -47 -11 -43 -40 3 -61 25 -51 52 9 23 34 20 62 -9z m-111 -7 c31 -28 44 -73 23 -81 -21 -8 -77 41 -77 67 0 42 17 46 54 14z m-404 -2 c6 -8 10 -24 8 -36 -3 -19 -4 -20 -25 -5 -25 18 -31 55 -9 55 7 0 19 -7 26 -14z m311 -63 c26 -30 30 -41 24 -69 -5 -29 -3 -34 12 -34 33 0 60 -28 73 -75 7 -25 10 -48 7 -52 -4 -3 -21 -2 -39 3 -35 10 -67 58 -68 102 0 12 -7 23 -15 24 -8 0 -21 1 -27 2 -23 2 -48 50 -48 92 0 22 3 43 6 46 11 12 45 -6 75 -39z m813 29 c3 -5 -1 -9 -9 -9 -8 0 -12 4 -9 9 3 4 7 8 9 8 2 0 6 -4 9 -8z m-1394 -17 c10 -12 9 -16 -3 -21 -19 -7 -60 14 -52 27 9 14 41 11 55 -6z m1332 -17 c-7 -7 -12 -8 -12 -2 0 14 12 26 19 19 2 -3 -1 -11 -7 -17z m-1012 -33 c0 -8 13 -29 29 -47 55 -64 77 -128 44 -128 -32 0 -43 15 -73 94 -34 89 -36 96 -15 96 8 0 15 -7 15 -15z m693 -7 c53 -37 58 -46 55 -85 -2 -32 -6 -37 -23 -35 -27 5 -93 59 -100 82 -9 27 3 60 22 60 8 0 29 -10 46 -22z m-228 -44 c30 -33 34 -84 7 -84 -27 0 -48 21 -61 59 -6 19 -11 38 -11 42 0 19 42 7 65 -17z m107 14 c12 -9 15 -22 11 -40 -9 -48 -53 -28 -53 24 0 30 16 36 42 16z m263 -13 c22 -18 27 -27 18 -36 -8 -8 -22 -5 -52 10 -40 21 -48 31 -34 44 12 13 38 6 68 -18z m-1141 -21 c16 -6 23 -44 8 -44 -12 0 -32 23 -32 37 0 15 2 15 24 7z m550 -83 c21 -23 26 -82 9 -88 -20 -7 -73 52 -73 81 0 21 5 26 23 26 13 0 32 -9 41 -19z m545 -24 c49 -53 26 -93 -24 -42 -25 24 -31 45 -18 58 11 11 18 8 42 -16z m-109 -17 c39 -37 39 -77 0 -72 -38 6 -60 31 -60 69 0 42 17 43 60 3z m-123 4 c29 -8 48 -55 33 -83 -13 -25 -19 -26 -46 -3 -29 23 -45 57 -38 76 7 17 17 19 51 10z m-423 -53 c22 -39 15 -49 -19 -27 -16 10 -25 26 -25 42 0 33 19 27 44 -15z m310 4 c14 -13 26 -34 26 -47 1 -28 15 -46 58 -77 26 -18 36 -20 47 -11 8 7 15 21 15 31 0 29 15 30 66 4 30 -15 49 -31 49 -42 2 -56 19 -90 66 -128 54 -45 63 -76 30 -116 l-19 -23 -37 19 c-47 26 -59 48 -51 101 5 41 5 43 -36 64 -45 23 -53 20 -63 -27 -6 -28 -4 -33 13 -33 28 0 69 -45 75 -83 7 -45 -20 -89 -52 -85 -48 6 -73 70 -59 153 2 12 -2 19 -10 17 -7 -1 -28 9 -46 23 -18 14 -35 25 -38 25 -3 0 -5 -17 -6 -37 -2 -49 -13 -58 -50 -39 -30 15 -32 15 -42 -5 -15 -28 -4 -68 27 -101 24 -26 26 -32 20 -102 -5 -74 -5 -74 23 -86 30 -12 40 -34 40 -91 0 -27 8 -43 34 -68 33 -32 34 -33 45 -13 18 34 13 68 -13 85 -41 27 -69 83 -63 124 5 26 0 47 -18 82 -26 47 -29 69 -19 109 5 16 14 22 34 22 15 0 32 -6 38 -12 13 -16 17 -106 7 -132 -6 -13 -3 -23 11 -32 38 -26 43 -34 49 -78 5 -31 16 -53 37 -73 42 -39 65 -91 63 -136 -2 -37 -1 -40 43 -58 25 -11 49 -16 53 -12 4 4 9 24 11 43 3 31 0 35 -27 40 -37 6 -75 68 -75 123 0 30 -5 40 -26 49 -28 13 -64 74 -64 109 0 30 28 59 56 59 13 0 38 -9 56 -20 l32 -19 11 31 c15 47 37 56 91 36 l46 -16 11 28 c11 24 15 26 37 18 14 -5 35 -18 46 -29 21 -20 21 -20 27 2 8 29 -8 66 -32 74 -10 3 -22 12 -25 20 -9 24 -24 17 -28 -12 -4 -39 -22 -39 -66 2 -74 66 -59 162 16 109 22 -15 24 -15 37 2 8 11 15 22 15 27 0 15 41 6 77 -18 36 -25 37 -25 44 -7 11 30 26 34 58 17 40 -20 54 -47 41 -80 -10 -25 -10 -25 -46 -10 -20 8 -40 15 -44 15 -11 0 -20 -39 -9 -45 4 -3 6 -12 3 -20 -4 -8 7 -20 27 -30 31 -16 33 -16 46 1 7 10 13 21 13 26 0 15 45 8 78 -12 39 -24 42 -24 42 -5 0 30 29 26 83 -10 42 -28 54 -41 50 -56 -3 -10 0 -19 6 -19 6 0 10 -3 10 -7 -3 -20 2 -33 14 -33 6 0 25 -7 40 -15 25 -13 29 -13 34 2 4 9 2 18 -4 20 -6 2 -29 22 -52 44 -70 69 -44 99 29 33 23 -21 40 -45 40 -58 0 -15 15 -29 55 -50 61 -31 83 -59 66 -80 -6 -7 -8 -16 -4 -20 4 -4 -3 -9 -15 -13 -12 -3 -22 -8 -22 -12 0 -9 86 -32 130 -35 19 -1 40 -3 46 -4 13 -2 54 -74 54 -96 0 -25 -21 -19 -57 16 l-32 31 -35 -23 c-19 -13 -32 -30 -29 -37 3 -8 -3 -13 -13 -14 -14 -1 -15 -3 -4 -6 8 -2 23 -15 33 -29 16 -21 17 -29 6 -58 -17 -46 -47 -54 -76 -21 -21 24 -82 37 -68 15 13 -20 -14 -9 -29 12 -20 28 -20 39 -1 32 8 -4 15 -1 15 6 0 7 7 10 15 6 20 -7 21 40 1 60 -17 16 -36 19 -36 4 0 -5 -12 -13 -26 -16 -18 -5 -30 -1 -44 14 -21 22 -60 20 -60 -4 0 -7 -5 -16 -10 -19 -15 -9 -52 5 -47 18 3 7 -5 29 -16 49 -24 44 -20 52 17 38 34 -13 46 -6 46 25 0 18 -8 26 -32 33 -44 13 -78 11 -78 -5 0 -20 -61 -16 -95 7 -44 29 -57 26 -53 -12 3 -31 1 -33 -29 -36 -18 -2 -43 4 -57 13 -31 20 -49 11 -43 -21 5 -26 -8 -30 -84 -25 -29 2 -37 -2 -41 -17 -8 -29 3 -40 49 -48 38 -6 42 -4 55 22 19 42 48 41 86 -1 18 -19 42 -35 54 -35 12 0 30 -8 40 -17 10 -9 44 -20 75 -24 63 -9 106 -35 111 -67 3 -18 7 -20 28 -12 39 15 53 12 81 -16 15 -15 40 -33 57 -40 69 -30 87 -63 50 -90 -32 -25 -31 -52 4 -60 42 -11 94 -41 83 -49 -8 -4 -8 -12 -1 -25 14 -26 -24 -68 -45 -50 -8 6 -22 10 -31 8 -14 -2 -12 -9 16 -36 25 -26 40 -32 64 -30 21 2 30 8 28 17 -7 32 8 61 31 61 31 0 47 -18 47 -52 0 -27 -30 -54 -45 -40 -12 12 7 -61 22 -85 8 -12 26 -23 40 -25 20 -2 29 -12 38 -38 9 -28 17 -35 38 -35 31 -1 61 -26 77 -66 8 -19 20 -29 33 -29 35 0 85 -47 93 -86 3 -19 4 -37 1 -40 -11 -11 -74 30 -95 62 -14 21 -30 34 -44 34 -12 0 -38 18 -60 43 -22 23 -54 47 -71 53 -18 6 -42 26 -55 45 -23 34 -82 78 -82 62 -1 -4 -13 17 -28 47 l-27 55 -59 0 c-50 0 -60 3 -62 19 -4 27 -24 37 -59 31 -27 -4 -31 -2 -33 20 -1 15 -7 36 -13 47 -10 19 -7 25 20 48 27 21 31 30 26 53 l-7 27 -71 -7 c-62 -5 -70 -4 -64 10 3 9 2 19 -3 22 -19 12 -9 44 21 70 34 28 34 32 4 35 -53 6 -65 1 -65 -29 0 -39 -18 -51 -84 -58 -52 -5 -56 -4 -64 18 -8 20 -16 24 -66 25 -69 2 -86 15 -86 66 l0 39 -56 -5 c-31 -3 -59 -7 -61 -10 -3 -3 -1 -18 5 -34 14 -41 2 -54 -56 -55 -61 -2 -90 19 -98 75 -4 24 -16 46 -32 58 -25 20 -44 26 -40 13 1 -5 -1 -18 -6 -30 -8 -25 -35 -30 -53 -12 -19 19 -40 3 -47 -36 l-7 -36 -52 3 -52 3 3 -32 c1 -24 -2 -33 -14 -33 -30 0 -54 21 -79 69 -13 27 -31 51 -40 55 -22 8 -45 68 -38 97 7 29 20 39 52 39 21 0 23 3 18 43 -3 23 -11 65 -18 92 -14 58 -5 123 17 132 8 3 24 -3 35 -13 18 -16 20 -28 17 -84 -3 -64 -3 -65 23 -68 24 -3 27 1 32 35 3 29 -1 45 -19 70 -19 25 -24 44 -24 89 0 52 -3 62 -32 91 -27 28 -33 42 -34 83 -2 43 -7 54 -38 83 -28 27 -36 42 -36 70 0 40 18 52 48 31 14 -10 22 -30 27 -74 7 -60 7 -60 40 -60 36 0 50 12 60 53 10 38 21 42 60 18 l35 -20 0 47 c-1 43 -4 49 -40 74 -35 25 -40 32 -40 68 0 32 4 40 19 40 10 0 30 -11 45 -25z m452 -71 c25 -19 34 -34 34 -55 0 -34 -18 -38 -57 -12 -25 17 -26 16 -47 -10 -27 -34 -33 -34 -73 1 -23 19 -33 36 -33 56 0 30 5 31 77 10 16 -4 23 -1 28 15 9 28 29 26 71 -5z m-562 -10 c18 -17 21 -50 6 -59 -14 -9 -48 12 -55 35 -12 38 19 54 49 24z m-607 -69 c0 -8 -4 -12 -9 -9 -5 3 -6 10 -3 15 9 13 12 11 12 -6z m1631 -117 c17 -14 15 -31 -3 -24 -8 3 -37 8 -63 12 -53 7 -62 11 -62 25 0 13 109 1 128 -13z m366 -303 c49 -45 20 -62 -42 -25 -28 17 -32 23 -22 35 17 21 33 19 64 -10z m-564 -160 c13 -16 6 -35 -15 -35 -12 0 -25 21 -25 41 0 14 26 11 40 -6z m-896 -288 c30 -61 33 -87 11 -87 -28 0 -76 104 -60 130 12 19 23 10 49 -43z m656 4 c16 -30 12 -61 -7 -61 -35 0 -68 52 -46 73 13 14 43 7 53 -12z m-378 -39 c6 -25 -25 -52 -43 -38 -34 26 -39 41 -23 64 14 20 17 21 38 6 13 -8 26 -23 28 -32z m1108 8 c0 -5 -4 -10 -10 -10 -5 0 -10 5 -10 10 0 6 5 10 10 10 6 0 10 -4 10 -10z m-1240 -34 c0 -7 -3 -16 -7 -19 -10 -11 -33 13 -33 35 0 16 3 17 20 8 11 -6 20 -17 20 -24z m229 8 c29 -37 28 -68 -1 -58 -34 10 -48 24 -48 49 0 42 20 46 49 9z m1189 -156 c7 -7 12 -17 12 -24 0 -17 -47 -23 -67 -9 -15 11 -15 15 -4 29 16 19 42 21 59 4z m82 -58 c0 -5 -2 -10 -4 -10 -3 0 -8 5 -11 10 -3 6 -1 10 4 10 6 0 11 -4 11 -10z m-258 -229 c15 -6 28 -22 35 -44 12 -41 9 -47 -23 -47 -25 0 -57 29 -80 73 -14 27 -14 27 15 27 16 0 40 -4 53 -9z m492 -112 c-6 -11 -24 -2 -24 11 0 5 7 7 15 4 8 -4 12 -10 9 -15z m-429 -9 c3 -5 -4 -25 -17 -43 -19 -27 -28 -32 -48 -27 -37 9 -37 36 0 43 17 4 33 13 36 22 7 17 20 20 29 5z m412 -26 c-3 -3 -12 -4 -19 -1 -8 3 -5 6 6 6 11 1 17 -2 13 -5z m162 -44 c0 -10 -3 -8 -9 5 -12 27 -12 43 0 25 5 -8 9 -22 9 -30z m-414 -10 c35 -36 25 -54 -24 -45 -42 8 -71 31 -71 56 0 37 55 30 95 -11z m-210 -21 c14 -13 -14 -10 -55 6 l-35 14 40 -6 c22 -3 44 -9 50 -14z m645 -9 c0 -5 -5 -10 -11 -10 -5 0 -7 5 -4 10 3 6 8 10 11 10 2 0 4 -4 4 -10z m50 -147 c0 -17 11 -16 77 3 67 20 80 12 19 -11 -63 -24 -83 -48 -67 -79 7 -12 11 -34 9 -47 -3 -21 -7 -17 -27 25 -22 48 -23 48 -61 42 -21 -3 -47 -8 -57 -11 -10 -3 -4 2 12 10 41 22 66 67 59 108 l-6 32 21 -30 c11 -16 21 -36 21 -42z m335 -392 c3 -5 2 -12 -3 -15 -5 -3 -9 1 -9 9 0 17 3 19 12 6z m233 -247 c4 -4 1 -9 -6 -11 -6 -3 -10 -8 -7 -13 6 -10 -21 -7 -32 4 -4 4 -2 6 6 4 7 -1 16 3 18 10 3 7 -1 10 -10 6 -8 -3 -18 -1 -21 4 -6 11 42 7 52 -4z m102 -168 c0 -2 -8 -10 -17 -17 -16 -13 -17 -12 -4 4 13 16 21 21 21 13z m-30 -307 c7 -12 5 -16 -8 -16 -57 0 -82 -4 -77 -12 3 -6 -3 -10 -12 -11 -10 0 -43 -3 -73 -6 l-55 -5 23 20 c13 11 44 23 70 27 26 3 53 10 60 13 22 12 63 6 72 -10z m627 -143 c-3 -7 -1 -18 4 -23 6 -6 4 -10 -5 -10 -7 0 -12 7 -11 16 2 9 4 19 4 24 1 4 4 7 7 7 3 0 4 -6 1 -14z m-283 -14 c3 -5 -1 -9 -9 -9 -8 0 -12 4 -9 9 3 4 7 8 9 8 2 0 6 -4 9 -8z m459 -29 c-3 -7 -9 -13 -13 -13 -4 0 -10 6 -13 13 -3 7 3 13 13 13 10 0 16 -6 13 -13z m163 -65 c4 -7 3 -8 -4 -4 -7 4 -12 2 -12 -4 0 -6 -5 -8 -11 -4 -8 4 -7 9 2 15 18 11 17 11 25 -3z m94 1 c0 -4 -4 -10 -10 -14 -6 -3 -5 -15 2 -30 6 -14 13 -23 15 -21 3 2 0 13 -6 24 -8 15 -7 23 2 30 10 9 13 4 15 -21 2 -17 8 -35 15 -39 9 -6 8 -8 -3 -9 -8 -1 -19 -1 -23 0 -5 1 -5 -3 -2 -9 4 -6 13 -9 21 -6 16 6 15 8 18 -56 1 -26 -1 -46 -4 -46 -11 2 -49 -17 -50 -26 -1 -5 4 -12 10 -16 7 -4 8 -10 3 -13 -14 -9 -40 11 -27 21 6 4 10 17 9 29 -1 16 3 20 20 17 15 -3 21 2 22 16 1 11 -2 20 -8 20 -5 0 -9 -5 -9 -12 0 -6 -3 -9 -6 -5 -3 3 -7 26 -9 51 -1 25 -7 52 -12 58 -6 7 -9 23 -7 36 3 16 0 21 -8 16 -6 -4 -8 -3 -5 3 7 11 37 13 37 2z m-910 -89 c16 -38 12 -42 -27 -31 -17 5 -36 5 -43 1 -12 -7 -40 -6 -103 3 -16 3 -31 -1 -35 -9 -5 -9 -12 -10 -22 -4 -12 7 -11 12 4 29 15 17 32 21 80 22 34 0 70 4 81 9 36 16 52 11 65 -20z m846 -3 c-1 -20 -8 -32 -20 -37 -17 -5 -17 -7 -4 -13 18 -6 62 35 51 48 -5 4 -3 5 4 2 6 -4 10 -18 8 -32 -1 -14 2 -28 7 -31 5 -3 0 -13 -11 -21 -15 -10 -20 -22 -17 -39 3 -16 1 -22 -6 -18 -7 5 -9 2 -5 -9 7 -18 -19 -32 -29 -15 -5 7 -2 8 6 3 8 -5 11 -3 8 6 -3 8 -10 14 -17 14 -13 0 -31 24 -30 40 0 6 5 1 12 -10 13 -22 29 -26 44 -12 4 5 1 7 -7 5 -11 -2 -15 5 -13 30 2 29 -1 32 -23 28 -16 -3 -22 -1 -18 6 5 8 1 9 -11 4 -15 -5 -16 -4 -5 9 11 14 14 14 24 -1 10 -13 12 -13 12 5 0 11 -3 18 -6 16 -4 -2 -7 2 -7 10 0 13 3 13 17 0 22 -20 25 -19 27 5 1 11 -2 18 -6 16 -4 -3 -8 1 -8 8 0 7 6 13 12 13 7 0 11 -13 11 -30z m38 25 c3 -5 -1 -9 -9 -9 -8 0 -12 4 -9 9 3 4 7 8 9 8 2 0 6 -4 9 -8z m-98 -28 c-3 -19 -25 -34 -42 -27 -9 3 -7 11 8 28 22 26 38 25 34 -1z m-180 -23 c-10 -11 -15 -24 -12 -29 3 -5 -2 -16 -12 -23 -14 -11 -15 -11 -5 0 13 16 6 44 -10 34 -6 -3 -7 -1 -3 5 4 7 2 12 -5 12 -7 0 -9 3 -6 6 4 4 13 2 20 -5 11 -9 17 -8 27 4 7 8 15 15 18 15 3 0 -3 -9 -12 -19z m49 -81 c-3 -18 0 -28 5 -25 6 4 10 2 10 -4 0 -6 6 -8 14 -5 8 3 17 0 21 -5 3 -6 12 -8 18 -5 7 4 9 3 4 -1 -9 -10 -48 -15 -42 -5 5 9 -27 6 -43 -4 -6 -4 -16 -4 -22 -1 -5 3 -10 1 -10 -4 0 -6 -5 -11 -12 -11 -9 0 -9 3 1 13 6 6 17 12 24 12 7 0 12 11 12 25 0 23 11 50 20 50 2 0 2 -14 0 -30z m-334 3 c13 -16 12 -17 -3 -4 -17 13 -22 21 -14 21 2 0 10 -8 17 -17z m149 -7 c0 -2 -8 -10 -17 -17 -16 -13 -17 -12 -4 4 13 16 21 21 21 13z m486 -25 c-13 -12 -18 -13 -28 -2 -11 10 -9 11 6 5 12 -5 17 -4 13 3 -3 5 1 10 9 10 13 0 13 -2 0 -16z m-602 1 c2 -4 -5 -9 -17 -9 -17 -2 -19 0 -7 7 18 12 18 12 24 2z m73 -6 c0 -8 -6 -12 -15 -9 -11 5 -11 7 0 14 7 5 13 9 14 9 0 0 1 -6 1 -14z m80 -1 c0 -5 -15 -11 -34 -11 -27 -1 -31 1 -17 10 19 15 51 15 51 1z m485 -17 c-8 -8 -8 -17 -1 -30 5 -10 7 -23 3 -29 -3 -6 2 -9 12 -7 11 2 18 -2 17 -9 -2 -7 1 -13 5 -13 4 0 14 6 21 13 11 10 12 8 3 -9 -6 -12 -9 -23 -7 -26 3 -3 -2 -5 -10 -5 -8 0 -15 4 -15 8 0 5 -8 6 -17 3 -15 -5 -15 -4 -3 5 8 5 11 13 7 17 -3 4 -13 1 -21 -5 -11 -10 -17 -8 -25 6 -6 10 -11 14 -11 9 0 -5 -10 -1 -22 10 -21 19 -21 19 -14 0 6 -16 4 -17 -9 -6 -15 12 -15 14 -1 22 9 5 16 14 16 21 0 7 -4 6 -10 -3 -8 -12 -10 -12 -10 -1 0 11 -3 11 -15 1 -8 -7 -15 -9 -15 -6 0 4 -9 2 -19 -4 -15 -7 -22 -7 -27 2 -4 7 -4 10 0 6 5 -4 17 2 29 12 11 11 24 17 29 14 4 -3 20 -7 34 -10 18 -3 23 -1 18 7 -4 7 -3 9 3 6 6 -4 18 2 28 13 13 14 22 17 29 10 7 -7 6 -14 -2 -22z m-411 -7 c-6 -10 -7 -22 -3 -26 4 -5 1 -5 -6 -1 -9 5 -9 12 -2 27 6 10 13 19 16 19 2 0 0 -8 -5 -19z m-484 -6 c0 -8 -4 -12 -9 -9 -5 3 -6 10 -3 15 9 13 12 11 12 -6z m77 3 c-5 -8 -2 -9 11 -4 18 7 18 6 2 -12 -16 -17 -16 -20 -2 -25 8 -4 15 -1 15 5 0 6 3 9 6 6 9 -10 -20 -49 -32 -44 -6 2 -18 -1 -25 -7 -11 -10 -11 -9 -1 5 10 13 10 17 0 21 -10 4 -9 9 5 20 10 8 17 19 16 23 -2 14 0 24 7 24 3 0 2 -5 -2 -12z m499 -14 c-3 -8 -9 -14 -14 -14 -5 0 -9 -4 -9 -10 0 -5 8 -7 18 -4 15 5 15 4 2 -6 -13 -10 -13 -11 2 -6 11 3 26 -3 39 -17 13 -13 20 -16 17 -7 -3 8 2 20 10 26 11 8 6 10 -19 10 -35 -1 -49 22 -20 32 9 3 11 0 6 -9 -5 -8 0 -6 12 4 20 18 38 23 29 9 -6 -11 22 -52 35 -52 6 0 7 6 3 13 -4 6 -3 8 1 4 17 -15 12 -33 -10 -43 -19 -10 -22 -8 -19 13 3 30 -4 30 -15 0 -5 -13 -16 -24 -25 -24 -8 0 -13 4 -11 8 6 9 -20 31 -28 23 -3 -3 -12 -2 -19 2 -7 5 -19 9 -26 10 -8 2 -17 6 -20 10 -4 4 1 4 12 0 14 -5 17 -2 12 9 -3 8 0 14 7 12 7 -1 11 6 9 15 -2 12 2 16 12 12 8 -3 12 -12 9 -20z m-423 12 c0 -2 -8 -10 -17 -17 -16 -13 -17 -12 -4 4 13 16 21 21 21 13z m270 -2 c0 -8 -19 -13 -24 -6 -3 5 1 9 9 9 8 0 15 -2 15 -3z m-397 -33 c5 -1 5 -5 2 -11 -3 -5 -1 -10 5 -10 6 0 8 -5 5 -10 -4 -6 -11 -8 -16 -4 -5 3 -15 1 -22 -5 -10 -7 -13 -3 -12 18 0 20 4 28 15 26 8 -2 19 -4 23 -4z m120 -32 c-6 -6 -9 -19 -6 -28 4 -14 3 -14 -6 -1 -6 9 -7 18 -1 24 17 17 11 29 -7 15 -16 -13 -17 -12 -4 4 10 12 17 15 25 7 7 -7 7 -13 -1 -21z m42 17 c-10 -7 -15 -18 -11 -24 3 -6 3 -13 -2 -16 -5 -3 -8 7 -8 23 0 20 5 27 19 28 18 2 18 1 2 -11z m305 8 c0 -8 -19 -13 -24 -6 -3 5 1 9 9 9 8 0 15 -2 15 -3z m290 -10 c0 -1 -8 -8 -17 -15 -14 -12 -16 -12 -8 0 6 11 4 13 -8 8 -9 -3 -19 -3 -21 2 -3 4 8 7 25 7 16 0 29 -1 29 -2z m57 -92 c-3 10 -2 20 4 23 5 4 8 1 7 -7 -2 -7 5 -12 14 -12 10 1 15 -2 12 -7 -3 -5 -12 -9 -20 -9 -8 0 -12 -5 -9 -10 4 -6 1 -9 -7 -8 -7 2 -16 11 -20 21 -5 11 -13 15 -19 11 -8 -5 -9 -3 -4 6 6 10 4 12 -8 7 -11 -4 -14 -2 -10 9 4 12 11 10 36 -13 20 -18 28 -22 24 -11z m-1777 16 c0 -4 -4 -8 -9 -8 -6 0 -12 4 -15 8 -3 5 1 9 9 9 8 0 15 -4 15 -9z m1570 6 c0 -8 -19 -13 -24 -6 -3 5 1 9 9 9 8 0 15 -2 15 -3z m5 -43 c-9 -8 -36 -10 -30 -2 2 4 11 8 20 8 8 0 13 -3 10 -6z m90 -1 c-3 -5 -14 -10 -23 -9 -14 0 -13 2 3 9 27 11 27 11 20 0z m237 -35 c11 3 17 1 14 -3 -4 -4 -13 -7 -19 -7 -7 0 -11 -8 -11 -18 1 -9 -2 -14 -8 -11 -5 3 -17 0 -26 -7 -9 -7 -14 -9 -10 -5 4 5 2 16 -5 25 -10 14 -10 14 4 3 13 -10 19 -10 28 2 8 10 9 16 1 21 -5 3 -10 12 -10 18 0 7 5 4 10 -5 6 -10 19 -15 32 -13z m-86 2 c5 -4 0 -5 -10 -1 -12 4 -17 4 -13 -2 3 -6 -7 -10 -22 -9 -15 0 -28 5 -28 11 0 12 61 13 73 1z m8 -35 c3 -5 -1 -9 -9 -9 -8 0 -12 4 -9 9 3 4 7 8 9 8 2 0 6 -4 9 -8z m113 -18 c-9 -9 -28 6 -21 18 4 6 10 6 17 -1 6 -6 8 -13 4 -17z m29 0 c1 -9 0 -13 -4 -10 -3 4 -7 14 -8 22 -1 9 0 13 4 10 3 -4 7 -14 8 -22z m-92 -23 c4 -5 -3 -7 -14 -4 -23 6 -26 13 -6 13 8 0 17 -4 20 -9z m81 -1 c3 -5 0 -12 -6 -16 -8 -4 -9 -3 -5 4 4 7 3 12 -3 12 -5 0 -12 -4 -15 -8 -7 -12 9 -33 24 -30 7 2 15 -4 17 -12 4 -13 3 -13 -6 0 -7 10 -11 11 -11 3 0 -21 -18 -15 -25 8 -5 16 -10 18 -21 8 -8 -6 -14 -8 -14 -3 0 4 -5 3 -12 -4 -17 -17 -24 -15 -25 10 -1 13 1 18 5 13 4 -6 15 -10 24 -10 20 0 37 15 17 15 -10 0 -11 2 -2 8 17 11 52 12 58 2z m-111 -42 c-3 -5 2 -11 11 -15 10 -3 20 -1 24 4 4 7 15 7 29 2 13 -5 21 -13 17 -18 -3 -6 -13 -7 -22 -4 -11 4 -14 3 -9 -6 4 -6 3 -18 -4 -26 -7 -9 -8 -15 0 -20 5 -3 10 -1 10 6 0 7 6 4 14 -6 8 -11 12 -25 9 -32 -3 -8 0 -11 9 -8 8 3 21 -2 29 -11 9 -12 10 -15 2 -10 -8 4 -13 1 -13 -8 0 -21 9 -20 34 2 21 17 21 17 4 -4 -24 -28 -23 -41 2 -19 16 15 23 16 33 6 9 -10 9 -11 -5 -6 -18 7 -43 -26 -30 -40 4 -4 -3 -2 -15 6 -12 7 -20 15 -18 18 3 2 0 10 -6 17 -6 8 -8 21 -5 30 4 10 2 14 -6 11 -7 -2 -12 -10 -11 -18 2 -9 -7 -14 -26 -14 -20 0 -27 4 -23 14 4 10 1 12 -9 7 -8 -4 -4 1 8 12 14 12 18 23 12 29 -14 14 -20 55 -7 47 6 -4 9 -1 6 7 -3 8 -17 14 -31 14 -14 -1 -23 4 -20 9 4 5 -1 7 -10 3 -11 -4 -21 1 -28 16 -7 12 -8 19 -4 15 4 -4 14 0 23 8 12 12 17 13 23 3 4 -7 5 -17 3 -21z m-104 -21 c0 -2 -10 -12 -22 -23 l-23 -19 19 23 c18 21 26 27 26 19z m220 -27 c6 -11 8 -20 6 -20 -3 0 -10 9 -16 20 -6 11 -8 20 -6 20 3 0 10 -9 16 -20z m-216 -8 c3 -5 -1 -9 -9 -9 -8 0 -12 4 -9 9 3 4 7 8 9 8 2 0 6 -4 9 -8z m61 -12 c-3 -5 -12 -10 -18 -10 -7 0 -6 4 3 10 19 12 23 12 15 0z m-40 -10 c-3 -5 -1 -10 5 -10 7 0 21 -12 32 -26 12 -14 27 -23 35 -20 8 4 11 1 8 -5 -4 -6 -13 -8 -19 -6 -7 3 -18 -5 -26 -16 -7 -12 -9 -19 -5 -15 4 4 14 0 22 -8 8 -8 18 -12 22 -10 4 3 8 -1 8 -8 0 -15 -27 -17 -44 -3 -9 6 -18 6 -27 -2 -10 -9 -19 -7 -37 9 -14 11 -18 19 -11 20 7 0 10 5 7 10 -4 6 -10 8 -14 6 -4 -3 -13 0 -21 6 -12 8 -12 9 3 4 17 -5 21 3 18 37 -1 9 3 17 9 17 7 0 10 -6 7 -14 -3 -7 0 -19 6 -26 9 -10 9 -11 0 -6 -7 4 -13 3 -13 -3 0 -13 35 -32 43 -24 4 3 2 14 -4 24 -5 11 -6 19 -2 19 4 0 1 5 -7 10 -12 8 -12 10 5 11 12 0 7 5 -15 11 -34 11 -34 11 -10 18 14 5 26 8 28 9 2 1 0 -3 -3 -9z m180 -10 c10 -11 16 -20 13 -20 -3 0 -13 9 -23 20 -10 11 -16 20 -13 20 3 0 13 -9 23 -20z m-247 -10 c-12 -19 -28 -27 -28 -14 0 6 30 33 38 34 1 0 -3 -9 -10 -20z m137 11 c-9 -8 -36 -10 -30 -2 2 4 11 8 20 8 8 0 13 -3 10 -6z m230 -51 c-3 -5 2 -16 11 -24 9 -9 11 -16 4 -16 -6 0 -8 -5 -5 -10 4 -6 1 -17 -5 -25 -9 -11 -9 -19 -2 -28 7 -8 7 -18 2 -27 -5 -8 -6 -18 -3 -24 3 -5 1 -6 -5 -2 -6 4 -9 13 -5 21 3 8 0 16 -6 16 -32 4 -36 6 -33 18 1 7 -3 11 -10 8 -7 -2 -12 -13 -10 -23 3 -19 3 -19 -11 0 -8 10 -19 16 -25 12 -6 -3 -14 -1 -18 5 -4 7 -3 10 2 7 12 -8 56 10 50 20 -7 12 12 38 21 28 4 -5 3 -11 -4 -13 -8 -3 -5 -11 8 -24 12 -12 24 -18 27 -14 4 3 2 9 -4 13 -14 10 -12 65 4 75 7 5 9 13 6 19 -4 7 -2 8 5 4 6 -4 9 -11 6 -16z m-375 5 c0 -7 -30 -13 -34 -7 -3 4 4 9 15 9 10 1 19 0 19 -2z m-142 -28 c9 -11 5 -13 -18 -13 -16 0 -27 3 -24 7 2 5 12 5 21 2 11 -4 14 -3 9 5 -10 16 -1 15 12 -1z m92 7 c0 -8 -19 -13 -24 -6 -3 5 1 9 9 9 8 0 15 -2 15 -3z m-40 -10 c0 -8 -19 -13 -24 -6 -3 5 1 9 9 9 8 0 15 -2 15 -3z m250 0 c0 -8 -19 -13 -24 -6 -3 5 1 9 9 9 8 0 15 -2 15 -3z m-148 -23 c-12 -7 -62 -4 -62 5 0 2 17 4 38 4 23 0 32 -3 24 -9z m-666 -34 c2 -14 -1 -29 -7 -33 -8 -5 -9 -2 -4 7 6 11 5 11 -5 2 -22 -21 0 -36 23 -16 19 15 19 14 -2 -9 -28 -32 -62 -34 -54 -3 3 11 5 28 4 38 0 12 5 17 14 13 8 -3 17 0 21 6 4 7 3 8 -4 4 -8 -5 -10 -2 -6 9 8 20 14 15 20 -18z m574 29 c0 -2 -7 -7 -16 -10 -8 -3 -12 -2 -9 4 6 10 25 14 25 6z m497 -21 c0 -8 -4 -12 -9 -9 -5 3 -6 10 -3 15 9 13 12 11 12 -6z m-587 -3 c0 -5 -7 -9 -15 -9 -8 0 -15 4 -15 9 0 4 7 8 15 8 8 0 15 -4 15 -8z m10 -27 c-7 -9 -15 -13 -19 -10 -3 3 1 10 9 15 21 14 24 12 10 -5z m175 5 c-3 -5 -11 -10 -16 -10 -6 0 -7 5 -4 10 3 6 11 10 16 10 6 0 7 -4 4 -10z m139 2 c2 -4 -5 -9 -17 -9 -17 -2 -19 0 -7 7 18 12 18 12 24 2z m65 -22 c7 0 10 -4 6 -9 -3 -6 -14 -9 -25 -8 -10 1 -16 5 -13 10 2 4 -1 16 -8 25 -12 15 -12 15 7 0 11 -10 26 -18 33 -18z m-924 10 c-3 -5 -12 -10 -18 -10 -7 0 -6 4 3 10 19 12 23 12 15 0z m781 -17 c-10 -10 -19 5 -10 18 6 11 8 11 12 0 2 -7 1 -15 -2 -18z m-489 2 c0 -8 -4 -12 -9 -9 -5 3 -6 10 -3 15 9 13 12 11 12 -6z m87 -16 c-2 -5 -14 -1 -24 9 -26 22 -25 24 5 10 13 -6 22 -15 19 -19z m116 11 c-7 -4 -10 -12 -7 -17 3 -5 1 -10 -6 -11 -39 -3 -70 -19 -63 -31 3 -4 -10 -7 -29 -6 -19 2 -35 -1 -35 -6 0 -9 24 -13 70 -11 13 1 28 -4 32 -11 5 -9 11 -8 24 5 12 12 13 16 3 15 -8 -1 -15 3 -16 8 -2 6 18 10 46 10 33 0 55 6 69 18 15 14 22 15 28 6 4 -7 3 -10 -3 -6 -6 4 -13 0 -17 -8 -4 -10 1 -15 14 -15 19 0 25 11 20 35 -1 5 8 1 19 -9 14 -13 37 -19 69 -20 28 -1 46 -5 45 -12 -1 -6 8 -10 20 -9 12 1 22 3 22 4 0 2 10 4 23 7 16 3 21 0 16 -8 -4 -6 -3 -8 4 -4 6 3 13 2 17 -4 4 -6 -8 -10 -30 -10 -20 0 -34 -4 -31 -9 8 -13 53 -5 83 14 14 9 23 13 20 7 -4 -5 4 -7 18 -4 19 3 24 1 20 -10 -4 -9 -16 -14 -30 -12 -14 1 -27 -2 -31 -7 -3 -5 -16 -9 -30 -9 -13 0 -24 -4 -24 -10 0 -5 -3 -9 -7 -8 -5 1 -21 -2 -36 -7 -33 -9 -51 4 -41 30 7 17 8 17 21 -1 7 -10 13 -12 13 -6 0 7 1 15 3 19 1 4 -21 8 -50 10 -47 3 -52 1 -48 -16 4 -24 -19 -35 -35 -17 -8 10 -7 15 5 20 9 3 13 10 10 16 -4 6 5 10 19 10 14 0 27 4 30 9 3 4 -5 7 -17 7 -12 -1 -27 2 -34 7 -19 14 -37 -2 -22 -19 9 -11 7 -14 -15 -14 -16 0 -25 4 -21 10 3 6 3 11 -2 11 -35 6 -52 5 -47 -2 2 -4 11 -6 19 -2 8 3 15 1 15 -5 0 -13 -59 -21 -67 -9 -3 6 -1 7 5 3 7 -4 12 -3 12 3 0 22 -19 19 -34 -4 -18 -27 -60 -34 -70 -12 -3 6 -4 3 -3 -8 2 -11 9 -19 15 -17 7 1 11 -3 10 -9 -5 -21 17 -20 40 1 12 12 22 17 22 12 0 -6 8 -9 18 -8 9 0 16 -5 15 -11 -2 -7 2 -13 7 -13 6 0 10 5 10 11 0 6 7 8 16 5 9 -3 12 -2 9 5 -4 6 -13 8 -20 5 -7 -2 -15 1 -18 7 -3 8 8 12 29 13 19 0 32 -1 29 -4 -2 -3 3 -11 13 -19 9 -8 11 -12 4 -8 -7 4 -19 1 -27 -5 -8 -7 -15 -9 -15 -5 0 4 -7 1 -16 -6 -27 -22 -95 -19 -122 5 -23 20 -24 20 -37 2 -13 -18 -14 -18 -12 2 0 11 5 18 9 16 14 -9 8 13 -7 26 -17 14 -38 3 -31 -17 4 -8 1 -11 -5 -8 -6 4 -8 13 -5 20 3 10 -5 12 -35 10 -21 -2 -42 1 -45 6 -3 5 -10 9 -16 9 -6 0 -5 -7 3 -17 11 -15 9 -14 -9 1 -12 11 -25 16 -28 13 -4 -4 -20 5 -36 18 -16 14 -35 22 -41 18 -7 -3 -4 3 6 14 14 16 28 20 58 18 22 -2 37 1 33 6 -9 15 12 10 25 -5 9 -10 9 -15 1 -18 -7 -2 -4 -10 7 -20 14 -13 22 -14 33 -7 13 9 12 10 -2 5 -10 -3 -20 -2 -22 3 -6 10 26 11 39 1 17 -12 73 -5 92 12 18 16 21 18 46 18 8 0 7 4 -3 10 -13 8 -12 10 3 10 10 0 15 4 12 10 -3 6 1 7 10 3 12 -4 13 -8 5 -13z m185 8 c3 -2 -1 -5 -7 -5 -7 -1 -33 -4 -58 -7 -37 -5 -42 -4 -27 6 16 12 82 16 92 6z m70 3 c-8 -15 16 -26 60 -27 22 -1 53 -2 68 -3 16 -1 26 -5 23 -10 -3 -5 -24 -6 -47 -4 -25 3 -39 1 -36 -4 4 -5 0 -10 -8 -10 -8 0 -13 4 -12 8 2 8 -3 9 -30 9 -17 -1 -17 -1 0 -11 9 -5 17 -15 17 -21 0 -6 -10 -2 -22 9 -17 15 -33 20 -59 17 -26 -3 -36 0 -36 10 0 8 8 17 18 19 12 3 16 0 12 -9 -4 -11 0 -12 18 -5 13 4 25 13 25 20 2 18 4 21 10 21 3 0 3 -4 -1 -9z m75 -5 c0 -11 -19 -15 -25 -6 -3 5 1 10 9 10 9 0 16 -2 16 -4z m-719 -21 c9 2 22 0 28 -4 7 -5 -8 -8 -33 -7 -36 0 -43 3 -34 14 6 7 14 9 17 4 3 -5 13 -8 22 -7z m239 -1 c0 -8 -19 -13 -24 -6 -3 5 1 9 9 9 8 0 15 -2 15 -3z m620 -29 c-6 -7 -33 -12 -62 -12 -29 0 -42 2 -28 4 14 3 28 8 32 11 4 4 21 7 37 7 21 1 27 -2 21 -10z m-236 -80 c-3 -7 -1 -16 5 -20 6 -3 11 -12 11 -18 0 -7 -4 -6 -10 3 -5 8 -10 10 -10 5 0 -6 -10 -16 -22 -24 -18 -10 -20 -11 -10 0 6 7 12 18 12 24 -1 5 -9 -1 -20 -14 -11 -12 -18 -27 -15 -31 3 -5 0 -12 -6 -16 -8 -4 -9 -3 -5 5 6 8 1 10 -17 6 -17 -5 -26 -2 -30 9 -5 12 0 16 16 16 21 1 21 1 -3 15 l-25 14 33 -1 c28 -1 32 -4 27 -22 -6 -21 -6 -21 6 -1 15 25 30 35 41 29 5 -3 7 6 4 20 -3 18 -1 23 9 20 8 -3 11 -12 9 -19z m321 11 c11 -1 26 2 33 7 8 6 12 5 12 -2 0 -7 4 -9 10 -6 5 3 7 0 4 -9 -3 -8 -12 -17 -20 -20 -9 -4 -12 -2 -8 5 4 8 -10 9 -47 4 -30 -3 -77 -7 -105 -8 -38 -1 -51 -4 -47 -14 5 -11 -22 -19 -50 -14 -4 1 -16 -3 -26 -9 -14 -7 -22 -5 -32 8 -7 9 -9 14 -5 10 5 -4 16 -2 24 4 8 7 24 13 36 13 29 1 67 15 62 23 -2 4 11 7 29 7 19 0 31 -4 28 -10 -3 -5 0 -5 7 2 7 6 19 9 28 6 10 -4 13 -2 8 5 -4 7 1 9 16 6 13 -3 32 -6 43 -8z m-791 -4 c3 -5 -1 -9 -9 -9 -8 0 -12 4 -9 9 3 4 7 8 9 8 2 0 6 -4 9 -8z m966 -28 c0 -8 -19 -13 -24 -6 -3 5 1 9 9 9 8 0 15 -2 15 -3z m-634 -26 c4 -7 3 -8 -4 -4 -7 4 -12 3 -12 -1 0 -5 -10 -14 -22 -22 -22 -13 -22 -13 1 13 28 30 28 30 37 14z m10 -40 c4 -7 3 -8 -4 -4 -7 4 -12 2 -12 -5 0 -7 -3 -10 -6 -6 -6 5 3 27 11 27 2 0 7 -5 11 -12z m94 -62 c0 -2 -7 -7 -16 -10 -8 -3 -12 -2 -9 4 6 10 25 14 25 6z m235 -138 c5 4 4 1 0 -7 -6 -11 -4 -13 11 -7 15 6 17 5 6 -6 -10 -10 -17 -8 -35 12 -12 13 -15 19 -6 12 9 -7 20 -8 24 -4z m715 -24 c0 -2 -7 -4 -15 -4 -8 0 -15 4 -15 10 0 5 7 7 15 4 8 -4 15 -8 15 -10z m-112 -29 c-3 -3 -9 2 -12 12 -6 14 -5 15 5 6 7 -7 10 -15 7 -18z m331 11 c9 -11 8 -15 -5 -20 -24 -9 -42 -6 -19 4 11 5 14 9 8 9 -14 1 -18 21 -4 21 5 0 14 -6 20 -14z m-219 -38 c0 -5 -8 -9 -17 -9 -17 -1 -17 -2 0 -6 25 -7 21 -22 -5 -21 -24 2 -71 28 -50 28 7 0 11 4 8 8 -3 5 11 8 29 8 19 -1 35 -4 35 -8z m-166 -33 c-4 -8 -8 -15 -10 -15 -2 0 -4 7 -4 15 0 8 4 15 10 15 5 0 7 -7 4 -15z m36 -20 c8 -9 8 -15 2 -15 -6 0 -13 6 -16 13 -3 6 -3 2 0 -10 3 -15 1 -23 -8 -23 -8 0 -14 -9 -14 -20 0 -13 4 -16 10 -10 6 6 15 10 21 10 11 -1 -24 -30 -36 -30 -11 0 -7 43 5 59 8 11 8 13 -1 8 -6 -4 -22 -3 -35 2 -23 10 -23 10 4 10 15 1 30 6 33 11 9 14 21 12 35 -5z m-487 -19 c0 -11 4 -15 13 -12 17 6 19 -10 3 -20 -13 -8 -30 16 -22 29 3 5 -1 14 -8 19 -12 8 -11 9 1 5 8 -2 14 -12 13 -21z m537 1 c-20 -17 -23 -37 -5 -37 8 0 15 6 15 13 1 6 7 0 15 -15 11 -19 21 -26 37 -23 15 3 18 1 11 -6 -6 -6 -34 -12 -62 -12 -56 -2 -64 -11 -26 -29 28 -13 32 -26 10 -34 -8 -4 -12 -10 -9 -15 3 -5 -2 -6 -10 -3 -14 5 -14 8 -1 21 21 21 19 26 -10 21 -20 -4 -23 -2 -15 8 8 9 6 14 -10 19 -17 5 -19 10 -9 21 6 7 16 11 22 7 5 -3 7 -1 4 4 -4 6 0 16 8 23 8 7 12 16 9 21 -8 13 5 29 24 29 15 -1 15 -2 2 -13z m-166 -56 c-3 -3 -15 6 -27 18 l-22 24 27 -19 c14 -10 24 -21 22 -23z m230 27 c-6 -10 -4 -10 7 0 16 14 33 16 24 2 -3 -5 0 -10 8 -10 8 0 20 -6 27 -14 13 -16 44 -10 33 7 -3 6 -1 7 6 3 6 -4 9 -11 6 -16 -3 -4 2 -11 11 -14 10 -4 13 -2 8 6 -4 7 -3 8 5 4 21 -14 6 -30 -30 -32 -46 -2 -47 -3 -25 -15 14 -9 20 -8 27 2 6 10 9 11 9 2 0 -7 7 -13 15 -13 8 0 15 -5 15 -11 0 -5 -5 -7 -11 -4 -6 4 -13 -2 -16 -14 -3 -11 -10 -18 -15 -15 -5 3 -7 12 -4 20 3 8 1 14 -4 14 -6 0 -10 -5 -10 -11 0 -5 -8 -9 -17 -7 -10 1 -23 -1 -30 -5 -7 -5 -9 -1 -6 13 4 16 9 18 25 9 17 -9 18 -8 11 8 -5 10 -8 28 -8 40 1 12 -2 20 -7 17 -5 -3 -15 -1 -22 5 -7 6 -22 9 -34 6 -19 -3 -21 -1 -12 16 6 10 13 19 16 19 3 0 2 -6 -2 -12z m-249 -38 c3 -5 1 -10 -4 -10 -6 0 -11 5 -11 10 0 6 2 10 4 10 3 0 8 -4 11 -10z m282 -25 c0 -8 -4 -15 -8 -15 -5 0 -6 -7 -2 -16 5 -13 2 -15 -15 -10 -24 8 -39 -9 -16 -18 20 -8 11 -19 -19 -23 -17 -2 -19 -1 -7 7 13 9 13 10 0 10 -9 1 -2 12 20 30 19 17 30 30 25 30 -7 0 12 18 21 20 0 0 1 -7 1 -15z m-47 -5 c-20 -13 -43 -13 -35 0 3 6 16 10 28 10 18 0 19 -2 7 -10z m-136 -16 c3 -8 2 -12 -4 -9 -6 3 -10 10 -10 16 0 14 7 11 14 -7z m336 -7 c0 -2 -13 -16 -30 -32 -29 -28 -30 -28 -30 -7 0 12 3 21 8 21 19 -3 33 2 27 11 -3 6 1 10 9 10 9 0 16 -1 16 -3z m-260 -61 c0 -2 -7 -7 -16 -10 -8 -3 -12 -2 -9 4 6 10 25 14 25 6z m105 -6 c4 -6 11 -8 16 -4 6 3 24 8 41 11 24 4 30 1 25 -10 -3 -9 0 -14 11 -13 10 1 17 -7 18 -21 1 -14 -3 -20 -12 -16 -8 3 -11 9 -8 14 3 5 -8 12 -25 15 -19 4 -28 11 -24 18 3 6 2 7 -3 3 -5 -5 -10 -13 -10 -18 -1 -5 -2 -13 -3 -19 0 -5 -5 -10 -11 -10 -5 0 -9 3 -9 8 3 19 -2 33 -11 27 -13 -8 -32 4 -25 16 8 12 22 12 30 -1z m-67 -25 c-3 -3 -9 2 -12 12 -6 14 -5 15 5 6 7 -7 10 -15 7 -18z m259 18 c-4 -3 3 -17 15 -30 29 -31 20 -41 -59 -57 -7 -1 -21 -10 -33 -21 -16 -15 -23 -16 -33 -6 -9 10 -8 11 6 6 9 -4 17 -4 17 0 0 4 -8 14 -17 21 -16 11 -14 12 14 9 18 -2 35 0 38 6 4 5 12 6 18 3 7 -4 9 -4 5 1 -4 4 -1 17 7 27 7 11 11 27 8 34 -3 8 1 14 8 14 7 0 9 -3 6 -7z m-900 -48 c1 -18 -1 -22 -4 -10 -3 11 -10 25 -15 30 -8 7 -9 4 -5 -8 4 -11 3 -16 -3 -12 -17 11 -11 37 8 33 11 -2 18 -13 19 -33z m863 9 c0 -8 -8 -14 -17 -13 -10 0 -13 3 -6 5 7 3 9 12 6 21 -4 11 -2 14 5 9 7 -4 12 -14 12 -22z m-90 -14 c0 -18 -34 -29 -55 -17 -19 11 -18 12 10 18 44 10 45 10 45 -1z m121 -63 c-10 -9 -11 -8 -5 6 3 10 9 15 12 12 3 -3 0 -11 -7 -18z m-841 -6 c0 -6 -9 -9 -19 -8 -11 0 -17 5 -15 9 7 11 34 10 34 -1z m790 -25 c0 -2 -7 -7 -16 -10 -8 -3 -12 -2 -9 4 6 10 25 14 25 6z" fill="#ffffff"/>
<path d="M570 6385 c7 -8 16 -12 21 -9 16 9 10 20 -12 21 -17 2 -18 -1 -9 -12z" fill="#ffffff"/>
<path d="M2526 4591 c-8 -12 8 -54 25 -67 8 -6 29 -16 47 -22 29 -10 32 -9 32 8 0 11 -7 25 -16 32 -8 7 -25 23 -36 36 -23 23 -43 28 -52 13z" fill="#ffffff"/>
<path d="M2385 4575 c-3 -8 -7 -22 -10 -30 -6 -20 -28 -19 -70 5 -45 25 -45 25 -45 -4 0 -27 -28 -56 -38 -39 -15 22 -53 35 -68 22 -25 -20 -17 -57 16 -74 39 -20 70 -19 70 3 0 9 5 24 10 32 8 12 13 11 39 -8 39 -29 81 -30 81 -2 0 32 24 34 79 6 l51 -26 0 38 c0 36 -3 39 -55 65 -46 23 -56 25 -60 12z" fill="#ffffff"/>
<path d="M2016 4481 c-13 -20 7 -62 36 -77 16 -9 31 -14 33 -12 9 12 25 49 25 61 0 8 -10 17 -22 20 -13 3 -33 8 -44 12 -12 4 -25 2 -28 -4z" fill="#ffffff"/>
<path d="M2640 4407 c0 -8 18 -22 40 -32 22 -10 40 -22 40 -27 0 -4 7 -8 16 -8 27 0 11 42 -23 61 -22 12 -33 15 -33 7 0 -9 -3 -9 -12 0 -16 16 -28 15 -28 -1z" fill="#ffffff"/>
<path d="M1627 4303 c-3 -15 1 -39 8 -54 15 -28 59 -62 69 -52 11 12 6 83 -6 83 -7 0 -24 12 -39 26 l-26 25 -6 -28z" fill="#ffffff"/>
<path d="M1532 4190 c-1 -29 5 -44 20 -54 27 -19 38 -12 38 25 0 20 -8 38 -22 50 -32 26 -36 24 -36 -21z" fill="#ffffff"/>
<path d="M2255 4211 c-11 -5 -26 -6 -32 -4 -8 3 -13 -3 -13 -16 0 -17 6 -21 33 -21 41 0 62 13 54 34 -7 18 -12 18 -42 7z" fill="#ffffff"/>
<path d="M2395 4140 c-3 -5 -21 -10 -40 -10 -38 0 -48 -9 -35 -30 7 -11 14 -12 35 -2 14 7 36 12 48 13 12 0 17 3 10 5 -7 3 -9 12 -6 20 6 16 -3 19 -12 4z" fill="#ffffff"/>
<path d="M2616 4041 c-4 -5 4 -22 17 -36 20 -24 25 -26 50 -14 43 20 36 30 -40 53 -12 4 -24 2 -27 -3z" fill="#ffffff"/>
<path d="M2680 3859 c0 -6 9 -24 21 -40 15 -22 28 -29 53 -29 40 0 55 16 47 49 -5 20 -13 24 -64 27 -38 3 -57 1 -57 -7z" fill="#ffffff"/>
<path d="M5259 1650 c-13 -14 -14 -21 -5 -30 8 -10 7 -12 -5 -7 -9 3 -16 0 -16 -9 0 -27 42 11 44 40 1 14 1 26 0 25 -1 0 -9 -9 -18 -19z" fill="#ffffff"/>
<path d="M5366 1539 c-15 -14 -16 -19 -5 -19 12 0 11 -2 -1 -10 -12 -8 -12 -10 5 -10 15 0 17 -2 6 -9 -9 -6 -10 -11 -2 -15 6 -4 8 -12 5 -18 -4 -6 -3 -8 3 -5 10 7 9 54 -1 64 -3 4 -1 12 6 20 17 21 5 23 -16 2z" fill="#ffffff"/>
<path d="M5330 1491 c0 -6 4 -13 10 -16 6 -3 7 1 4 9 -7 18 -14 21 -14 7z" fill="#ffffff"/>
<path d="M4560 1480 c0 -13 18 -22 24 -11 3 5 -1 11 -9 15 -8 3 -15 1 -15 -4z" fill="#ffffff"/>
<path d="M5125 1500 c3 -5 8 -10 11 -10 2 0 4 5 4 10 0 6 -5 10 -11 10 -5 0 -7 -4 -4 -10z" fill="#ffffff"/>
<path d="M5377 1213 c-4 -3 -7 -11 -7 -17 0 -6 5 -5 12 2 6 6 9 14 7 17 -3 3 -9 2 -12 -2z" fill="#ffffff"/>
<path d="M5451 1081 c-10 -6 -9 -10 3 -14 8 -3 18 -2 21 3 8 13 -9 20 -24 11z" fill="#ffffff"/>
<path d="M5336 1081 c-3 -5 0 -14 8 -20 10 -9 15 -8 19 3 9 22 -15 37 -27 17z" fill="#ffffff"/>
<path d="M5613 1049 c3 -9 0 -22 -6 -28 -8 -8 -8 -11 2 -11 7 0 9 -5 5 -12 -4 -7 -3 -8 5 -4 11 7 8 53 -5 65 -4 3 -5 -1 -1 -10z" fill="#ffffff"/>
<path d="M4557 929 c7 -7 15 -10 18 -7 3 3 -2 9 -12 12 -14 6 -15 5 -6 -5z" fill="#ffffff"/>
<path d="M4736 904 c-3 -7 7 -10 27 -8 23 3 28 1 17 -5 -8 -6 -18 -7 -22 -5 -4 3 -8 1 -8 -5 0 -16 18 -22 23 -9 4 10 8 9 16 -2 6 -8 11 -10 12 -5 0 6 2 19 3 30 2 16 -4 20 -31 20 -18 0 -35 -5 -37 -11z" fill="#ffffff"/>
<path d="M4860 866 c-9 -12 -8 -15 8 -13 12 0 18 6 15 14 -6 16 -8 16 -23 -1z" fill="#ffffff"/>
<path d="M5205 829 c-4 -6 -5 -12 -2 -15 2 -3 7 2 10 11 7 17 1 20 -8 4z" fill="#ffffff"/>
<path d="M5041 801 c-9 -6 -7 -10 8 -14 12 -3 21 -1 21 3 0 14 -15 19 -29 11z" fill="#ffffff"/>
<path d="M6091 321 c-8 -5 -9 -11 -3 -15 5 -3 12 1 16 9 6 17 6 18 -13 6z" fill="#ffffff"/>
<path d="M6390 119 c0 -5 5 -7 10 -4 6 3 10 8 10 11 0 2 -4 4 -10 4 -5 0 -10 -5 -10 -11z" fill="#ffffff"/>
<path d="M1090 6571 c-11 -8 -9 -12 13 -20 39 -15 46 -14 43 7 -3 19 -34 27 -56 13z" fill="#ffffff"/>
<path d="M1560 6560 c-9 -6 -10 -10 -3 -10 6 0 15 5 18 10 8 12 4 12 -15 0z" fill="#ffffff"/>
<path d="M2267 6533 c-4 -3 -7 -11 -7 -17 0 -6 5 -5 12 2 6 6 9 14 7 17 -3 3 -9 2 -12 -2z" fill="#ffffff"/>
<path d="M905 6512 c-25 -13 -27 -17 -11 -20 10 -2 23 1 29 7 14 14 50 15 42 1 -4 -6 1 -7 11 -3 16 6 15 7 -2 20 -22 16 -31 15 -69 -5z" fill="#ffffff"/>
<path d="M1170 6496 c0 -2 7 -7 16 -10 8 -3 12 -2 9 4 -6 10 -25 14 -25 6z" fill="#ffffff"/>
<path d="M1336 6492 c-3 -5 1 -9 9 -9 8 0 12 4 9 9 -3 4 -7 8 -9 8 -2 0 -6 -4 -9 -8z" fill="#ffffff"/>
<path d="M1185 6460 c-13 -6 -15 -9 -5 -9 8 0 22 4 30 9 18 12 2 12 -25 0z" fill="#ffffff"/>
<path d="M304 6242 c3 -5 0 -13 -6 -15 -9 -4 -10 -6 -1 -6 17 -1 25 16 12 25 -7 4 -9 3 -5 -4z" fill="#ffffff"/>
<path d="M313 6195 c0 -8 4 -12 9 -9 5 3 6 10 3 15 -9 13 -12 11 -12 -6z" fill="#ffffff"/>
<path d="M4275 3754 c-27 -25 -101 -93 -164 -152 -189 -177 -239 -232 -209 -232 17 0 74 56 163 157 39 45 81 87 95 94 49 26 198 180 173 179 -4 0 -30 -21 -58 -46z" fill="#ffffff"/>
<path d="M4406 3365 c-4 -12 -2 -13 12 -7 9 5 24 12 32 15 9 3 4 6 -11 6 -15 1 -29 -6 -33 -14z" fill="#ffffff"/>
<path d="M3285 2993 c-11 -3 -28 -11 -38 -18 -18 -13 -18 -13 2 -20 22 -7 61 13 61 32 0 7 -1 12 -2 12 -2 -1 -12 -4 -23 -6z" fill="#ffffff"/>
<path d="M2766 2353 c-14 -14 -24 -28 -21 -32 3 -3 20 9 38 27 17 18 27 32 21 32 -6 0 -23 -12 -38 -27z" fill="#ffffff"/>
<path d="M4402 2324 c10 -10 20 -16 22 -13 3 3 -5 11 -17 18 -21 13 -21 12 -5 -5z" fill="#ffffff"/>
<path d="M4425 2270 c3 -5 8 -10 11 -10 2 0 4 5 4 10 0 6 -5 10 -11 10 -5 0 -7 -4 -4 -10z" fill="#ffffff"/>
<path d="M4365 2231 c-6 -11 13 -26 22 -17 4 3 0 6 -8 6 -11 0 -11 2 1 10 9 6 10 10 3 10 -6 0 -14 -4 -18 -9z" fill="#ffffff"/>
<path d="M4403 2225 c0 -8 4 -12 9 -9 5 3 6 10 3 15 -9 13 -12 11 -12 -6z" fill="#ffffff"/>
<path d="M4474 2038 c-4 -7 -3 -8 5 -4 6 4 20 2 29 -6 15 -12 16 -11 3 5 -16 20 -27 22 -37 5z" fill="#ffffff"/>
<path d="M4570 1965 c0 -2 6 -8 13 -14 10 -8 14 -7 14 2 0 8 -6 14 -14 14 -7 0 -13 -1 -13 -2z" fill="#ffffff"/>
<path d="M4946 1948 c3 -5 10 -6 15 -3 13 9 11 12 -6 12 -8 0 -12 -4 -9 -9z" fill="#ffffff"/>
<path d="M5190 1885 c0 -6 5 -16 12 -23 9 -9 8 -12 -4 -12 -8 0 -22 -8 -29 -17 -13 -16 -12 -17 3 -5 9 8 22 11 27 8 15 -10 31 27 20 45 -7 12 -9 12 -9 -1 0 -13 -1 -13 -10 0 -5 8 -10 10 -10 5z" fill="#ffffff"/>
<path d="M5089 1862 c-11 -14 -11 -15 1 -5 9 8 19 9 32 2 10 -5 18 -7 18 -5 0 3 -9 10 -19 15 -14 8 -22 7 -32 -7z" fill="#ffffff"/>
<path d="M5137 1775 c-4 -8 -1 -17 6 -21 7 -4 9 -4 5 1 -4 4 -3 14 3 22 7 8 8 13 1 13 -5 0 -12 -7 -15 -15z" fill="#ffffff"/>
<path d="M3480 1745 c0 -14 48 -56 53 -48 7 11 -28 53 -43 53 -6 0 -10 -2 -10 -5z" fill="#ffffff"/>
<path d="M5145 1740 c-19 -8 -19 -9 3 -9 12 -1 22 4 22 9 0 6 -1 10 -2 9 -2 0 -12 -4 -23 -9z" fill="#ffffff"/>
<path d="M3890 1546 c0 -2 8 -10 18 -17 15 -13 16 -12 3 4 -13 16 -21 21 -21 13z" fill="#ffffff"/>
<path d="M3942 1485 c20 -49 89 -125 72 -81 -3 9 -10 16 -14 16 -5 0 -11 8 -15 18 -3 9 -17 31 -31 47 l-25 30 13 -30z" fill="#ffffff"/>
<path d="M3197 1433 c-22 -39 -60 -243 -45 -243 18 0 73 229 59 243 -5 5 -11 5 -14 0z" fill="#ffffff"/>
<path d="M4398 1223 c6 -3 9 -10 6 -15 -5 -7 -2 -8 6 -3 10 6 12 4 7 -8 -3 -10 -2 -17 3 -17 6 0 10 10 10 23 0 17 -6 23 -22 24 -13 0 -17 -1 -10 -4z" fill="#ffffff"/>
<path d="M4512 1034 c10 -10 20 -16 22 -13 3 3 -5 11 -17 18 -21 13 -21 12 -5 -5z" fill="#ffffff"/>
<path d="M5547 890 c2 -3 20 -5 39 -6 19 0 31 2 28 5 -3 3 -21 6 -39 6 -19 0 -31 -2 -28 -5z" fill="#ffffff"/>
<path d="M5535 750 c-4 -6 -4 -14 0 -19 3 -6 -3 -14 -12 -20 -17 -10 -17 -10 0 -11 9 0 17 5 17 11 0 5 6 7 13 3 10 -6 10 -4 0 7 -18 18 -16 30 2 23 8 -4 15 -4 15 -1 0 10 -30 16 -35 7z" fill="#ffffff"/>
<path d="M5435 700 c-4 -6 -11 -7 -17 -4 -7 4 -8 2 -4 -5 6 -9 12 -9 24 1 10 7 19 14 21 15 2 2 -1 3 -7 3 -6 0 -14 -5 -17 -10z" fill="#ffffff"/>
<path d="M5806 693 c-10 -10 -16 -12 -12 -5 4 6 2 12 -3 12 -6 0 -11 -7 -11 -16 0 -11 6 -15 20 -11 15 4 20 1 18 -11 -2 -9 2 -17 7 -17 16 -1 51 -24 37 -25 -7 0 -11 -4 -7 -10 3 -5 12 -7 20 -3 12 4 10 14 -12 54 -14 27 -29 49 -32 49 -4 0 -15 -8 -25 -17z" fill="#ffffff"/>
<path d="M5570 680 c-9 -6 -10 -10 -3 -10 6 0 15 5 18 10 8 12 4 12 -15 0z" fill="#ffffff"/>
<path d="M5680 671 c-6 -12 -5 -22 2 -29 9 -9 7 -12 -7 -12 -26 0 -12 -11 19 -14 15 -2 29 1 32 5 3 5 -1 9 -9 9 -8 0 -20 7 -27 15 -10 12 -8 16 14 25 31 11 33 15 6 17 -11 1 -24 -6 -30 -16z" fill="#ffffff"/>
<path d="M5746 682 c-3 -5 1 -9 9 -9 8 0 12 4 9 9 -3 4 -7 8 -9 8 -2 0 -6 -4 -9 -8z" fill="#ffffff"/>
<path d="M5633 673 c9 -2 23 -2 30 0 6 3 -1 5 -18 5 -16 0 -22 -2 -12 -5z" fill="#ffffff"/>
<path d="M5445 660 c4 -6 11 -8 16 -5 14 9 11 15 -7 15 -8 0 -12 -5 -9 -10z" fill="#ffffff"/>
<path d="M5301 651 c-8 -6 -9 -11 -3 -15 6 -3 14 -1 17 5 9 14 2 20 -14 10z" fill="#ffffff"/>
<path d="M5500 644 c-33 -14 -33 -14 -5 -9 17 3 35 6 42 7 7 1 10 5 7 10 -3 4 -6 7 -7 7 -1 -1 -18 -8 -37 -15z" fill="#ffffff"/>
<path d="M5738 648 c6 -6 8 -16 6 -23 -7 -17 13 -29 22 -14 4 8 3 9 -4 5 -16 -9 -15 7 0 22 7 7 10 12 8 13 -3 0 -13 2 -24 4 -13 3 -15 0 -8 -7z" fill="#ffffff"/>
<path d="M5824 626 c-3 -8 -12 -12 -19 -10 -7 3 -15 1 -18 -4 -3 -4 6 -8 21 -8 20 0 28 5 28 18 0 22 -5 23 -12 4z" fill="#ffffff"/>
<path d="M5840 585 c0 -7 30 -13 34 -7 3 4 -4 9 -15 9 -10 1 -19 0 -19 -2z" fill="#ffffff"/>
<path d="M5746 572 c-3 -5 1 -9 9 -9 8 0 12 4 9 9 -3 4 -7 8 -9 8 -2 0 -6 -4 -9 -8z" fill="#ffffff"/>
<path d="M5786 568 c3 -5 10 -6 15 -3 13 9 11 12 -6 12 -8 0 -12 -4 -9 -9z" fill="#ffffff"/>
<path d="M5895 570 c3 -5 11 -10 16 -10 6 0 7 5 4 10 -3 6 -11 10 -16 10 -6 0 -7 -4 -4 -10z" fill="#ffffff"/>
<path d="M6348 523 c7 -3 16 -2 19 1 4 3 -2 6 -13 5 -11 0 -14 -3 -6 -6z" fill="#ffffff"/>
<path d="M6395 430 c-4 -6 -16 -8 -28 -5 -12 2 -16 2 -9 -1 6 -3 10 -10 7 -14 -3 -5 3 -8 14 -7 11 0 19 4 19 7 -1 17 4 20 22 10 11 -6 20 -8 20 -6 0 12 -39 26 -45 16z" fill="#ffffff"/>
<path d="M6305 419 c-3 -4 2 -6 10 -5 21 3 28 13 10 13 -9 0 -18 -4 -20 -8z" fill="#ffffff"/>
<path d="M6466 422 c-3 -5 1 -9 9 -9 8 0 12 4 9 9 -3 4 -7 8 -9 8 -2 0 -6 -4 -9 -8z" fill="#ffffff"/>
<path d="M6247 376 c-11 -8 -14 -17 -8 -20 5 -4 15 3 21 14 13 23 11 24 -13 6z" fill="#ffffff"/>
<path d="M6369 366 c29 -31 35 -33 22 -7 -6 10 -18 22 -28 25 -13 5 -11 1 6 -18z" fill="#ffffff"/>
<path d="M6424 360 c0 -13 4 -16 10 -10 7 7 7 13 0 20 -6 6 -10 3 -10 -10z" fill="#ffffff"/>
<path d="M6435 330 c-3 -5 -1 -10 4 -10 6 0 11 5 11 10 0 6 -2 10 -4 10 -3 0 -8 -4 -11 -10z" fill="#ffffff"/>
<path d="M6390 315 c12 -14 5 -51 -12 -74 -11 -14 -11 -14 3 -4 18 14 30 8 23 -11 -3 -7 4 -20 15 -30 11 -10 18 -23 15 -27 -3 -5 0 -9 5 -9 6 0 11 -9 11 -19 0 -13 6 -19 18 -18 10 0 19 6 19 13 0 7 -7 9 -15 6 -11 -4 -14 -1 -9 12 5 12 3 15 -6 10 -8 -5 -8 -2 2 9 7 9 17 14 22 11 5 -3 9 2 9 11 0 11 -5 15 -15 11 -8 -3 -15 -1 -15 5 0 6 -5 7 -11 4 -7 -5 -8 4 -4 27 6 30 3 37 -20 52 -14 9 -23 20 -21 25 3 4 -1 8 -9 8 -10 0 -12 -4 -5 -12z m36 -53 c6 -4 7 -17 3 -32 -6 -21 -7 -22 -8 -4 -1 11 -6 25 -13 32 -13 13 0 16 18 4z" fill="#ffffff"/>
<path d="M6460 241 c0 -5 7 -11 15 -15 8 -3 15 -1 15 3 0 5 -7 11 -15 15 -8 3 -15 1 -15 -3z" fill="#ffffff"/>
<path d="M5557 129 c7 -7 15 -10 18 -7 3 3 -2 9 -12 12 -14 6 -15 5 -6 -5z" fill="#ffffff"/>
</g>
</svg>