<?xml version="1.0" standalone="no"?>
<!DOCTYPE svg PUBLIC "-//W3C//DTD SVG 20010904//EN"
 "http://www.w3.org/TR/2001/REC-SVG-20010904/DTD/svg10.dtd">
<svg version="1.0" xmlns="http://www.w3.org/2000/svg"
 width="1024.000000pt" height="1024.000000pt" viewBox="0 0 1024.000000 1024.000000"
 preserveAspectRatio="xMidYMid meet">

<g transform="translate(0.000000,1024.000000) scale(0.100000,-0.100000)"
fill="#000000" stroke="none">
<path d="M4740 9594 c-443 -26 -853 -88 -1110 -170 -407 -129 -594 -312 -673
-659 -19 -83 -20 -130 -24 -632 l-5 -543 1069 -2 1068 -3 0 -135 0 -135 -1580
-5 c-1748 -6 -1608 -1 -1817 -70 -392 -131 -696 -446 -836 -866 -59 -175 -143
-599 -174 -869 -16 -142 -16 -578 0 -720 19 -167 59 -400 103 -600 99 -443
232 -720 448 -928 140 -135 295 -217 492 -262 61 -14 150 -18 517 -22 l442 -5
0 533 c0 561 5 640 48 789 90 307 288 579 553 758 146 98 298 162 484 205 88
20 122 21 1325 27 l1235 6 85 23 c397 110 679 401 782 808 l23 88 0 1170 0
1170 -22 88 c-63 246 -212 464 -428 625 -144 107 -378 210 -562 246 -116 23
-346 53 -543 71 -166 15 -751 27 -900 19z m-717 -686 c79 -37 160 -116 200
-197 30 -62 32 -72 32 -176 0 -101 -2 -115 -29 -170 -36 -73 -124 -163 -188
-193 -100 -46 -190 -53 -291 -22 -329 102 -388 544 -96 730 74 48 122 60 224
57 72 -2 101 -8 148 -29z"/>
<path d="M7567 6768 c-3 -456 -7 -557 -21 -631 -95 -493 -455 -908 -921 -1061
-193 -63 -103 -59 -1455 -66 l-1235 -6 -85 -23 c-419 -116 -725 -445 -805
-864 -23 -122 -22 -2301 1 -2415 87 -426 480 -746 1132 -923 367 -99 618 -133
972 -134 248 0 372 9 565 41 687 114 1161 332 1397 644 65 85 132 224 159 330
21 81 23 109 26 562 l4 478 -1068 2 -1068 3 -3 133 -3 132 1608 0 c958 0 1648
4 1707 10 452 44 697 307 936 1006 132 388 190 715 190 1078 0 558 -177 1384
-367 1714 -172 298 -383 463 -662 516 -68 13 -165 16 -541 16 l-458 0 -5 -542z
m-1054 -4638 c37 -14 79 -41 117 -77 212 -196 166 -531 -92 -665 -60 -32 -68
-33 -173 -33 -101 0 -115 3 -169 29 -163 81 -258 263 -227 434 48 258 301 404
544 312z"/>
</g>
</svg>
