<svg xmlns="http://www.w3.org/2000/svg" width="1024" height="1024" viewBox="0 0 1024 1024" version="1.1"><path d="" stroke="none" fill="#080404" fill-rule="evenodd"/><path d="M 567.567 252.250 C 560.616 270.924, 532.706 345.556, 478.657 490 C 461.884 534.825, 435.036 606.600, 418.994 649.500 C 402.952 692.400, 384.691 741.177, 378.414 757.894 C 372.136 774.611, 367 788.679, 367 789.158 C 367 789.638, 381.655 789.909, 399.750 789.764 L 432.500 789.500 535.690 514.500 C 592.444 363.250, 639.333 238.262, 639.888 236.750 L 640.896 234 607.629 234 L 574.362 234 567.567 252.250 M 308 296.619 C 305.525 298.047, 297.200 302.600, 289.500 306.737 C 281.800 310.874, 268.750 317.958, 260.500 322.478 C 252.250 326.999, 236.725 335.446, 226 341.249 C 215.275 347.053, 198.850 355.960, 189.500 361.043 C 180.150 366.126, 167.100 373.191, 160.500 376.742 C 153.900 380.293, 140.850 387.374, 131.500 392.478 C 122.150 397.582, 106.400 406.147, 96.500 411.512 C 86.600 416.877, 76.250 422.490, 73.500 423.984 C 70.750 425.478, 59.050 431.808, 47.500 438.052 C 35.950 444.295, 20.650 452.588, 13.500 456.479 L 0.500 463.554 0.500 511.457 L 0.500 559.360 5 561.992 C 7.475 563.439, 23.796 572.371, 41.269 581.840 C 58.743 591.309, 74.718 600.001, 76.769 601.157 C 78.821 602.312, 93.325 610.227, 109 618.745 C 124.675 627.264, 144.250 637.950, 152.500 642.493 C 165.549 649.678, 189.250 662.622, 207 672.259 C 210.025 673.901, 213.850 676.036, 215.500 677.002 C 217.150 677.969, 232.422 686.294, 249.438 695.503 C 266.454 704.711, 281.875 713.087, 283.707 714.116 C 295.531 720.757, 312.769 730, 313.331 730 C 313.699 730, 314 705.022, 314 674.494 L 314 618.988 204.925 564.757 L 95.849 510.525 110.210 503.512 C 118.108 499.656, 135.355 491.354, 148.535 485.064 C 161.716 478.774, 181.050 469.484, 191.500 464.420 C 217.442 451.850, 258.611 432.064, 287.492 418.288 C 300.687 411.994, 312.050 406.374, 312.742 405.799 C 313.725 404.983, 314 392.654, 314 349.378 C 314 318.920, 313.663 294.005, 313.250 294.012 C 312.837 294.019, 310.475 295.192, 308 296.619 M 710 349.065 L 710 404.130 751.750 424.677 C 774.712 435.978, 801.150 448.947, 810.500 453.497 C 819.850 458.047, 845.050 470.418, 866.500 480.987 C 887.950 491.557, 910.627 502.666, 916.894 505.675 L 928.289 511.145 899.394 525.436 C 883.502 533.297, 842.600 553.570, 808.500 570.488 C 774.400 587.406, 738.288 605.225, 728.250 610.085 L 710 618.923 710 674.568 C 710 726.456, 710.114 730.170, 711.694 729.564 C 712.626 729.206, 721.289 724.576, 730.944 719.275 C 740.600 713.974, 757.275 704.839, 768 698.976 C 778.725 693.113, 799.650 681.664, 814.500 673.535 C 829.350 665.406, 844.200 657.281, 847.500 655.478 C 850.800 653.676, 860.250 648.491, 868.500 643.956 C 876.750 639.422, 888.450 633.035, 894.500 629.764 C 900.550 626.493, 912.250 620.098, 920.500 615.553 C 928.750 611.008, 944.950 602.116, 956.500 595.792 C 968.050 589.468, 987.967 578.556, 1000.760 571.543 L 1024.019 558.792 1023.760 511.313 L 1023.500 463.835 1007 454.861 C 997.925 449.925, 987.800 444.411, 984.500 442.608 C 961.493 430.034, 928.743 412.235, 907.500 400.759 C 893.750 393.331, 880.475 386.133, 878 384.763 C 867.034 378.692, 838.078 362.939, 809.500 347.497 C 792.450 338.285, 776.475 329.623, 774 328.250 C 756.992 318.811, 711.047 294, 710.577 294 C 710.259 294, 710 318.779, 710 349.065" stroke="none" fill="#040404" fill-rule="evenodd"/></svg>